%TF.GenerationSoftware,KiCad,Pcbnew,(5.1.6)-1*%
%TF.CreationDate,2020-07-25T03:11:20-04:00*%
%TF.ProjectId,myfirstKeyboard,6d796669-7273-4744-9b65-79626f617264,rev?*%
%TF.SameCoordinates,Original*%
%TF.FileFunction,Copper,L1,Top*%
%TF.FilePolarity,Positive*%
%FSLAX46Y46*%
G04 Gerber Fmt 4.6, Leading zero omitted, Abs format (unit mm)*
G04 Created by KiCad (PCBNEW (5.1.6)-1) date 2020-07-25 03:11:20*
%MOMM*%
%LPD*%
G01*
G04 APERTURE LIST*
%TA.AperFunction,ComponentPad*%
%ADD10R,1.600000X1.600000*%
%TD*%
%TA.AperFunction,ComponentPad*%
%ADD11C,1.600000*%
%TD*%
%TA.AperFunction,ComponentPad*%
%ADD12O,1.500000X4.000000*%
%TD*%
%TA.AperFunction,ViaPad*%
%ADD13C,5.000000*%
%TD*%
%TA.AperFunction,ViaPad*%
%ADD14C,0.800000*%
%TD*%
%TA.AperFunction,Conductor*%
%ADD15C,0.250000*%
%TD*%
%TA.AperFunction,Conductor*%
%ADD16C,0.254000*%
%TD*%
G04 APERTURE END LIST*
%TO.P,K6,1*%
%TO.N,/col2*%
%TA.AperFunction,ComponentPad*%
G36*
G01*
X118911299Y-111057191D02*
X120120223Y-109159560D01*
G75*
G02*
X121846087Y-108776946I1054239J-671625D01*
G01*
X121846087Y-108776946D01*
G75*
G02*
X122228701Y-110502810I-671625J-1054239D01*
G01*
X121019777Y-112400440D01*
G75*
G02*
X119293913Y-112783054I-1054239J671625D01*
G01*
X119293913Y-112783054D01*
G75*
G02*
X118911299Y-111057190I671625J1054239D01*
G01*
G37*
%TD.AperFunction*%
%TO.P,K6,2*%
%TO.N,Net-(D6-Pad2)*%
%TA.AperFunction,ComponentPad*%
G36*
G01*
X125078170Y-109714309D02*
X125117619Y-109135653D01*
G75*
G02*
X126449743Y-107973567I1247105J-85019D01*
G01*
X126449743Y-107973567D01*
G75*
G02*
X127611829Y-109305691I-85019J-1247105D01*
G01*
X127572381Y-109884347D01*
G75*
G02*
X126240257Y-111046433I-1247105J85019D01*
G01*
X126240257Y-111046433D01*
G75*
G02*
X125078171Y-109714309I85019J1247105D01*
G01*
G37*
%TD.AperFunction*%
%TD*%
%TO.P,K5,2*%
%TO.N,Net-(D5-Pad2)*%
%TA.AperFunction,ComponentPad*%
G36*
G01*
X125078170Y-90664309D02*
X125117619Y-90085653D01*
G75*
G02*
X126449743Y-88923567I1247105J-85019D01*
G01*
X126449743Y-88923567D01*
G75*
G02*
X127611829Y-90255691I-85019J-1247105D01*
G01*
X127572381Y-90834347D01*
G75*
G02*
X126240257Y-91996433I-1247105J85019D01*
G01*
X126240257Y-91996433D01*
G75*
G02*
X125078171Y-90664309I85019J1247105D01*
G01*
G37*
%TD.AperFunction*%
%TO.P,K5,1*%
%TO.N,/col2*%
%TA.AperFunction,ComponentPad*%
G36*
G01*
X118911299Y-92007191D02*
X120120223Y-90109560D01*
G75*
G02*
X121846087Y-89726946I1054239J-671625D01*
G01*
X121846087Y-89726946D01*
G75*
G02*
X122228701Y-91452810I-671625J-1054239D01*
G01*
X121019777Y-93350440D01*
G75*
G02*
X119293913Y-93733054I-1054239J671625D01*
G01*
X119293913Y-93733054D01*
G75*
G02*
X118911299Y-92007190I671625J1054239D01*
G01*
G37*
%TD.AperFunction*%
%TD*%
%TO.P,K4,1*%
%TO.N,/col1*%
%TA.AperFunction,ComponentPad*%
G36*
G01*
X99861299Y-111057191D02*
X101070223Y-109159560D01*
G75*
G02*
X102796087Y-108776946I1054239J-671625D01*
G01*
X102796087Y-108776946D01*
G75*
G02*
X103178701Y-110502810I-671625J-1054239D01*
G01*
X101969777Y-112400440D01*
G75*
G02*
X100243913Y-112783054I-1054239J671625D01*
G01*
X100243913Y-112783054D01*
G75*
G02*
X99861299Y-111057190I671625J1054239D01*
G01*
G37*
%TD.AperFunction*%
%TO.P,K4,2*%
%TO.N,Net-(D4-Pad2)*%
%TA.AperFunction,ComponentPad*%
G36*
G01*
X106028170Y-109714309D02*
X106067619Y-109135653D01*
G75*
G02*
X107399743Y-107973567I1247105J-85019D01*
G01*
X107399743Y-107973567D01*
G75*
G02*
X108561829Y-109305691I-85019J-1247105D01*
G01*
X108522381Y-109884347D01*
G75*
G02*
X107190257Y-111046433I-1247105J85019D01*
G01*
X107190257Y-111046433D01*
G75*
G02*
X106028171Y-109714309I85019J1247105D01*
G01*
G37*
%TD.AperFunction*%
%TD*%
%TO.P,K1,2*%
%TO.N,Net-(D1-Pad2)*%
%TA.AperFunction,ComponentPad*%
G36*
G01*
X86978170Y-90664309D02*
X87017619Y-90085653D01*
G75*
G02*
X88349743Y-88923567I1247105J-85019D01*
G01*
X88349743Y-88923567D01*
G75*
G02*
X89511829Y-90255691I-85019J-1247105D01*
G01*
X89472381Y-90834347D01*
G75*
G02*
X88140257Y-91996433I-1247105J85019D01*
G01*
X88140257Y-91996433D01*
G75*
G02*
X86978171Y-90664309I85019J1247105D01*
G01*
G37*
%TD.AperFunction*%
%TO.P,K1,1*%
%TO.N,/col0*%
%TA.AperFunction,ComponentPad*%
G36*
G01*
X80811299Y-92007191D02*
X82020223Y-90109560D01*
G75*
G02*
X83746087Y-89726946I1054239J-671625D01*
G01*
X83746087Y-89726946D01*
G75*
G02*
X84128701Y-91452810I-671625J-1054239D01*
G01*
X82919777Y-93350440D01*
G75*
G02*
X81193913Y-93733054I-1054239J671625D01*
G01*
X81193913Y-93733054D01*
G75*
G02*
X80811299Y-92007190I671625J1054239D01*
G01*
G37*
%TD.AperFunction*%
%TD*%
%TO.P,K2,2*%
%TO.N,Net-(D2-Pad2)*%
%TA.AperFunction,ComponentPad*%
G36*
G01*
X86978170Y-109714309D02*
X87017619Y-109135653D01*
G75*
G02*
X88349743Y-107973567I1247105J-85019D01*
G01*
X88349743Y-107973567D01*
G75*
G02*
X89511829Y-109305691I-85019J-1247105D01*
G01*
X89472381Y-109884347D01*
G75*
G02*
X88140257Y-111046433I-1247105J85019D01*
G01*
X88140257Y-111046433D01*
G75*
G02*
X86978171Y-109714309I85019J1247105D01*
G01*
G37*
%TD.AperFunction*%
%TO.P,K2,1*%
%TO.N,/col0*%
%TA.AperFunction,ComponentPad*%
G36*
G01*
X80811299Y-111057191D02*
X82020223Y-109159560D01*
G75*
G02*
X83746087Y-108776946I1054239J-671625D01*
G01*
X83746087Y-108776946D01*
G75*
G02*
X84128701Y-110502810I-671625J-1054239D01*
G01*
X82919777Y-112400440D01*
G75*
G02*
X81193913Y-112783054I-1054239J671625D01*
G01*
X81193913Y-112783054D01*
G75*
G02*
X80811299Y-111057190I671625J1054239D01*
G01*
G37*
%TD.AperFunction*%
%TD*%
D10*
%TO.P,D1,1*%
%TO.N,/row0*%
X81825000Y-100012500D03*
D11*
%TO.P,D1,2*%
%TO.N,Net-(D1-Pad2)*%
X89625000Y-100012500D03*
%TD*%
%TO.P,D2,2*%
%TO.N,Net-(D2-Pad2)*%
X89625000Y-119062500D03*
D10*
%TO.P,D2,1*%
%TO.N,/row1*%
X81825000Y-119062500D03*
%TD*%
D11*
%TO.P,D3,2*%
%TO.N,Net-(D3-Pad2)*%
X108675000Y-100330000D03*
D10*
%TO.P,D3,1*%
%TO.N,/row0*%
X100875000Y-100330000D03*
%TD*%
%TO.P,D4,1*%
%TO.N,/row1*%
X100875000Y-119062500D03*
D11*
%TO.P,D4,2*%
%TO.N,Net-(D4-Pad2)*%
X108675000Y-119062500D03*
%TD*%
D12*
%TO.P,J1,6*%
%TO.N,GND*%
X107375000Y-84976000D03*
X114675000Y-84976000D03*
%TD*%
%TO.P,K3,1*%
%TO.N,/col1*%
%TA.AperFunction,ComponentPad*%
G36*
G01*
X99861299Y-92007191D02*
X101070223Y-90109560D01*
G75*
G02*
X102796087Y-89726946I1054239J-671625D01*
G01*
X102796087Y-89726946D01*
G75*
G02*
X103178701Y-91452810I-671625J-1054239D01*
G01*
X101969777Y-93350440D01*
G75*
G02*
X100243913Y-93733054I-1054239J671625D01*
G01*
X100243913Y-93733054D01*
G75*
G02*
X99861299Y-92007190I671625J1054239D01*
G01*
G37*
%TD.AperFunction*%
%TO.P,K3,2*%
%TO.N,Net-(D3-Pad2)*%
%TA.AperFunction,ComponentPad*%
G36*
G01*
X106028170Y-90664309D02*
X106067619Y-90085653D01*
G75*
G02*
X107399743Y-88923567I1247105J-85019D01*
G01*
X107399743Y-88923567D01*
G75*
G02*
X108561829Y-90255691I-85019J-1247105D01*
G01*
X108522381Y-90834347D01*
G75*
G02*
X107190257Y-91996433I-1247105J85019D01*
G01*
X107190257Y-91996433D01*
G75*
G02*
X106028171Y-90664309I85019J1247105D01*
G01*
G37*
%TD.AperFunction*%
%TD*%
D11*
%TO.P,D5,2*%
%TO.N,Net-(D5-Pad2)*%
X127725000Y-100012500D03*
D10*
%TO.P,D5,1*%
%TO.N,/row0*%
X119925000Y-100012500D03*
%TD*%
%TO.P,D6,1*%
%TO.N,/row1*%
X119925000Y-119380000D03*
D11*
%TO.P,D6,2*%
%TO.N,Net-(D6-Pad2)*%
X127725000Y-119380000D03*
%TD*%
D13*
%TO.N,*%
X153035000Y-85725000D03*
X153035000Y-125095000D03*
X73025000Y-125095000D03*
X73025000Y-85725000D03*
D14*
%TO.N,GND*%
X142133320Y-118724680D03*
X133842760Y-113558320D03*
X147878800Y-85262720D03*
X138150600Y-91440000D03*
%TO.N,/col1*%
X141986000Y-122809000D03*
%TO.N,/col2*%
X147066000Y-120142000D03*
%TD*%
D15*
%TO.N,/row0*%
X99605000Y-101600000D02*
X100875000Y-100330000D01*
X82550000Y-101600000D02*
X99605000Y-101600000D01*
X81825000Y-100012500D02*
X81825000Y-100875000D01*
X81825000Y-100875000D02*
X82550000Y-101600000D01*
X100875000Y-100330000D02*
X100875000Y-100875000D01*
X100875000Y-100875000D02*
X101600000Y-101600000D01*
X101600000Y-101600000D02*
X118110000Y-101600000D01*
X119697500Y-100012500D02*
X119925000Y-100012500D01*
X118110000Y-101600000D02*
X119697500Y-100012500D01*
%TO.N,/col1*%
X97790000Y-112395000D02*
X97790000Y-120015000D01*
X101520000Y-110780000D02*
X99405000Y-110780000D01*
X99405000Y-110780000D02*
X97790000Y-112395000D01*
X100584000Y-122809000D02*
X141986000Y-122809000D01*
X97790000Y-120015000D02*
X100584000Y-122809000D01*
%TO.N,/col2*%
X120650000Y-97790000D02*
X120650000Y-91810000D01*
X123190000Y-100330000D02*
X120650000Y-97790000D01*
X120570000Y-110780000D02*
X123190000Y-107950000D01*
X120650000Y-91810000D02*
X120570000Y-91730000D01*
X123190000Y-107950000D02*
X123190000Y-100330000D01*
X120570000Y-110780000D02*
X118328000Y-110780000D01*
X118328000Y-110780000D02*
X116840000Y-112268000D01*
X116840000Y-112268000D02*
X116840000Y-119888000D01*
X116840000Y-119888000D02*
X118364000Y-121412000D01*
X145796000Y-121412000D02*
X147066000Y-120142000D01*
X118364000Y-121412000D02*
X145796000Y-121412000D01*
%TD*%
D16*
%TO.N,GND*%
G36*
X155304545Y-81978909D02*
G01*
X155655208Y-82084780D01*
X155978625Y-82256744D01*
X156262484Y-82488254D01*
X156495965Y-82770486D01*
X156670183Y-83092695D01*
X156778502Y-83442614D01*
X156820001Y-83837452D01*
X156820000Y-126967721D01*
X156781091Y-127364545D01*
X156675220Y-127715206D01*
X156503257Y-128038623D01*
X156271748Y-128322482D01*
X155989514Y-128555965D01*
X155667304Y-128730184D01*
X155317385Y-128838502D01*
X154922557Y-128880000D01*
X71152279Y-128880000D01*
X70755455Y-128841091D01*
X70404794Y-128735220D01*
X70081377Y-128563257D01*
X69797518Y-128331748D01*
X69564035Y-128049514D01*
X69389816Y-127727304D01*
X69281498Y-127377385D01*
X69240000Y-126982557D01*
X69240000Y-124786229D01*
X69890000Y-124786229D01*
X69890000Y-125403771D01*
X70010476Y-126009446D01*
X70246799Y-126579979D01*
X70589886Y-127093446D01*
X71026554Y-127530114D01*
X71540021Y-127873201D01*
X72110554Y-128109524D01*
X72716229Y-128230000D01*
X73333771Y-128230000D01*
X73939446Y-128109524D01*
X74509979Y-127873201D01*
X75023446Y-127530114D01*
X75460114Y-127093446D01*
X75803201Y-126579979D01*
X76039524Y-126009446D01*
X76160000Y-125403771D01*
X76160000Y-124786229D01*
X149900000Y-124786229D01*
X149900000Y-125403771D01*
X150020476Y-126009446D01*
X150256799Y-126579979D01*
X150599886Y-127093446D01*
X151036554Y-127530114D01*
X151550021Y-127873201D01*
X152120554Y-128109524D01*
X152726229Y-128230000D01*
X153343771Y-128230000D01*
X153949446Y-128109524D01*
X154519979Y-127873201D01*
X155033446Y-127530114D01*
X155470114Y-127093446D01*
X155813201Y-126579979D01*
X156049524Y-126009446D01*
X156170000Y-125403771D01*
X156170000Y-124786229D01*
X156049524Y-124180554D01*
X155813201Y-123610021D01*
X155470114Y-123096554D01*
X155033446Y-122659886D01*
X154519979Y-122316799D01*
X153949446Y-122080476D01*
X153343771Y-121960000D01*
X152726229Y-121960000D01*
X152120554Y-122080476D01*
X151550021Y-122316799D01*
X151036554Y-122659886D01*
X150599886Y-123096554D01*
X150256799Y-123610021D01*
X150020476Y-124180554D01*
X149900000Y-124786229D01*
X76160000Y-124786229D01*
X76039524Y-124180554D01*
X75803201Y-123610021D01*
X75460114Y-123096554D01*
X75023446Y-122659886D01*
X74509979Y-122316799D01*
X73939446Y-122080476D01*
X73333771Y-121960000D01*
X72716229Y-121960000D01*
X72110554Y-122080476D01*
X71540021Y-122316799D01*
X71026554Y-122659886D01*
X70589886Y-123096554D01*
X70246799Y-123610021D01*
X70010476Y-124180554D01*
X69890000Y-124786229D01*
X69240000Y-124786229D01*
X69240000Y-118262500D01*
X80386928Y-118262500D01*
X80386928Y-119862500D01*
X80399188Y-119986982D01*
X80435498Y-120106680D01*
X80494463Y-120216994D01*
X80573815Y-120313685D01*
X80670506Y-120393037D01*
X80780820Y-120452002D01*
X80900518Y-120488312D01*
X81025000Y-120500572D01*
X82625000Y-120500572D01*
X82749482Y-120488312D01*
X82869180Y-120452002D01*
X82979494Y-120393037D01*
X83076185Y-120313685D01*
X83155537Y-120216994D01*
X83214502Y-120106680D01*
X83250812Y-119986982D01*
X83263072Y-119862500D01*
X83263072Y-118921165D01*
X88190000Y-118921165D01*
X88190000Y-119203835D01*
X88245147Y-119481074D01*
X88353320Y-119742227D01*
X88510363Y-119977259D01*
X88710241Y-120177137D01*
X88945273Y-120334180D01*
X89206426Y-120442353D01*
X89483665Y-120497500D01*
X89766335Y-120497500D01*
X90043574Y-120442353D01*
X90304727Y-120334180D01*
X90539759Y-120177137D01*
X90739637Y-119977259D01*
X90896680Y-119742227D01*
X91004853Y-119481074D01*
X91060000Y-119203835D01*
X91060000Y-118921165D01*
X91004853Y-118643926D01*
X90896680Y-118382773D01*
X90739637Y-118147741D01*
X90539759Y-117947863D01*
X90304727Y-117790820D01*
X90043574Y-117682647D01*
X89766335Y-117627500D01*
X89483665Y-117627500D01*
X89206426Y-117682647D01*
X88945273Y-117790820D01*
X88710241Y-117947863D01*
X88510363Y-118147741D01*
X88353320Y-118382773D01*
X88245147Y-118643926D01*
X88190000Y-118921165D01*
X83263072Y-118921165D01*
X83263072Y-118262500D01*
X83250812Y-118138018D01*
X83214502Y-118018320D01*
X83155537Y-117908006D01*
X83076185Y-117811315D01*
X82979494Y-117731963D01*
X82869180Y-117672998D01*
X82749482Y-117636688D01*
X82625000Y-117624428D01*
X81025000Y-117624428D01*
X80900518Y-117636688D01*
X80780820Y-117672998D01*
X80670506Y-117731963D01*
X80573815Y-117811315D01*
X80494463Y-117908006D01*
X80435498Y-118018320D01*
X80399188Y-118138018D01*
X80386928Y-118262500D01*
X69240000Y-118262500D01*
X69240000Y-114153652D01*
X79159100Y-114153652D01*
X79159100Y-114446348D01*
X79216202Y-114733421D01*
X79328212Y-115003838D01*
X79490826Y-115247206D01*
X79697794Y-115454174D01*
X79941162Y-115616788D01*
X80211579Y-115728798D01*
X80498652Y-115785900D01*
X80791348Y-115785900D01*
X81078421Y-115728798D01*
X81348838Y-115616788D01*
X81592206Y-115454174D01*
X81799174Y-115247206D01*
X81961788Y-115003838D01*
X82073798Y-114733421D01*
X82130900Y-114446348D01*
X82130900Y-114153652D01*
X82108508Y-114041076D01*
X83096100Y-114041076D01*
X83096100Y-114558924D01*
X83197127Y-115066822D01*
X83395299Y-115545251D01*
X83683000Y-115975826D01*
X84049174Y-116342000D01*
X84479749Y-116629701D01*
X84958178Y-116827873D01*
X85466076Y-116928900D01*
X85983924Y-116928900D01*
X86491822Y-116827873D01*
X86970251Y-116629701D01*
X87400826Y-116342000D01*
X87767000Y-115975826D01*
X88054701Y-115545251D01*
X88252873Y-115066822D01*
X88353900Y-114558924D01*
X88353900Y-114153652D01*
X89319100Y-114153652D01*
X89319100Y-114446348D01*
X89376202Y-114733421D01*
X89488212Y-115003838D01*
X89650826Y-115247206D01*
X89857794Y-115454174D01*
X90101162Y-115616788D01*
X90371579Y-115728798D01*
X90658652Y-115785900D01*
X90951348Y-115785900D01*
X91238421Y-115728798D01*
X91508838Y-115616788D01*
X91752206Y-115454174D01*
X91959174Y-115247206D01*
X92121788Y-115003838D01*
X92233798Y-114733421D01*
X92290900Y-114446348D01*
X92290900Y-114153652D01*
X92233798Y-113866579D01*
X92121788Y-113596162D01*
X91959174Y-113352794D01*
X91752206Y-113145826D01*
X91508838Y-112983212D01*
X91238421Y-112871202D01*
X90951348Y-112814100D01*
X90658652Y-112814100D01*
X90371579Y-112871202D01*
X90101162Y-112983212D01*
X89857794Y-113145826D01*
X89650826Y-113352794D01*
X89488212Y-113596162D01*
X89376202Y-113866579D01*
X89319100Y-114153652D01*
X88353900Y-114153652D01*
X88353900Y-114041076D01*
X88252873Y-113533178D01*
X88054701Y-113054749D01*
X87767000Y-112624174D01*
X87400826Y-112258000D01*
X86970251Y-111970299D01*
X86491822Y-111772127D01*
X85983924Y-111671100D01*
X85466076Y-111671100D01*
X84958178Y-111772127D01*
X84479749Y-111970299D01*
X84049174Y-112258000D01*
X83683000Y-112624174D01*
X83395299Y-113054749D01*
X83197127Y-113533178D01*
X83096100Y-114041076D01*
X82108508Y-114041076D01*
X82073798Y-113866579D01*
X81969559Y-113614924D01*
X82275500Y-113578036D01*
X82628387Y-113462525D01*
X82951960Y-113280387D01*
X83233782Y-113038623D01*
X83405578Y-112819720D01*
X84714006Y-110765900D01*
X84839796Y-110517688D01*
X84939805Y-110160097D01*
X84968131Y-109789866D01*
X84964953Y-109763505D01*
X86338344Y-109763505D01*
X86346721Y-110041645D01*
X86430090Y-110403477D01*
X86582448Y-110742092D01*
X86797939Y-111044477D01*
X87068281Y-111299011D01*
X87383087Y-111495915D01*
X87730257Y-111627618D01*
X88096450Y-111689061D01*
X88467593Y-111677883D01*
X88829425Y-111594514D01*
X89168040Y-111442156D01*
X89470425Y-111226665D01*
X89724959Y-110956323D01*
X89921863Y-110641517D01*
X90053566Y-110294347D01*
X90099613Y-110019916D01*
X90151656Y-109256496D01*
X90143279Y-108978355D01*
X90059910Y-108616523D01*
X89907552Y-108277908D01*
X89692061Y-107975523D01*
X89421719Y-107720989D01*
X89106913Y-107524086D01*
X88759743Y-107392382D01*
X88393550Y-107330939D01*
X88022407Y-107342117D01*
X87660575Y-107425486D01*
X87321960Y-107577844D01*
X87019575Y-107793335D01*
X86765041Y-108063677D01*
X86568137Y-108378483D01*
X86436434Y-108725653D01*
X86390387Y-109000084D01*
X86338344Y-109763505D01*
X84964953Y-109763505D01*
X84923683Y-109421223D01*
X84808171Y-109068336D01*
X84626034Y-108744763D01*
X84384270Y-108462942D01*
X84092171Y-108233701D01*
X83760963Y-108065851D01*
X83403373Y-107965842D01*
X83033141Y-107937517D01*
X82664499Y-107981964D01*
X82311611Y-108097476D01*
X81988039Y-108279613D01*
X81706218Y-108521377D01*
X81534422Y-108740280D01*
X80225993Y-110794101D01*
X80100204Y-111042314D01*
X80000194Y-111399904D01*
X79971869Y-111770135D01*
X80016317Y-112138777D01*
X80131828Y-112491664D01*
X80313966Y-112815237D01*
X80340054Y-112845647D01*
X80211579Y-112871202D01*
X79941162Y-112983212D01*
X79697794Y-113145826D01*
X79490826Y-113352794D01*
X79328212Y-113596162D01*
X79216202Y-113866579D01*
X79159100Y-114153652D01*
X69240000Y-114153652D01*
X69240000Y-99212500D01*
X80386928Y-99212500D01*
X80386928Y-100812500D01*
X80399188Y-100936982D01*
X80435498Y-101056680D01*
X80494463Y-101166994D01*
X80573815Y-101263685D01*
X80670506Y-101343037D01*
X80780820Y-101402002D01*
X80900518Y-101438312D01*
X81025000Y-101450572D01*
X81325771Y-101450572D01*
X81986201Y-102111002D01*
X82009999Y-102140001D01*
X82125724Y-102234974D01*
X82257753Y-102305546D01*
X82401014Y-102349003D01*
X82512667Y-102360000D01*
X82512677Y-102360000D01*
X82550000Y-102363676D01*
X82587323Y-102360000D01*
X99567678Y-102360000D01*
X99605000Y-102363676D01*
X99642322Y-102360000D01*
X99642333Y-102360000D01*
X99753986Y-102349003D01*
X99897247Y-102305546D01*
X100029276Y-102234974D01*
X100145001Y-102140001D01*
X100168804Y-102110997D01*
X100511729Y-101768072D01*
X100693271Y-101768072D01*
X101036201Y-102111002D01*
X101059999Y-102140001D01*
X101175724Y-102234974D01*
X101307753Y-102305546D01*
X101451014Y-102349003D01*
X101562667Y-102360000D01*
X101562677Y-102360000D01*
X101600000Y-102363676D01*
X101637323Y-102360000D01*
X118072678Y-102360000D01*
X118110000Y-102363676D01*
X118147322Y-102360000D01*
X118147333Y-102360000D01*
X118258986Y-102349003D01*
X118402247Y-102305546D01*
X118534276Y-102234974D01*
X118650001Y-102140001D01*
X118673804Y-102110997D01*
X119334229Y-101450572D01*
X120725000Y-101450572D01*
X120849482Y-101438312D01*
X120969180Y-101402002D01*
X121079494Y-101343037D01*
X121176185Y-101263685D01*
X121255537Y-101166994D01*
X121314502Y-101056680D01*
X121350812Y-100936982D01*
X121363072Y-100812500D01*
X121363072Y-99577874D01*
X122430001Y-100644804D01*
X122430000Y-107652210D01*
X121987626Y-108130042D01*
X121860963Y-108065851D01*
X121503373Y-107965842D01*
X121133141Y-107937517D01*
X120764499Y-107981964D01*
X120411611Y-108097476D01*
X120088039Y-108279613D01*
X119806218Y-108521377D01*
X119634422Y-108740280D01*
X118819150Y-110020000D01*
X118365325Y-110020000D01*
X118328000Y-110016324D01*
X118290675Y-110020000D01*
X118290667Y-110020000D01*
X118179014Y-110030997D01*
X118035753Y-110074454D01*
X117903724Y-110145026D01*
X117787999Y-110239999D01*
X117764201Y-110268997D01*
X116329003Y-111704196D01*
X116299999Y-111727999D01*
X116244871Y-111795174D01*
X116205026Y-111843724D01*
X116183499Y-111883998D01*
X116134454Y-111975754D01*
X116090997Y-112119015D01*
X116080000Y-112230668D01*
X116080000Y-112230678D01*
X116076324Y-112268000D01*
X116080000Y-112305322D01*
X116080001Y-119850668D01*
X116076324Y-119888000D01*
X116080001Y-119925333D01*
X116090998Y-120036986D01*
X116097896Y-120059727D01*
X116134454Y-120180246D01*
X116205026Y-120312276D01*
X116271306Y-120393037D01*
X116300000Y-120428001D01*
X116328998Y-120451799D01*
X117800205Y-121923008D01*
X117823999Y-121952001D01*
X117852992Y-121975795D01*
X117852996Y-121975799D01*
X117888655Y-122005063D01*
X117939724Y-122046974D01*
X117943514Y-122049000D01*
X100898802Y-122049000D01*
X98550000Y-119700199D01*
X98550000Y-118262500D01*
X99436928Y-118262500D01*
X99436928Y-119862500D01*
X99449188Y-119986982D01*
X99485498Y-120106680D01*
X99544463Y-120216994D01*
X99623815Y-120313685D01*
X99720506Y-120393037D01*
X99830820Y-120452002D01*
X99950518Y-120488312D01*
X100075000Y-120500572D01*
X101675000Y-120500572D01*
X101799482Y-120488312D01*
X101919180Y-120452002D01*
X102029494Y-120393037D01*
X102126185Y-120313685D01*
X102205537Y-120216994D01*
X102264502Y-120106680D01*
X102300812Y-119986982D01*
X102313072Y-119862500D01*
X102313072Y-118921165D01*
X107240000Y-118921165D01*
X107240000Y-119203835D01*
X107295147Y-119481074D01*
X107403320Y-119742227D01*
X107560363Y-119977259D01*
X107760241Y-120177137D01*
X107995273Y-120334180D01*
X108256426Y-120442353D01*
X108533665Y-120497500D01*
X108816335Y-120497500D01*
X109093574Y-120442353D01*
X109354727Y-120334180D01*
X109589759Y-120177137D01*
X109789637Y-119977259D01*
X109946680Y-119742227D01*
X110054853Y-119481074D01*
X110110000Y-119203835D01*
X110110000Y-118921165D01*
X110054853Y-118643926D01*
X109946680Y-118382773D01*
X109789637Y-118147741D01*
X109589759Y-117947863D01*
X109354727Y-117790820D01*
X109093574Y-117682647D01*
X108816335Y-117627500D01*
X108533665Y-117627500D01*
X108256426Y-117682647D01*
X107995273Y-117790820D01*
X107760241Y-117947863D01*
X107560363Y-118147741D01*
X107403320Y-118382773D01*
X107295147Y-118643926D01*
X107240000Y-118921165D01*
X102313072Y-118921165D01*
X102313072Y-118262500D01*
X102300812Y-118138018D01*
X102264502Y-118018320D01*
X102205537Y-117908006D01*
X102126185Y-117811315D01*
X102029494Y-117731963D01*
X101919180Y-117672998D01*
X101799482Y-117636688D01*
X101675000Y-117624428D01*
X100075000Y-117624428D01*
X99950518Y-117636688D01*
X99830820Y-117672998D01*
X99720506Y-117731963D01*
X99623815Y-117811315D01*
X99544463Y-117908006D01*
X99485498Y-118018320D01*
X99449188Y-118138018D01*
X99436928Y-118262500D01*
X98550000Y-118262500D01*
X98550000Y-115256380D01*
X98747794Y-115454174D01*
X98991162Y-115616788D01*
X99261579Y-115728798D01*
X99548652Y-115785900D01*
X99841348Y-115785900D01*
X100128421Y-115728798D01*
X100398838Y-115616788D01*
X100642206Y-115454174D01*
X100849174Y-115247206D01*
X101011788Y-115003838D01*
X101123798Y-114733421D01*
X101180900Y-114446348D01*
X101180900Y-114153652D01*
X101158508Y-114041076D01*
X102146100Y-114041076D01*
X102146100Y-114558924D01*
X102247127Y-115066822D01*
X102445299Y-115545251D01*
X102733000Y-115975826D01*
X103099174Y-116342000D01*
X103529749Y-116629701D01*
X104008178Y-116827873D01*
X104516076Y-116928900D01*
X105033924Y-116928900D01*
X105541822Y-116827873D01*
X106020251Y-116629701D01*
X106450826Y-116342000D01*
X106817000Y-115975826D01*
X107104701Y-115545251D01*
X107302873Y-115066822D01*
X107403900Y-114558924D01*
X107403900Y-114153652D01*
X108369100Y-114153652D01*
X108369100Y-114446348D01*
X108426202Y-114733421D01*
X108538212Y-115003838D01*
X108700826Y-115247206D01*
X108907794Y-115454174D01*
X109151162Y-115616788D01*
X109421579Y-115728798D01*
X109708652Y-115785900D01*
X110001348Y-115785900D01*
X110288421Y-115728798D01*
X110558838Y-115616788D01*
X110802206Y-115454174D01*
X111009174Y-115247206D01*
X111171788Y-115003838D01*
X111283798Y-114733421D01*
X111340900Y-114446348D01*
X111340900Y-114153652D01*
X111283798Y-113866579D01*
X111171788Y-113596162D01*
X111009174Y-113352794D01*
X110802206Y-113145826D01*
X110558838Y-112983212D01*
X110288421Y-112871202D01*
X110001348Y-112814100D01*
X109708652Y-112814100D01*
X109421579Y-112871202D01*
X109151162Y-112983212D01*
X108907794Y-113145826D01*
X108700826Y-113352794D01*
X108538212Y-113596162D01*
X108426202Y-113866579D01*
X108369100Y-114153652D01*
X107403900Y-114153652D01*
X107403900Y-114041076D01*
X107302873Y-113533178D01*
X107104701Y-113054749D01*
X106817000Y-112624174D01*
X106450826Y-112258000D01*
X106020251Y-111970299D01*
X105541822Y-111772127D01*
X105033924Y-111671100D01*
X104516076Y-111671100D01*
X104008178Y-111772127D01*
X103529749Y-111970299D01*
X103099174Y-112258000D01*
X102733000Y-112624174D01*
X102445299Y-113054749D01*
X102247127Y-113533178D01*
X102146100Y-114041076D01*
X101158508Y-114041076D01*
X101123798Y-113866579D01*
X101019559Y-113614924D01*
X101325500Y-113578036D01*
X101678387Y-113462525D01*
X102001960Y-113280387D01*
X102283782Y-113038623D01*
X102455578Y-112819720D01*
X103764006Y-110765900D01*
X103889796Y-110517688D01*
X103989805Y-110160097D01*
X104018131Y-109789866D01*
X104014953Y-109763505D01*
X105388344Y-109763505D01*
X105396721Y-110041645D01*
X105480090Y-110403477D01*
X105632448Y-110742092D01*
X105847939Y-111044477D01*
X106118281Y-111299011D01*
X106433087Y-111495915D01*
X106780257Y-111627618D01*
X107146450Y-111689061D01*
X107517593Y-111677883D01*
X107879425Y-111594514D01*
X108218040Y-111442156D01*
X108520425Y-111226665D01*
X108774959Y-110956323D01*
X108971863Y-110641517D01*
X109103566Y-110294347D01*
X109149613Y-110019916D01*
X109201656Y-109256496D01*
X109193279Y-108978355D01*
X109109910Y-108616523D01*
X108957552Y-108277908D01*
X108742061Y-107975523D01*
X108471719Y-107720989D01*
X108156913Y-107524086D01*
X107809743Y-107392382D01*
X107443550Y-107330939D01*
X107072407Y-107342117D01*
X106710575Y-107425486D01*
X106371960Y-107577844D01*
X106069575Y-107793335D01*
X105815041Y-108063677D01*
X105618137Y-108378483D01*
X105486434Y-108725653D01*
X105440387Y-109000084D01*
X105388344Y-109763505D01*
X104014953Y-109763505D01*
X103973683Y-109421223D01*
X103858171Y-109068336D01*
X103676034Y-108744763D01*
X103434270Y-108462942D01*
X103142171Y-108233701D01*
X102810963Y-108065851D01*
X102453373Y-107965842D01*
X102083141Y-107937517D01*
X101714499Y-107981964D01*
X101361611Y-108097476D01*
X101038039Y-108279613D01*
X100756218Y-108521377D01*
X100584422Y-108740280D01*
X99769150Y-110020000D01*
X99442323Y-110020000D01*
X99405000Y-110016324D01*
X99367677Y-110020000D01*
X99367667Y-110020000D01*
X99256014Y-110030997D01*
X99112753Y-110074454D01*
X98980723Y-110145026D01*
X98897083Y-110213668D01*
X98864999Y-110239999D01*
X98841201Y-110268997D01*
X97279003Y-111831196D01*
X97249999Y-111854999D01*
X97194871Y-111922174D01*
X97155026Y-111970724D01*
X97084455Y-112102753D01*
X97084454Y-112102754D01*
X97040997Y-112246015D01*
X97030000Y-112357668D01*
X97030000Y-112357678D01*
X97026324Y-112395000D01*
X97030000Y-112432322D01*
X97030001Y-119977668D01*
X97026324Y-120015000D01*
X97030001Y-120052333D01*
X97040998Y-120163986D01*
X97045931Y-120180247D01*
X97084454Y-120307246D01*
X97155026Y-120439276D01*
X97202810Y-120497500D01*
X97250000Y-120555001D01*
X97278998Y-120578799D01*
X100020201Y-123320003D01*
X100043999Y-123349001D01*
X100159724Y-123443974D01*
X100291753Y-123514546D01*
X100435014Y-123558003D01*
X100546667Y-123569000D01*
X100546675Y-123569000D01*
X100584000Y-123572676D01*
X100621325Y-123569000D01*
X141282289Y-123569000D01*
X141326226Y-123612937D01*
X141495744Y-123726205D01*
X141684102Y-123804226D01*
X141884061Y-123844000D01*
X142087939Y-123844000D01*
X142287898Y-123804226D01*
X142476256Y-123726205D01*
X142645774Y-123612937D01*
X142789937Y-123468774D01*
X142903205Y-123299256D01*
X142981226Y-123110898D01*
X143021000Y-122910939D01*
X143021000Y-122707061D01*
X142981226Y-122507102D01*
X142903205Y-122318744D01*
X142805154Y-122172000D01*
X145758678Y-122172000D01*
X145796000Y-122175676D01*
X145833322Y-122172000D01*
X145833333Y-122172000D01*
X145944986Y-122161003D01*
X146088247Y-122117546D01*
X146220276Y-122046974D01*
X146336001Y-121952001D01*
X146359804Y-121922997D01*
X147105802Y-121177000D01*
X147167939Y-121177000D01*
X147367898Y-121137226D01*
X147556256Y-121059205D01*
X147725774Y-120945937D01*
X147869937Y-120801774D01*
X147983205Y-120632256D01*
X148061226Y-120443898D01*
X148101000Y-120243939D01*
X148101000Y-120040061D01*
X148061226Y-119840102D01*
X147983205Y-119651744D01*
X147869937Y-119482226D01*
X147725774Y-119338063D01*
X147556256Y-119224795D01*
X147367898Y-119146774D01*
X147167939Y-119107000D01*
X146964061Y-119107000D01*
X146764102Y-119146774D01*
X146575744Y-119224795D01*
X146406226Y-119338063D01*
X146262063Y-119482226D01*
X146148795Y-119651744D01*
X146070774Y-119840102D01*
X146031000Y-120040061D01*
X146031000Y-120102198D01*
X145481199Y-120652000D01*
X128403954Y-120652000D01*
X128404727Y-120651680D01*
X128639759Y-120494637D01*
X128839637Y-120294759D01*
X128996680Y-120059727D01*
X129104853Y-119798574D01*
X129160000Y-119521335D01*
X129160000Y-119238665D01*
X129104853Y-118961426D01*
X128996680Y-118700273D01*
X128839637Y-118465241D01*
X128639759Y-118265363D01*
X128404727Y-118108320D01*
X128143574Y-118000147D01*
X127866335Y-117945000D01*
X127583665Y-117945000D01*
X127306426Y-118000147D01*
X127045273Y-118108320D01*
X126810241Y-118265363D01*
X126610363Y-118465241D01*
X126453320Y-118700273D01*
X126345147Y-118961426D01*
X126290000Y-119238665D01*
X126290000Y-119521335D01*
X126345147Y-119798574D01*
X126453320Y-120059727D01*
X126610363Y-120294759D01*
X126810241Y-120494637D01*
X127045273Y-120651680D01*
X127046046Y-120652000D01*
X121150822Y-120652000D01*
X121176185Y-120631185D01*
X121255537Y-120534494D01*
X121314502Y-120424180D01*
X121350812Y-120304482D01*
X121363072Y-120180000D01*
X121363072Y-118580000D01*
X121350812Y-118455518D01*
X121314502Y-118335820D01*
X121255537Y-118225506D01*
X121176185Y-118128815D01*
X121079494Y-118049463D01*
X120969180Y-117990498D01*
X120849482Y-117954188D01*
X120725000Y-117941928D01*
X119125000Y-117941928D01*
X119000518Y-117954188D01*
X118880820Y-117990498D01*
X118770506Y-118049463D01*
X118673815Y-118128815D01*
X118594463Y-118225506D01*
X118535498Y-118335820D01*
X118499188Y-118455518D01*
X118486928Y-118580000D01*
X118486928Y-120180000D01*
X118499188Y-120304482D01*
X118535498Y-120424180D01*
X118594463Y-120534494D01*
X118673815Y-120631185D01*
X118699178Y-120652000D01*
X118678803Y-120652000D01*
X117600000Y-119573199D01*
X117600000Y-115256380D01*
X117797794Y-115454174D01*
X118041162Y-115616788D01*
X118311579Y-115728798D01*
X118598652Y-115785900D01*
X118891348Y-115785900D01*
X119178421Y-115728798D01*
X119448838Y-115616788D01*
X119692206Y-115454174D01*
X119899174Y-115247206D01*
X120061788Y-115003838D01*
X120173798Y-114733421D01*
X120230900Y-114446348D01*
X120230900Y-114153652D01*
X120208508Y-114041076D01*
X121196100Y-114041076D01*
X121196100Y-114558924D01*
X121297127Y-115066822D01*
X121495299Y-115545251D01*
X121783000Y-115975826D01*
X122149174Y-116342000D01*
X122579749Y-116629701D01*
X123058178Y-116827873D01*
X123566076Y-116928900D01*
X124083924Y-116928900D01*
X124591822Y-116827873D01*
X125070251Y-116629701D01*
X125500826Y-116342000D01*
X125867000Y-115975826D01*
X126154701Y-115545251D01*
X126352873Y-115066822D01*
X126453900Y-114558924D01*
X126453900Y-114153652D01*
X127419100Y-114153652D01*
X127419100Y-114446348D01*
X127476202Y-114733421D01*
X127588212Y-115003838D01*
X127750826Y-115247206D01*
X127957794Y-115454174D01*
X128201162Y-115616788D01*
X128471579Y-115728798D01*
X128758652Y-115785900D01*
X129051348Y-115785900D01*
X129338421Y-115728798D01*
X129608838Y-115616788D01*
X129852206Y-115454174D01*
X130059174Y-115247206D01*
X130221788Y-115003838D01*
X130333798Y-114733421D01*
X130390900Y-114446348D01*
X130390900Y-114153652D01*
X130333798Y-113866579D01*
X130221788Y-113596162D01*
X130059174Y-113352794D01*
X129852206Y-113145826D01*
X129608838Y-112983212D01*
X129338421Y-112871202D01*
X129051348Y-112814100D01*
X128758652Y-112814100D01*
X128471579Y-112871202D01*
X128201162Y-112983212D01*
X127957794Y-113145826D01*
X127750826Y-113352794D01*
X127588212Y-113596162D01*
X127476202Y-113866579D01*
X127419100Y-114153652D01*
X126453900Y-114153652D01*
X126453900Y-114041076D01*
X126352873Y-113533178D01*
X126154701Y-113054749D01*
X125867000Y-112624174D01*
X125500826Y-112258000D01*
X125070251Y-111970299D01*
X124591822Y-111772127D01*
X124083924Y-111671100D01*
X123566076Y-111671100D01*
X123058178Y-111772127D01*
X122579749Y-111970299D01*
X122149174Y-112258000D01*
X121783000Y-112624174D01*
X121495299Y-113054749D01*
X121297127Y-113533178D01*
X121196100Y-114041076D01*
X120208508Y-114041076D01*
X120173798Y-113866579D01*
X120069559Y-113614924D01*
X120375500Y-113578036D01*
X120728387Y-113462525D01*
X121051960Y-113280387D01*
X121333782Y-113038623D01*
X121505578Y-112819720D01*
X122814006Y-110765900D01*
X122939796Y-110517688D01*
X123039805Y-110160097D01*
X123068131Y-109789866D01*
X123064953Y-109763505D01*
X124438344Y-109763505D01*
X124446721Y-110041645D01*
X124530090Y-110403477D01*
X124682448Y-110742092D01*
X124897939Y-111044477D01*
X125168281Y-111299011D01*
X125483087Y-111495915D01*
X125830257Y-111627618D01*
X126196450Y-111689061D01*
X126567593Y-111677883D01*
X126929425Y-111594514D01*
X127268040Y-111442156D01*
X127570425Y-111226665D01*
X127824959Y-110956323D01*
X128021863Y-110641517D01*
X128153566Y-110294347D01*
X128199613Y-110019916D01*
X128251656Y-109256496D01*
X128243279Y-108978355D01*
X128159910Y-108616523D01*
X128007552Y-108277908D01*
X127792061Y-107975523D01*
X127521719Y-107720989D01*
X127206913Y-107524086D01*
X126859743Y-107392382D01*
X126493550Y-107330939D01*
X126122407Y-107342117D01*
X125760575Y-107425486D01*
X125421960Y-107577844D01*
X125119575Y-107793335D01*
X124865041Y-108063677D01*
X124668137Y-108378483D01*
X124536434Y-108725653D01*
X124490387Y-109000084D01*
X124438344Y-109763505D01*
X123064953Y-109763505D01*
X123023683Y-109421223D01*
X122981878Y-109293510D01*
X123712358Y-108504480D01*
X123730001Y-108490001D01*
X123763090Y-108449682D01*
X123773057Y-108438916D01*
X123786781Y-108420814D01*
X123824974Y-108374276D01*
X123831928Y-108361267D01*
X123840839Y-108349513D01*
X123867155Y-108295362D01*
X123895546Y-108242247D01*
X123899829Y-108228129D01*
X123906275Y-108214864D01*
X123921523Y-108156611D01*
X123939003Y-108098986D01*
X123940449Y-108084307D01*
X123944184Y-108070037D01*
X123947774Y-108009936D01*
X123950000Y-107987333D01*
X123950000Y-107972664D01*
X123953110Y-107920596D01*
X123950000Y-107897985D01*
X123950000Y-100367322D01*
X123953676Y-100329999D01*
X123950000Y-100292676D01*
X123950000Y-100292667D01*
X123939003Y-100181014D01*
X123895546Y-100037753D01*
X123824974Y-99905724D01*
X123796613Y-99871165D01*
X126290000Y-99871165D01*
X126290000Y-100153835D01*
X126345147Y-100431074D01*
X126453320Y-100692227D01*
X126610363Y-100927259D01*
X126810241Y-101127137D01*
X127045273Y-101284180D01*
X127306426Y-101392353D01*
X127583665Y-101447500D01*
X127866335Y-101447500D01*
X128143574Y-101392353D01*
X128404727Y-101284180D01*
X128639759Y-101127137D01*
X128839637Y-100927259D01*
X128996680Y-100692227D01*
X129104853Y-100431074D01*
X129160000Y-100153835D01*
X129160000Y-99871165D01*
X129104853Y-99593926D01*
X128996680Y-99332773D01*
X128839637Y-99097741D01*
X128639759Y-98897863D01*
X128404727Y-98740820D01*
X128143574Y-98632647D01*
X127866335Y-98577500D01*
X127583665Y-98577500D01*
X127306426Y-98632647D01*
X127045273Y-98740820D01*
X126810241Y-98897863D01*
X126610363Y-99097741D01*
X126453320Y-99332773D01*
X126345147Y-99593926D01*
X126290000Y-99871165D01*
X123796613Y-99871165D01*
X123790333Y-99863514D01*
X123753799Y-99818996D01*
X123753795Y-99818992D01*
X123730001Y-99789999D01*
X123701008Y-99766205D01*
X121410000Y-97475199D01*
X121410000Y-96289321D01*
X121495299Y-96495251D01*
X121783000Y-96925826D01*
X122149174Y-97292000D01*
X122579749Y-97579701D01*
X123058178Y-97777873D01*
X123566076Y-97878900D01*
X124083924Y-97878900D01*
X124591822Y-97777873D01*
X125070251Y-97579701D01*
X125500826Y-97292000D01*
X125867000Y-96925826D01*
X126154701Y-96495251D01*
X126352873Y-96016822D01*
X126453900Y-95508924D01*
X126453900Y-95103652D01*
X127419100Y-95103652D01*
X127419100Y-95396348D01*
X127476202Y-95683421D01*
X127588212Y-95953838D01*
X127750826Y-96197206D01*
X127957794Y-96404174D01*
X128201162Y-96566788D01*
X128471579Y-96678798D01*
X128758652Y-96735900D01*
X129051348Y-96735900D01*
X129338421Y-96678798D01*
X129608838Y-96566788D01*
X129852206Y-96404174D01*
X130059174Y-96197206D01*
X130221788Y-95953838D01*
X130333798Y-95683421D01*
X130390900Y-95396348D01*
X130390900Y-95103652D01*
X130333798Y-94816579D01*
X130221788Y-94546162D01*
X130059174Y-94302794D01*
X129852206Y-94095826D01*
X129608838Y-93933212D01*
X129338421Y-93821202D01*
X129051348Y-93764100D01*
X128758652Y-93764100D01*
X128471579Y-93821202D01*
X128201162Y-93933212D01*
X127957794Y-94095826D01*
X127750826Y-94302794D01*
X127588212Y-94546162D01*
X127476202Y-94816579D01*
X127419100Y-95103652D01*
X126453900Y-95103652D01*
X126453900Y-94991076D01*
X126352873Y-94483178D01*
X126154701Y-94004749D01*
X125867000Y-93574174D01*
X125500826Y-93208000D01*
X125070251Y-92920299D01*
X124591822Y-92722127D01*
X124083924Y-92621100D01*
X123566076Y-92621100D01*
X123058178Y-92722127D01*
X122579749Y-92920299D01*
X122149174Y-93208000D01*
X121783000Y-93574174D01*
X121495299Y-94004749D01*
X121410000Y-94210679D01*
X121410000Y-93891506D01*
X121505578Y-93769720D01*
X122814006Y-91715900D01*
X122939796Y-91467688D01*
X123039805Y-91110097D01*
X123068131Y-90739866D01*
X123064953Y-90713505D01*
X124438344Y-90713505D01*
X124446721Y-90991645D01*
X124530090Y-91353477D01*
X124682448Y-91692092D01*
X124897939Y-91994477D01*
X125168281Y-92249011D01*
X125483087Y-92445915D01*
X125830257Y-92577618D01*
X126196450Y-92639061D01*
X126567593Y-92627883D01*
X126929425Y-92544514D01*
X127268040Y-92392156D01*
X127570425Y-92176665D01*
X127824959Y-91906323D01*
X128021863Y-91591517D01*
X128153566Y-91244347D01*
X128199613Y-90969916D01*
X128251656Y-90206496D01*
X128243279Y-89928355D01*
X128159910Y-89566523D01*
X128007552Y-89227908D01*
X127792061Y-88925523D01*
X127521719Y-88670989D01*
X127206913Y-88474086D01*
X126859743Y-88342382D01*
X126493550Y-88280939D01*
X126122407Y-88292117D01*
X125760575Y-88375486D01*
X125421960Y-88527844D01*
X125119575Y-88743335D01*
X124865041Y-89013677D01*
X124668137Y-89328483D01*
X124536434Y-89675653D01*
X124490387Y-89950084D01*
X124438344Y-90713505D01*
X123064953Y-90713505D01*
X123023683Y-90371223D01*
X122908171Y-90018336D01*
X122726034Y-89694763D01*
X122484270Y-89412942D01*
X122192171Y-89183701D01*
X121860963Y-89015851D01*
X121503373Y-88915842D01*
X121133141Y-88887517D01*
X120764499Y-88931964D01*
X120411611Y-89047476D01*
X120088039Y-89229613D01*
X119806218Y-89471377D01*
X119634422Y-89690280D01*
X118325993Y-91744101D01*
X118200204Y-91992314D01*
X118100194Y-92349904D01*
X118071869Y-92720135D01*
X118116317Y-93088777D01*
X118231828Y-93441664D01*
X118413966Y-93765237D01*
X118440054Y-93795647D01*
X118311579Y-93821202D01*
X118041162Y-93933212D01*
X117797794Y-94095826D01*
X117590826Y-94302794D01*
X117428212Y-94546162D01*
X117316202Y-94816579D01*
X117259100Y-95103652D01*
X117259100Y-95396348D01*
X117316202Y-95683421D01*
X117428212Y-95953838D01*
X117590826Y-96197206D01*
X117797794Y-96404174D01*
X118041162Y-96566788D01*
X118311579Y-96678798D01*
X118598652Y-96735900D01*
X118891348Y-96735900D01*
X119178421Y-96678798D01*
X119448838Y-96566788D01*
X119692206Y-96404174D01*
X119890000Y-96206380D01*
X119890000Y-97752677D01*
X119886324Y-97790000D01*
X119890000Y-97827322D01*
X119890000Y-97827332D01*
X119900997Y-97938985D01*
X119944454Y-98082246D01*
X120015026Y-98214276D01*
X120054871Y-98262826D01*
X120109999Y-98330001D01*
X120139003Y-98353804D01*
X120359627Y-98574428D01*
X119125000Y-98574428D01*
X119000518Y-98586688D01*
X118880820Y-98622998D01*
X118770506Y-98681963D01*
X118673815Y-98761315D01*
X118594463Y-98858006D01*
X118535498Y-98968320D01*
X118499188Y-99088018D01*
X118486928Y-99212500D01*
X118486928Y-100148270D01*
X117795199Y-100840000D01*
X110016983Y-100840000D01*
X110054853Y-100748574D01*
X110110000Y-100471335D01*
X110110000Y-100188665D01*
X110054853Y-99911426D01*
X109946680Y-99650273D01*
X109789637Y-99415241D01*
X109589759Y-99215363D01*
X109354727Y-99058320D01*
X109093574Y-98950147D01*
X108816335Y-98895000D01*
X108533665Y-98895000D01*
X108256426Y-98950147D01*
X107995273Y-99058320D01*
X107760241Y-99215363D01*
X107560363Y-99415241D01*
X107403320Y-99650273D01*
X107295147Y-99911426D01*
X107240000Y-100188665D01*
X107240000Y-100471335D01*
X107295147Y-100748574D01*
X107333017Y-100840000D01*
X102313072Y-100840000D01*
X102313072Y-99530000D01*
X102300812Y-99405518D01*
X102264502Y-99285820D01*
X102205537Y-99175506D01*
X102126185Y-99078815D01*
X102029494Y-98999463D01*
X101919180Y-98940498D01*
X101799482Y-98904188D01*
X101675000Y-98891928D01*
X100075000Y-98891928D01*
X99950518Y-98904188D01*
X99830820Y-98940498D01*
X99720506Y-98999463D01*
X99623815Y-99078815D01*
X99544463Y-99175506D01*
X99485498Y-99285820D01*
X99449188Y-99405518D01*
X99436928Y-99530000D01*
X99436928Y-100693271D01*
X99290199Y-100840000D01*
X90797941Y-100840000D01*
X90896680Y-100692227D01*
X91004853Y-100431074D01*
X91060000Y-100153835D01*
X91060000Y-99871165D01*
X91004853Y-99593926D01*
X90896680Y-99332773D01*
X90739637Y-99097741D01*
X90539759Y-98897863D01*
X90304727Y-98740820D01*
X90043574Y-98632647D01*
X89766335Y-98577500D01*
X89483665Y-98577500D01*
X89206426Y-98632647D01*
X88945273Y-98740820D01*
X88710241Y-98897863D01*
X88510363Y-99097741D01*
X88353320Y-99332773D01*
X88245147Y-99593926D01*
X88190000Y-99871165D01*
X88190000Y-100153835D01*
X88245147Y-100431074D01*
X88353320Y-100692227D01*
X88452059Y-100840000D01*
X83260364Y-100840000D01*
X83263072Y-100812500D01*
X83263072Y-99212500D01*
X83250812Y-99088018D01*
X83214502Y-98968320D01*
X83155537Y-98858006D01*
X83076185Y-98761315D01*
X82979494Y-98681963D01*
X82869180Y-98622998D01*
X82749482Y-98586688D01*
X82625000Y-98574428D01*
X81025000Y-98574428D01*
X80900518Y-98586688D01*
X80780820Y-98622998D01*
X80670506Y-98681963D01*
X80573815Y-98761315D01*
X80494463Y-98858006D01*
X80435498Y-98968320D01*
X80399188Y-99088018D01*
X80386928Y-99212500D01*
X69240000Y-99212500D01*
X69240000Y-95103652D01*
X79159100Y-95103652D01*
X79159100Y-95396348D01*
X79216202Y-95683421D01*
X79328212Y-95953838D01*
X79490826Y-96197206D01*
X79697794Y-96404174D01*
X79941162Y-96566788D01*
X80211579Y-96678798D01*
X80498652Y-96735900D01*
X80791348Y-96735900D01*
X81078421Y-96678798D01*
X81348838Y-96566788D01*
X81592206Y-96404174D01*
X81799174Y-96197206D01*
X81961788Y-95953838D01*
X82073798Y-95683421D01*
X82130900Y-95396348D01*
X82130900Y-95103652D01*
X82108508Y-94991076D01*
X83096100Y-94991076D01*
X83096100Y-95508924D01*
X83197127Y-96016822D01*
X83395299Y-96495251D01*
X83683000Y-96925826D01*
X84049174Y-97292000D01*
X84479749Y-97579701D01*
X84958178Y-97777873D01*
X85466076Y-97878900D01*
X85983924Y-97878900D01*
X86491822Y-97777873D01*
X86970251Y-97579701D01*
X87400826Y-97292000D01*
X87767000Y-96925826D01*
X88054701Y-96495251D01*
X88252873Y-96016822D01*
X88353900Y-95508924D01*
X88353900Y-95103652D01*
X89319100Y-95103652D01*
X89319100Y-95396348D01*
X89376202Y-95683421D01*
X89488212Y-95953838D01*
X89650826Y-96197206D01*
X89857794Y-96404174D01*
X90101162Y-96566788D01*
X90371579Y-96678798D01*
X90658652Y-96735900D01*
X90951348Y-96735900D01*
X91238421Y-96678798D01*
X91508838Y-96566788D01*
X91752206Y-96404174D01*
X91959174Y-96197206D01*
X92121788Y-95953838D01*
X92233798Y-95683421D01*
X92290900Y-95396348D01*
X92290900Y-95103652D01*
X98209100Y-95103652D01*
X98209100Y-95396348D01*
X98266202Y-95683421D01*
X98378212Y-95953838D01*
X98540826Y-96197206D01*
X98747794Y-96404174D01*
X98991162Y-96566788D01*
X99261579Y-96678798D01*
X99548652Y-96735900D01*
X99841348Y-96735900D01*
X100128421Y-96678798D01*
X100398838Y-96566788D01*
X100642206Y-96404174D01*
X100849174Y-96197206D01*
X101011788Y-95953838D01*
X101123798Y-95683421D01*
X101180900Y-95396348D01*
X101180900Y-95103652D01*
X101158508Y-94991076D01*
X102146100Y-94991076D01*
X102146100Y-95508924D01*
X102247127Y-96016822D01*
X102445299Y-96495251D01*
X102733000Y-96925826D01*
X103099174Y-97292000D01*
X103529749Y-97579701D01*
X104008178Y-97777873D01*
X104516076Y-97878900D01*
X105033924Y-97878900D01*
X105541822Y-97777873D01*
X106020251Y-97579701D01*
X106450826Y-97292000D01*
X106817000Y-96925826D01*
X107104701Y-96495251D01*
X107302873Y-96016822D01*
X107403900Y-95508924D01*
X107403900Y-95103652D01*
X108369100Y-95103652D01*
X108369100Y-95396348D01*
X108426202Y-95683421D01*
X108538212Y-95953838D01*
X108700826Y-96197206D01*
X108907794Y-96404174D01*
X109151162Y-96566788D01*
X109421579Y-96678798D01*
X109708652Y-96735900D01*
X110001348Y-96735900D01*
X110288421Y-96678798D01*
X110558838Y-96566788D01*
X110802206Y-96404174D01*
X111009174Y-96197206D01*
X111171788Y-95953838D01*
X111283798Y-95683421D01*
X111340900Y-95396348D01*
X111340900Y-95103652D01*
X111283798Y-94816579D01*
X111171788Y-94546162D01*
X111009174Y-94302794D01*
X110802206Y-94095826D01*
X110558838Y-93933212D01*
X110288421Y-93821202D01*
X110001348Y-93764100D01*
X109708652Y-93764100D01*
X109421579Y-93821202D01*
X109151162Y-93933212D01*
X108907794Y-94095826D01*
X108700826Y-94302794D01*
X108538212Y-94546162D01*
X108426202Y-94816579D01*
X108369100Y-95103652D01*
X107403900Y-95103652D01*
X107403900Y-94991076D01*
X107302873Y-94483178D01*
X107104701Y-94004749D01*
X106817000Y-93574174D01*
X106450826Y-93208000D01*
X106020251Y-92920299D01*
X105541822Y-92722127D01*
X105033924Y-92621100D01*
X104516076Y-92621100D01*
X104008178Y-92722127D01*
X103529749Y-92920299D01*
X103099174Y-93208000D01*
X102733000Y-93574174D01*
X102445299Y-94004749D01*
X102247127Y-94483178D01*
X102146100Y-94991076D01*
X101158508Y-94991076D01*
X101123798Y-94816579D01*
X101019559Y-94564924D01*
X101325500Y-94528036D01*
X101678387Y-94412525D01*
X102001960Y-94230387D01*
X102283782Y-93988623D01*
X102455578Y-93769720D01*
X103764006Y-91715900D01*
X103889796Y-91467688D01*
X103989805Y-91110097D01*
X104018131Y-90739866D01*
X104014953Y-90713505D01*
X105388344Y-90713505D01*
X105396721Y-90991645D01*
X105480090Y-91353477D01*
X105632448Y-91692092D01*
X105847939Y-91994477D01*
X106118281Y-92249011D01*
X106433087Y-92445915D01*
X106780257Y-92577618D01*
X107146450Y-92639061D01*
X107517593Y-92627883D01*
X107879425Y-92544514D01*
X108218040Y-92392156D01*
X108520425Y-92176665D01*
X108774959Y-91906323D01*
X108971863Y-91591517D01*
X109103566Y-91244347D01*
X109149613Y-90969916D01*
X109201656Y-90206496D01*
X109193279Y-89928355D01*
X109109910Y-89566523D01*
X108957552Y-89227908D01*
X108742061Y-88925523D01*
X108471719Y-88670989D01*
X108156913Y-88474086D01*
X107809743Y-88342382D01*
X107443550Y-88280939D01*
X107072407Y-88292117D01*
X106710575Y-88375486D01*
X106371960Y-88527844D01*
X106069575Y-88743335D01*
X105815041Y-89013677D01*
X105618137Y-89328483D01*
X105486434Y-89675653D01*
X105440387Y-89950084D01*
X105388344Y-90713505D01*
X104014953Y-90713505D01*
X103973683Y-90371223D01*
X103858171Y-90018336D01*
X103676034Y-89694763D01*
X103434270Y-89412942D01*
X103142171Y-89183701D01*
X102810963Y-89015851D01*
X102453373Y-88915842D01*
X102083141Y-88887517D01*
X101714499Y-88931964D01*
X101361611Y-89047476D01*
X101038039Y-89229613D01*
X100756218Y-89471377D01*
X100584422Y-89690280D01*
X99275993Y-91744101D01*
X99150204Y-91992314D01*
X99050194Y-92349904D01*
X99021869Y-92720135D01*
X99066317Y-93088777D01*
X99181828Y-93441664D01*
X99363966Y-93765237D01*
X99390054Y-93795647D01*
X99261579Y-93821202D01*
X98991162Y-93933212D01*
X98747794Y-94095826D01*
X98540826Y-94302794D01*
X98378212Y-94546162D01*
X98266202Y-94816579D01*
X98209100Y-95103652D01*
X92290900Y-95103652D01*
X92233798Y-94816579D01*
X92121788Y-94546162D01*
X91959174Y-94302794D01*
X91752206Y-94095826D01*
X91508838Y-93933212D01*
X91238421Y-93821202D01*
X90951348Y-93764100D01*
X90658652Y-93764100D01*
X90371579Y-93821202D01*
X90101162Y-93933212D01*
X89857794Y-94095826D01*
X89650826Y-94302794D01*
X89488212Y-94546162D01*
X89376202Y-94816579D01*
X89319100Y-95103652D01*
X88353900Y-95103652D01*
X88353900Y-94991076D01*
X88252873Y-94483178D01*
X88054701Y-94004749D01*
X87767000Y-93574174D01*
X87400826Y-93208000D01*
X86970251Y-92920299D01*
X86491822Y-92722127D01*
X85983924Y-92621100D01*
X85466076Y-92621100D01*
X84958178Y-92722127D01*
X84479749Y-92920299D01*
X84049174Y-93208000D01*
X83683000Y-93574174D01*
X83395299Y-94004749D01*
X83197127Y-94483178D01*
X83096100Y-94991076D01*
X82108508Y-94991076D01*
X82073798Y-94816579D01*
X81969559Y-94564924D01*
X82275500Y-94528036D01*
X82628387Y-94412525D01*
X82951960Y-94230387D01*
X83233782Y-93988623D01*
X83405578Y-93769720D01*
X84714006Y-91715900D01*
X84839796Y-91467688D01*
X84939805Y-91110097D01*
X84968131Y-90739866D01*
X84964953Y-90713505D01*
X86338344Y-90713505D01*
X86346721Y-90991645D01*
X86430090Y-91353477D01*
X86582448Y-91692092D01*
X86797939Y-91994477D01*
X87068281Y-92249011D01*
X87383087Y-92445915D01*
X87730257Y-92577618D01*
X88096450Y-92639061D01*
X88467593Y-92627883D01*
X88829425Y-92544514D01*
X89168040Y-92392156D01*
X89470425Y-92176665D01*
X89724959Y-91906323D01*
X89921863Y-91591517D01*
X90053566Y-91244347D01*
X90099613Y-90969916D01*
X90151656Y-90206496D01*
X90143279Y-89928355D01*
X90059910Y-89566523D01*
X89907552Y-89227908D01*
X89692061Y-88925523D01*
X89421719Y-88670989D01*
X89106913Y-88474086D01*
X88759743Y-88342382D01*
X88393550Y-88280939D01*
X88022407Y-88292117D01*
X87660575Y-88375486D01*
X87321960Y-88527844D01*
X87019575Y-88743335D01*
X86765041Y-89013677D01*
X86568137Y-89328483D01*
X86436434Y-89675653D01*
X86390387Y-89950084D01*
X86338344Y-90713505D01*
X84964953Y-90713505D01*
X84923683Y-90371223D01*
X84808171Y-90018336D01*
X84626034Y-89694763D01*
X84384270Y-89412942D01*
X84092171Y-89183701D01*
X83760963Y-89015851D01*
X83403373Y-88915842D01*
X83033141Y-88887517D01*
X82664499Y-88931964D01*
X82311611Y-89047476D01*
X81988039Y-89229613D01*
X81706218Y-89471377D01*
X81534422Y-89690280D01*
X80225993Y-91744101D01*
X80100204Y-91992314D01*
X80000194Y-92349904D01*
X79971869Y-92720135D01*
X80016317Y-93088777D01*
X80131828Y-93441664D01*
X80313966Y-93765237D01*
X80340054Y-93795647D01*
X80211579Y-93821202D01*
X79941162Y-93933212D01*
X79697794Y-94095826D01*
X79490826Y-94302794D01*
X79328212Y-94546162D01*
X79216202Y-94816579D01*
X79159100Y-95103652D01*
X69240000Y-95103652D01*
X69240000Y-85416229D01*
X69890000Y-85416229D01*
X69890000Y-86033771D01*
X70010476Y-86639446D01*
X70246799Y-87209979D01*
X70589886Y-87723446D01*
X71026554Y-88160114D01*
X71540021Y-88503201D01*
X72110554Y-88739524D01*
X72716229Y-88860000D01*
X73333771Y-88860000D01*
X73939446Y-88739524D01*
X74509979Y-88503201D01*
X75023446Y-88160114D01*
X75460114Y-87723446D01*
X75803201Y-87209979D01*
X76039524Y-86639446D01*
X76160000Y-86033771D01*
X76160000Y-85416229D01*
X76097696Y-85103000D01*
X105990000Y-85103000D01*
X105990000Y-86353000D01*
X106041389Y-86620760D01*
X106144028Y-86873349D01*
X106293972Y-87101061D01*
X106485460Y-87295145D01*
X106711132Y-87448142D01*
X106962316Y-87554173D01*
X107033815Y-87568318D01*
X107248000Y-87445656D01*
X107248000Y-85103000D01*
X107502000Y-85103000D01*
X107502000Y-87445656D01*
X107716185Y-87568318D01*
X107787684Y-87554173D01*
X108038868Y-87448142D01*
X108264540Y-87295145D01*
X108456028Y-87101061D01*
X108605972Y-86873349D01*
X108708611Y-86620760D01*
X108760000Y-86353000D01*
X108760000Y-85103000D01*
X113290000Y-85103000D01*
X113290000Y-86353000D01*
X113341389Y-86620760D01*
X113444028Y-86873349D01*
X113593972Y-87101061D01*
X113785460Y-87295145D01*
X114011132Y-87448142D01*
X114262316Y-87554173D01*
X114333815Y-87568318D01*
X114548000Y-87445656D01*
X114548000Y-85103000D01*
X114802000Y-85103000D01*
X114802000Y-87445656D01*
X115016185Y-87568318D01*
X115087684Y-87554173D01*
X115338868Y-87448142D01*
X115564540Y-87295145D01*
X115756028Y-87101061D01*
X115905972Y-86873349D01*
X116008611Y-86620760D01*
X116060000Y-86353000D01*
X116060000Y-85416229D01*
X149900000Y-85416229D01*
X149900000Y-86033771D01*
X150020476Y-86639446D01*
X150256799Y-87209979D01*
X150599886Y-87723446D01*
X151036554Y-88160114D01*
X151550021Y-88503201D01*
X152120554Y-88739524D01*
X152726229Y-88860000D01*
X153343771Y-88860000D01*
X153949446Y-88739524D01*
X154519979Y-88503201D01*
X155033446Y-88160114D01*
X155470114Y-87723446D01*
X155813201Y-87209979D01*
X156049524Y-86639446D01*
X156170000Y-86033771D01*
X156170000Y-85416229D01*
X156049524Y-84810554D01*
X155813201Y-84240021D01*
X155470114Y-83726554D01*
X155033446Y-83289886D01*
X154519979Y-82946799D01*
X153949446Y-82710476D01*
X153343771Y-82590000D01*
X152726229Y-82590000D01*
X152120554Y-82710476D01*
X151550021Y-82946799D01*
X151036554Y-83289886D01*
X150599886Y-83726554D01*
X150256799Y-84240021D01*
X150020476Y-84810554D01*
X149900000Y-85416229D01*
X116060000Y-85416229D01*
X116060000Y-85103000D01*
X114802000Y-85103000D01*
X114548000Y-85103000D01*
X113290000Y-85103000D01*
X108760000Y-85103000D01*
X107502000Y-85103000D01*
X107248000Y-85103000D01*
X105990000Y-85103000D01*
X76097696Y-85103000D01*
X76039524Y-84810554D01*
X75803201Y-84240021D01*
X75460114Y-83726554D01*
X75332560Y-83599000D01*
X105990000Y-83599000D01*
X105990000Y-84849000D01*
X107248000Y-84849000D01*
X107248000Y-82506344D01*
X107502000Y-82506344D01*
X107502000Y-84849000D01*
X108760000Y-84849000D01*
X108760000Y-83599000D01*
X113290000Y-83599000D01*
X113290000Y-84849000D01*
X114548000Y-84849000D01*
X114548000Y-82506344D01*
X114802000Y-82506344D01*
X114802000Y-84849000D01*
X116060000Y-84849000D01*
X116060000Y-83599000D01*
X116008611Y-83331240D01*
X115905972Y-83078651D01*
X115756028Y-82850939D01*
X115564540Y-82656855D01*
X115338868Y-82503858D01*
X115087684Y-82397827D01*
X115016185Y-82383682D01*
X114802000Y-82506344D01*
X114548000Y-82506344D01*
X114333815Y-82383682D01*
X114262316Y-82397827D01*
X114011132Y-82503858D01*
X113785460Y-82656855D01*
X113593972Y-82850939D01*
X113444028Y-83078651D01*
X113341389Y-83331240D01*
X113290000Y-83599000D01*
X108760000Y-83599000D01*
X108708611Y-83331240D01*
X108605972Y-83078651D01*
X108456028Y-82850939D01*
X108264540Y-82656855D01*
X108038868Y-82503858D01*
X107787684Y-82397827D01*
X107716185Y-82383682D01*
X107502000Y-82506344D01*
X107248000Y-82506344D01*
X107033815Y-82383682D01*
X106962316Y-82397827D01*
X106711132Y-82503858D01*
X106485460Y-82656855D01*
X106293972Y-82850939D01*
X106144028Y-83078651D01*
X106041389Y-83331240D01*
X105990000Y-83599000D01*
X75332560Y-83599000D01*
X75023446Y-83289886D01*
X74509979Y-82946799D01*
X73939446Y-82710476D01*
X73333771Y-82590000D01*
X72716229Y-82590000D01*
X72110554Y-82710476D01*
X71540021Y-82946799D01*
X71026554Y-83289886D01*
X70589886Y-83726554D01*
X70246799Y-84240021D01*
X70010476Y-84810554D01*
X69890000Y-85416229D01*
X69240000Y-85416229D01*
X69240000Y-83852279D01*
X69278909Y-83455455D01*
X69384780Y-83104792D01*
X69556744Y-82781375D01*
X69788254Y-82497516D01*
X70070486Y-82264035D01*
X70392695Y-82089817D01*
X70742614Y-81981498D01*
X71137443Y-81940000D01*
X154907721Y-81940000D01*
X155304545Y-81978909D01*
G37*
X155304545Y-81978909D02*
X155655208Y-82084780D01*
X155978625Y-82256744D01*
X156262484Y-82488254D01*
X156495965Y-82770486D01*
X156670183Y-83092695D01*
X156778502Y-83442614D01*
X156820001Y-83837452D01*
X156820000Y-126967721D01*
X156781091Y-127364545D01*
X156675220Y-127715206D01*
X156503257Y-128038623D01*
X156271748Y-128322482D01*
X155989514Y-128555965D01*
X155667304Y-128730184D01*
X155317385Y-128838502D01*
X154922557Y-128880000D01*
X71152279Y-128880000D01*
X70755455Y-128841091D01*
X70404794Y-128735220D01*
X70081377Y-128563257D01*
X69797518Y-128331748D01*
X69564035Y-128049514D01*
X69389816Y-127727304D01*
X69281498Y-127377385D01*
X69240000Y-126982557D01*
X69240000Y-124786229D01*
X69890000Y-124786229D01*
X69890000Y-125403771D01*
X70010476Y-126009446D01*
X70246799Y-126579979D01*
X70589886Y-127093446D01*
X71026554Y-127530114D01*
X71540021Y-127873201D01*
X72110554Y-128109524D01*
X72716229Y-128230000D01*
X73333771Y-128230000D01*
X73939446Y-128109524D01*
X74509979Y-127873201D01*
X75023446Y-127530114D01*
X75460114Y-127093446D01*
X75803201Y-126579979D01*
X76039524Y-126009446D01*
X76160000Y-125403771D01*
X76160000Y-124786229D01*
X149900000Y-124786229D01*
X149900000Y-125403771D01*
X150020476Y-126009446D01*
X150256799Y-126579979D01*
X150599886Y-127093446D01*
X151036554Y-127530114D01*
X151550021Y-127873201D01*
X152120554Y-128109524D01*
X152726229Y-128230000D01*
X153343771Y-128230000D01*
X153949446Y-128109524D01*
X154519979Y-127873201D01*
X155033446Y-127530114D01*
X155470114Y-127093446D01*
X155813201Y-126579979D01*
X156049524Y-126009446D01*
X156170000Y-125403771D01*
X156170000Y-124786229D01*
X156049524Y-124180554D01*
X155813201Y-123610021D01*
X155470114Y-123096554D01*
X155033446Y-122659886D01*
X154519979Y-122316799D01*
X153949446Y-122080476D01*
X153343771Y-121960000D01*
X152726229Y-121960000D01*
X152120554Y-122080476D01*
X151550021Y-122316799D01*
X151036554Y-122659886D01*
X150599886Y-123096554D01*
X150256799Y-123610021D01*
X150020476Y-124180554D01*
X149900000Y-124786229D01*
X76160000Y-124786229D01*
X76039524Y-124180554D01*
X75803201Y-123610021D01*
X75460114Y-123096554D01*
X75023446Y-122659886D01*
X74509979Y-122316799D01*
X73939446Y-122080476D01*
X73333771Y-121960000D01*
X72716229Y-121960000D01*
X72110554Y-122080476D01*
X71540021Y-122316799D01*
X71026554Y-122659886D01*
X70589886Y-123096554D01*
X70246799Y-123610021D01*
X70010476Y-124180554D01*
X69890000Y-124786229D01*
X69240000Y-124786229D01*
X69240000Y-118262500D01*
X80386928Y-118262500D01*
X80386928Y-119862500D01*
X80399188Y-119986982D01*
X80435498Y-120106680D01*
X80494463Y-120216994D01*
X80573815Y-120313685D01*
X80670506Y-120393037D01*
X80780820Y-120452002D01*
X80900518Y-120488312D01*
X81025000Y-120500572D01*
X82625000Y-120500572D01*
X82749482Y-120488312D01*
X82869180Y-120452002D01*
X82979494Y-120393037D01*
X83076185Y-120313685D01*
X83155537Y-120216994D01*
X83214502Y-120106680D01*
X83250812Y-119986982D01*
X83263072Y-119862500D01*
X83263072Y-118921165D01*
X88190000Y-118921165D01*
X88190000Y-119203835D01*
X88245147Y-119481074D01*
X88353320Y-119742227D01*
X88510363Y-119977259D01*
X88710241Y-120177137D01*
X88945273Y-120334180D01*
X89206426Y-120442353D01*
X89483665Y-120497500D01*
X89766335Y-120497500D01*
X90043574Y-120442353D01*
X90304727Y-120334180D01*
X90539759Y-120177137D01*
X90739637Y-119977259D01*
X90896680Y-119742227D01*
X91004853Y-119481074D01*
X91060000Y-119203835D01*
X91060000Y-118921165D01*
X91004853Y-118643926D01*
X90896680Y-118382773D01*
X90739637Y-118147741D01*
X90539759Y-117947863D01*
X90304727Y-117790820D01*
X90043574Y-117682647D01*
X89766335Y-117627500D01*
X89483665Y-117627500D01*
X89206426Y-117682647D01*
X88945273Y-117790820D01*
X88710241Y-117947863D01*
X88510363Y-118147741D01*
X88353320Y-118382773D01*
X88245147Y-118643926D01*
X88190000Y-118921165D01*
X83263072Y-118921165D01*
X83263072Y-118262500D01*
X83250812Y-118138018D01*
X83214502Y-118018320D01*
X83155537Y-117908006D01*
X83076185Y-117811315D01*
X82979494Y-117731963D01*
X82869180Y-117672998D01*
X82749482Y-117636688D01*
X82625000Y-117624428D01*
X81025000Y-117624428D01*
X80900518Y-117636688D01*
X80780820Y-117672998D01*
X80670506Y-117731963D01*
X80573815Y-117811315D01*
X80494463Y-117908006D01*
X80435498Y-118018320D01*
X80399188Y-118138018D01*
X80386928Y-118262500D01*
X69240000Y-118262500D01*
X69240000Y-114153652D01*
X79159100Y-114153652D01*
X79159100Y-114446348D01*
X79216202Y-114733421D01*
X79328212Y-115003838D01*
X79490826Y-115247206D01*
X79697794Y-115454174D01*
X79941162Y-115616788D01*
X80211579Y-115728798D01*
X80498652Y-115785900D01*
X80791348Y-115785900D01*
X81078421Y-115728798D01*
X81348838Y-115616788D01*
X81592206Y-115454174D01*
X81799174Y-115247206D01*
X81961788Y-115003838D01*
X82073798Y-114733421D01*
X82130900Y-114446348D01*
X82130900Y-114153652D01*
X82108508Y-114041076D01*
X83096100Y-114041076D01*
X83096100Y-114558924D01*
X83197127Y-115066822D01*
X83395299Y-115545251D01*
X83683000Y-115975826D01*
X84049174Y-116342000D01*
X84479749Y-116629701D01*
X84958178Y-116827873D01*
X85466076Y-116928900D01*
X85983924Y-116928900D01*
X86491822Y-116827873D01*
X86970251Y-116629701D01*
X87400826Y-116342000D01*
X87767000Y-115975826D01*
X88054701Y-115545251D01*
X88252873Y-115066822D01*
X88353900Y-114558924D01*
X88353900Y-114153652D01*
X89319100Y-114153652D01*
X89319100Y-114446348D01*
X89376202Y-114733421D01*
X89488212Y-115003838D01*
X89650826Y-115247206D01*
X89857794Y-115454174D01*
X90101162Y-115616788D01*
X90371579Y-115728798D01*
X90658652Y-115785900D01*
X90951348Y-115785900D01*
X91238421Y-115728798D01*
X91508838Y-115616788D01*
X91752206Y-115454174D01*
X91959174Y-115247206D01*
X92121788Y-115003838D01*
X92233798Y-114733421D01*
X92290900Y-114446348D01*
X92290900Y-114153652D01*
X92233798Y-113866579D01*
X92121788Y-113596162D01*
X91959174Y-113352794D01*
X91752206Y-113145826D01*
X91508838Y-112983212D01*
X91238421Y-112871202D01*
X90951348Y-112814100D01*
X90658652Y-112814100D01*
X90371579Y-112871202D01*
X90101162Y-112983212D01*
X89857794Y-113145826D01*
X89650826Y-113352794D01*
X89488212Y-113596162D01*
X89376202Y-113866579D01*
X89319100Y-114153652D01*
X88353900Y-114153652D01*
X88353900Y-114041076D01*
X88252873Y-113533178D01*
X88054701Y-113054749D01*
X87767000Y-112624174D01*
X87400826Y-112258000D01*
X86970251Y-111970299D01*
X86491822Y-111772127D01*
X85983924Y-111671100D01*
X85466076Y-111671100D01*
X84958178Y-111772127D01*
X84479749Y-111970299D01*
X84049174Y-112258000D01*
X83683000Y-112624174D01*
X83395299Y-113054749D01*
X83197127Y-113533178D01*
X83096100Y-114041076D01*
X82108508Y-114041076D01*
X82073798Y-113866579D01*
X81969559Y-113614924D01*
X82275500Y-113578036D01*
X82628387Y-113462525D01*
X82951960Y-113280387D01*
X83233782Y-113038623D01*
X83405578Y-112819720D01*
X84714006Y-110765900D01*
X84839796Y-110517688D01*
X84939805Y-110160097D01*
X84968131Y-109789866D01*
X84964953Y-109763505D01*
X86338344Y-109763505D01*
X86346721Y-110041645D01*
X86430090Y-110403477D01*
X86582448Y-110742092D01*
X86797939Y-111044477D01*
X87068281Y-111299011D01*
X87383087Y-111495915D01*
X87730257Y-111627618D01*
X88096450Y-111689061D01*
X88467593Y-111677883D01*
X88829425Y-111594514D01*
X89168040Y-111442156D01*
X89470425Y-111226665D01*
X89724959Y-110956323D01*
X89921863Y-110641517D01*
X90053566Y-110294347D01*
X90099613Y-110019916D01*
X90151656Y-109256496D01*
X90143279Y-108978355D01*
X90059910Y-108616523D01*
X89907552Y-108277908D01*
X89692061Y-107975523D01*
X89421719Y-107720989D01*
X89106913Y-107524086D01*
X88759743Y-107392382D01*
X88393550Y-107330939D01*
X88022407Y-107342117D01*
X87660575Y-107425486D01*
X87321960Y-107577844D01*
X87019575Y-107793335D01*
X86765041Y-108063677D01*
X86568137Y-108378483D01*
X86436434Y-108725653D01*
X86390387Y-109000084D01*
X86338344Y-109763505D01*
X84964953Y-109763505D01*
X84923683Y-109421223D01*
X84808171Y-109068336D01*
X84626034Y-108744763D01*
X84384270Y-108462942D01*
X84092171Y-108233701D01*
X83760963Y-108065851D01*
X83403373Y-107965842D01*
X83033141Y-107937517D01*
X82664499Y-107981964D01*
X82311611Y-108097476D01*
X81988039Y-108279613D01*
X81706218Y-108521377D01*
X81534422Y-108740280D01*
X80225993Y-110794101D01*
X80100204Y-111042314D01*
X80000194Y-111399904D01*
X79971869Y-111770135D01*
X80016317Y-112138777D01*
X80131828Y-112491664D01*
X80313966Y-112815237D01*
X80340054Y-112845647D01*
X80211579Y-112871202D01*
X79941162Y-112983212D01*
X79697794Y-113145826D01*
X79490826Y-113352794D01*
X79328212Y-113596162D01*
X79216202Y-113866579D01*
X79159100Y-114153652D01*
X69240000Y-114153652D01*
X69240000Y-99212500D01*
X80386928Y-99212500D01*
X80386928Y-100812500D01*
X80399188Y-100936982D01*
X80435498Y-101056680D01*
X80494463Y-101166994D01*
X80573815Y-101263685D01*
X80670506Y-101343037D01*
X80780820Y-101402002D01*
X80900518Y-101438312D01*
X81025000Y-101450572D01*
X81325771Y-101450572D01*
X81986201Y-102111002D01*
X82009999Y-102140001D01*
X82125724Y-102234974D01*
X82257753Y-102305546D01*
X82401014Y-102349003D01*
X82512667Y-102360000D01*
X82512677Y-102360000D01*
X82550000Y-102363676D01*
X82587323Y-102360000D01*
X99567678Y-102360000D01*
X99605000Y-102363676D01*
X99642322Y-102360000D01*
X99642333Y-102360000D01*
X99753986Y-102349003D01*
X99897247Y-102305546D01*
X100029276Y-102234974D01*
X100145001Y-102140001D01*
X100168804Y-102110997D01*
X100511729Y-101768072D01*
X100693271Y-101768072D01*
X101036201Y-102111002D01*
X101059999Y-102140001D01*
X101175724Y-102234974D01*
X101307753Y-102305546D01*
X101451014Y-102349003D01*
X101562667Y-102360000D01*
X101562677Y-102360000D01*
X101600000Y-102363676D01*
X101637323Y-102360000D01*
X118072678Y-102360000D01*
X118110000Y-102363676D01*
X118147322Y-102360000D01*
X118147333Y-102360000D01*
X118258986Y-102349003D01*
X118402247Y-102305546D01*
X118534276Y-102234974D01*
X118650001Y-102140001D01*
X118673804Y-102110997D01*
X119334229Y-101450572D01*
X120725000Y-101450572D01*
X120849482Y-101438312D01*
X120969180Y-101402002D01*
X121079494Y-101343037D01*
X121176185Y-101263685D01*
X121255537Y-101166994D01*
X121314502Y-101056680D01*
X121350812Y-100936982D01*
X121363072Y-100812500D01*
X121363072Y-99577874D01*
X122430001Y-100644804D01*
X122430000Y-107652210D01*
X121987626Y-108130042D01*
X121860963Y-108065851D01*
X121503373Y-107965842D01*
X121133141Y-107937517D01*
X120764499Y-107981964D01*
X120411611Y-108097476D01*
X120088039Y-108279613D01*
X119806218Y-108521377D01*
X119634422Y-108740280D01*
X118819150Y-110020000D01*
X118365325Y-110020000D01*
X118328000Y-110016324D01*
X118290675Y-110020000D01*
X118290667Y-110020000D01*
X118179014Y-110030997D01*
X118035753Y-110074454D01*
X117903724Y-110145026D01*
X117787999Y-110239999D01*
X117764201Y-110268997D01*
X116329003Y-111704196D01*
X116299999Y-111727999D01*
X116244871Y-111795174D01*
X116205026Y-111843724D01*
X116183499Y-111883998D01*
X116134454Y-111975754D01*
X116090997Y-112119015D01*
X116080000Y-112230668D01*
X116080000Y-112230678D01*
X116076324Y-112268000D01*
X116080000Y-112305322D01*
X116080001Y-119850668D01*
X116076324Y-119888000D01*
X116080001Y-119925333D01*
X116090998Y-120036986D01*
X116097896Y-120059727D01*
X116134454Y-120180246D01*
X116205026Y-120312276D01*
X116271306Y-120393037D01*
X116300000Y-120428001D01*
X116328998Y-120451799D01*
X117800205Y-121923008D01*
X117823999Y-121952001D01*
X117852992Y-121975795D01*
X117852996Y-121975799D01*
X117888655Y-122005063D01*
X117939724Y-122046974D01*
X117943514Y-122049000D01*
X100898802Y-122049000D01*
X98550000Y-119700199D01*
X98550000Y-118262500D01*
X99436928Y-118262500D01*
X99436928Y-119862500D01*
X99449188Y-119986982D01*
X99485498Y-120106680D01*
X99544463Y-120216994D01*
X99623815Y-120313685D01*
X99720506Y-120393037D01*
X99830820Y-120452002D01*
X99950518Y-120488312D01*
X100075000Y-120500572D01*
X101675000Y-120500572D01*
X101799482Y-120488312D01*
X101919180Y-120452002D01*
X102029494Y-120393037D01*
X102126185Y-120313685D01*
X102205537Y-120216994D01*
X102264502Y-120106680D01*
X102300812Y-119986982D01*
X102313072Y-119862500D01*
X102313072Y-118921165D01*
X107240000Y-118921165D01*
X107240000Y-119203835D01*
X107295147Y-119481074D01*
X107403320Y-119742227D01*
X107560363Y-119977259D01*
X107760241Y-120177137D01*
X107995273Y-120334180D01*
X108256426Y-120442353D01*
X108533665Y-120497500D01*
X108816335Y-120497500D01*
X109093574Y-120442353D01*
X109354727Y-120334180D01*
X109589759Y-120177137D01*
X109789637Y-119977259D01*
X109946680Y-119742227D01*
X110054853Y-119481074D01*
X110110000Y-119203835D01*
X110110000Y-118921165D01*
X110054853Y-118643926D01*
X109946680Y-118382773D01*
X109789637Y-118147741D01*
X109589759Y-117947863D01*
X109354727Y-117790820D01*
X109093574Y-117682647D01*
X108816335Y-117627500D01*
X108533665Y-117627500D01*
X108256426Y-117682647D01*
X107995273Y-117790820D01*
X107760241Y-117947863D01*
X107560363Y-118147741D01*
X107403320Y-118382773D01*
X107295147Y-118643926D01*
X107240000Y-118921165D01*
X102313072Y-118921165D01*
X102313072Y-118262500D01*
X102300812Y-118138018D01*
X102264502Y-118018320D01*
X102205537Y-117908006D01*
X102126185Y-117811315D01*
X102029494Y-117731963D01*
X101919180Y-117672998D01*
X101799482Y-117636688D01*
X101675000Y-117624428D01*
X100075000Y-117624428D01*
X99950518Y-117636688D01*
X99830820Y-117672998D01*
X99720506Y-117731963D01*
X99623815Y-117811315D01*
X99544463Y-117908006D01*
X99485498Y-118018320D01*
X99449188Y-118138018D01*
X99436928Y-118262500D01*
X98550000Y-118262500D01*
X98550000Y-115256380D01*
X98747794Y-115454174D01*
X98991162Y-115616788D01*
X99261579Y-115728798D01*
X99548652Y-115785900D01*
X99841348Y-115785900D01*
X100128421Y-115728798D01*
X100398838Y-115616788D01*
X100642206Y-115454174D01*
X100849174Y-115247206D01*
X101011788Y-115003838D01*
X101123798Y-114733421D01*
X101180900Y-114446348D01*
X101180900Y-114153652D01*
X101158508Y-114041076D01*
X102146100Y-114041076D01*
X102146100Y-114558924D01*
X102247127Y-115066822D01*
X102445299Y-115545251D01*
X102733000Y-115975826D01*
X103099174Y-116342000D01*
X103529749Y-116629701D01*
X104008178Y-116827873D01*
X104516076Y-116928900D01*
X105033924Y-116928900D01*
X105541822Y-116827873D01*
X106020251Y-116629701D01*
X106450826Y-116342000D01*
X106817000Y-115975826D01*
X107104701Y-115545251D01*
X107302873Y-115066822D01*
X107403900Y-114558924D01*
X107403900Y-114153652D01*
X108369100Y-114153652D01*
X108369100Y-114446348D01*
X108426202Y-114733421D01*
X108538212Y-115003838D01*
X108700826Y-115247206D01*
X108907794Y-115454174D01*
X109151162Y-115616788D01*
X109421579Y-115728798D01*
X109708652Y-115785900D01*
X110001348Y-115785900D01*
X110288421Y-115728798D01*
X110558838Y-115616788D01*
X110802206Y-115454174D01*
X111009174Y-115247206D01*
X111171788Y-115003838D01*
X111283798Y-114733421D01*
X111340900Y-114446348D01*
X111340900Y-114153652D01*
X111283798Y-113866579D01*
X111171788Y-113596162D01*
X111009174Y-113352794D01*
X110802206Y-113145826D01*
X110558838Y-112983212D01*
X110288421Y-112871202D01*
X110001348Y-112814100D01*
X109708652Y-112814100D01*
X109421579Y-112871202D01*
X109151162Y-112983212D01*
X108907794Y-113145826D01*
X108700826Y-113352794D01*
X108538212Y-113596162D01*
X108426202Y-113866579D01*
X108369100Y-114153652D01*
X107403900Y-114153652D01*
X107403900Y-114041076D01*
X107302873Y-113533178D01*
X107104701Y-113054749D01*
X106817000Y-112624174D01*
X106450826Y-112258000D01*
X106020251Y-111970299D01*
X105541822Y-111772127D01*
X105033924Y-111671100D01*
X104516076Y-111671100D01*
X104008178Y-111772127D01*
X103529749Y-111970299D01*
X103099174Y-112258000D01*
X102733000Y-112624174D01*
X102445299Y-113054749D01*
X102247127Y-113533178D01*
X102146100Y-114041076D01*
X101158508Y-114041076D01*
X101123798Y-113866579D01*
X101019559Y-113614924D01*
X101325500Y-113578036D01*
X101678387Y-113462525D01*
X102001960Y-113280387D01*
X102283782Y-113038623D01*
X102455578Y-112819720D01*
X103764006Y-110765900D01*
X103889796Y-110517688D01*
X103989805Y-110160097D01*
X104018131Y-109789866D01*
X104014953Y-109763505D01*
X105388344Y-109763505D01*
X105396721Y-110041645D01*
X105480090Y-110403477D01*
X105632448Y-110742092D01*
X105847939Y-111044477D01*
X106118281Y-111299011D01*
X106433087Y-111495915D01*
X106780257Y-111627618D01*
X107146450Y-111689061D01*
X107517593Y-111677883D01*
X107879425Y-111594514D01*
X108218040Y-111442156D01*
X108520425Y-111226665D01*
X108774959Y-110956323D01*
X108971863Y-110641517D01*
X109103566Y-110294347D01*
X109149613Y-110019916D01*
X109201656Y-109256496D01*
X109193279Y-108978355D01*
X109109910Y-108616523D01*
X108957552Y-108277908D01*
X108742061Y-107975523D01*
X108471719Y-107720989D01*
X108156913Y-107524086D01*
X107809743Y-107392382D01*
X107443550Y-107330939D01*
X107072407Y-107342117D01*
X106710575Y-107425486D01*
X106371960Y-107577844D01*
X106069575Y-107793335D01*
X105815041Y-108063677D01*
X105618137Y-108378483D01*
X105486434Y-108725653D01*
X105440387Y-109000084D01*
X105388344Y-109763505D01*
X104014953Y-109763505D01*
X103973683Y-109421223D01*
X103858171Y-109068336D01*
X103676034Y-108744763D01*
X103434270Y-108462942D01*
X103142171Y-108233701D01*
X102810963Y-108065851D01*
X102453373Y-107965842D01*
X102083141Y-107937517D01*
X101714499Y-107981964D01*
X101361611Y-108097476D01*
X101038039Y-108279613D01*
X100756218Y-108521377D01*
X100584422Y-108740280D01*
X99769150Y-110020000D01*
X99442323Y-110020000D01*
X99405000Y-110016324D01*
X99367677Y-110020000D01*
X99367667Y-110020000D01*
X99256014Y-110030997D01*
X99112753Y-110074454D01*
X98980723Y-110145026D01*
X98897083Y-110213668D01*
X98864999Y-110239999D01*
X98841201Y-110268997D01*
X97279003Y-111831196D01*
X97249999Y-111854999D01*
X97194871Y-111922174D01*
X97155026Y-111970724D01*
X97084455Y-112102753D01*
X97084454Y-112102754D01*
X97040997Y-112246015D01*
X97030000Y-112357668D01*
X97030000Y-112357678D01*
X97026324Y-112395000D01*
X97030000Y-112432322D01*
X97030001Y-119977668D01*
X97026324Y-120015000D01*
X97030001Y-120052333D01*
X97040998Y-120163986D01*
X97045931Y-120180247D01*
X97084454Y-120307246D01*
X97155026Y-120439276D01*
X97202810Y-120497500D01*
X97250000Y-120555001D01*
X97278998Y-120578799D01*
X100020201Y-123320003D01*
X100043999Y-123349001D01*
X100159724Y-123443974D01*
X100291753Y-123514546D01*
X100435014Y-123558003D01*
X100546667Y-123569000D01*
X100546675Y-123569000D01*
X100584000Y-123572676D01*
X100621325Y-123569000D01*
X141282289Y-123569000D01*
X141326226Y-123612937D01*
X141495744Y-123726205D01*
X141684102Y-123804226D01*
X141884061Y-123844000D01*
X142087939Y-123844000D01*
X142287898Y-123804226D01*
X142476256Y-123726205D01*
X142645774Y-123612937D01*
X142789937Y-123468774D01*
X142903205Y-123299256D01*
X142981226Y-123110898D01*
X143021000Y-122910939D01*
X143021000Y-122707061D01*
X142981226Y-122507102D01*
X142903205Y-122318744D01*
X142805154Y-122172000D01*
X145758678Y-122172000D01*
X145796000Y-122175676D01*
X145833322Y-122172000D01*
X145833333Y-122172000D01*
X145944986Y-122161003D01*
X146088247Y-122117546D01*
X146220276Y-122046974D01*
X146336001Y-121952001D01*
X146359804Y-121922997D01*
X147105802Y-121177000D01*
X147167939Y-121177000D01*
X147367898Y-121137226D01*
X147556256Y-121059205D01*
X147725774Y-120945937D01*
X147869937Y-120801774D01*
X147983205Y-120632256D01*
X148061226Y-120443898D01*
X148101000Y-120243939D01*
X148101000Y-120040061D01*
X148061226Y-119840102D01*
X147983205Y-119651744D01*
X147869937Y-119482226D01*
X147725774Y-119338063D01*
X147556256Y-119224795D01*
X147367898Y-119146774D01*
X147167939Y-119107000D01*
X146964061Y-119107000D01*
X146764102Y-119146774D01*
X146575744Y-119224795D01*
X146406226Y-119338063D01*
X146262063Y-119482226D01*
X146148795Y-119651744D01*
X146070774Y-119840102D01*
X146031000Y-120040061D01*
X146031000Y-120102198D01*
X145481199Y-120652000D01*
X128403954Y-120652000D01*
X128404727Y-120651680D01*
X128639759Y-120494637D01*
X128839637Y-120294759D01*
X128996680Y-120059727D01*
X129104853Y-119798574D01*
X129160000Y-119521335D01*
X129160000Y-119238665D01*
X129104853Y-118961426D01*
X128996680Y-118700273D01*
X128839637Y-118465241D01*
X128639759Y-118265363D01*
X128404727Y-118108320D01*
X128143574Y-118000147D01*
X127866335Y-117945000D01*
X127583665Y-117945000D01*
X127306426Y-118000147D01*
X127045273Y-118108320D01*
X126810241Y-118265363D01*
X126610363Y-118465241D01*
X126453320Y-118700273D01*
X126345147Y-118961426D01*
X126290000Y-119238665D01*
X126290000Y-119521335D01*
X126345147Y-119798574D01*
X126453320Y-120059727D01*
X126610363Y-120294759D01*
X126810241Y-120494637D01*
X127045273Y-120651680D01*
X127046046Y-120652000D01*
X121150822Y-120652000D01*
X121176185Y-120631185D01*
X121255537Y-120534494D01*
X121314502Y-120424180D01*
X121350812Y-120304482D01*
X121363072Y-120180000D01*
X121363072Y-118580000D01*
X121350812Y-118455518D01*
X121314502Y-118335820D01*
X121255537Y-118225506D01*
X121176185Y-118128815D01*
X121079494Y-118049463D01*
X120969180Y-117990498D01*
X120849482Y-117954188D01*
X120725000Y-117941928D01*
X119125000Y-117941928D01*
X119000518Y-117954188D01*
X118880820Y-117990498D01*
X118770506Y-118049463D01*
X118673815Y-118128815D01*
X118594463Y-118225506D01*
X118535498Y-118335820D01*
X118499188Y-118455518D01*
X118486928Y-118580000D01*
X118486928Y-120180000D01*
X118499188Y-120304482D01*
X118535498Y-120424180D01*
X118594463Y-120534494D01*
X118673815Y-120631185D01*
X118699178Y-120652000D01*
X118678803Y-120652000D01*
X117600000Y-119573199D01*
X117600000Y-115256380D01*
X117797794Y-115454174D01*
X118041162Y-115616788D01*
X118311579Y-115728798D01*
X118598652Y-115785900D01*
X118891348Y-115785900D01*
X119178421Y-115728798D01*
X119448838Y-115616788D01*
X119692206Y-115454174D01*
X119899174Y-115247206D01*
X120061788Y-115003838D01*
X120173798Y-114733421D01*
X120230900Y-114446348D01*
X120230900Y-114153652D01*
X120208508Y-114041076D01*
X121196100Y-114041076D01*
X121196100Y-114558924D01*
X121297127Y-115066822D01*
X121495299Y-115545251D01*
X121783000Y-115975826D01*
X122149174Y-116342000D01*
X122579749Y-116629701D01*
X123058178Y-116827873D01*
X123566076Y-116928900D01*
X124083924Y-116928900D01*
X124591822Y-116827873D01*
X125070251Y-116629701D01*
X125500826Y-116342000D01*
X125867000Y-115975826D01*
X126154701Y-115545251D01*
X126352873Y-115066822D01*
X126453900Y-114558924D01*
X126453900Y-114153652D01*
X127419100Y-114153652D01*
X127419100Y-114446348D01*
X127476202Y-114733421D01*
X127588212Y-115003838D01*
X127750826Y-115247206D01*
X127957794Y-115454174D01*
X128201162Y-115616788D01*
X128471579Y-115728798D01*
X128758652Y-115785900D01*
X129051348Y-115785900D01*
X129338421Y-115728798D01*
X129608838Y-115616788D01*
X129852206Y-115454174D01*
X130059174Y-115247206D01*
X130221788Y-115003838D01*
X130333798Y-114733421D01*
X130390900Y-114446348D01*
X130390900Y-114153652D01*
X130333798Y-113866579D01*
X130221788Y-113596162D01*
X130059174Y-113352794D01*
X129852206Y-113145826D01*
X129608838Y-112983212D01*
X129338421Y-112871202D01*
X129051348Y-112814100D01*
X128758652Y-112814100D01*
X128471579Y-112871202D01*
X128201162Y-112983212D01*
X127957794Y-113145826D01*
X127750826Y-113352794D01*
X127588212Y-113596162D01*
X127476202Y-113866579D01*
X127419100Y-114153652D01*
X126453900Y-114153652D01*
X126453900Y-114041076D01*
X126352873Y-113533178D01*
X126154701Y-113054749D01*
X125867000Y-112624174D01*
X125500826Y-112258000D01*
X125070251Y-111970299D01*
X124591822Y-111772127D01*
X124083924Y-111671100D01*
X123566076Y-111671100D01*
X123058178Y-111772127D01*
X122579749Y-111970299D01*
X122149174Y-112258000D01*
X121783000Y-112624174D01*
X121495299Y-113054749D01*
X121297127Y-113533178D01*
X121196100Y-114041076D01*
X120208508Y-114041076D01*
X120173798Y-113866579D01*
X120069559Y-113614924D01*
X120375500Y-113578036D01*
X120728387Y-113462525D01*
X121051960Y-113280387D01*
X121333782Y-113038623D01*
X121505578Y-112819720D01*
X122814006Y-110765900D01*
X122939796Y-110517688D01*
X123039805Y-110160097D01*
X123068131Y-109789866D01*
X123064953Y-109763505D01*
X124438344Y-109763505D01*
X124446721Y-110041645D01*
X124530090Y-110403477D01*
X124682448Y-110742092D01*
X124897939Y-111044477D01*
X125168281Y-111299011D01*
X125483087Y-111495915D01*
X125830257Y-111627618D01*
X126196450Y-111689061D01*
X126567593Y-111677883D01*
X126929425Y-111594514D01*
X127268040Y-111442156D01*
X127570425Y-111226665D01*
X127824959Y-110956323D01*
X128021863Y-110641517D01*
X128153566Y-110294347D01*
X128199613Y-110019916D01*
X128251656Y-109256496D01*
X128243279Y-108978355D01*
X128159910Y-108616523D01*
X128007552Y-108277908D01*
X127792061Y-107975523D01*
X127521719Y-107720989D01*
X127206913Y-107524086D01*
X126859743Y-107392382D01*
X126493550Y-107330939D01*
X126122407Y-107342117D01*
X125760575Y-107425486D01*
X125421960Y-107577844D01*
X125119575Y-107793335D01*
X124865041Y-108063677D01*
X124668137Y-108378483D01*
X124536434Y-108725653D01*
X124490387Y-109000084D01*
X124438344Y-109763505D01*
X123064953Y-109763505D01*
X123023683Y-109421223D01*
X122981878Y-109293510D01*
X123712358Y-108504480D01*
X123730001Y-108490001D01*
X123763090Y-108449682D01*
X123773057Y-108438916D01*
X123786781Y-108420814D01*
X123824974Y-108374276D01*
X123831928Y-108361267D01*
X123840839Y-108349513D01*
X123867155Y-108295362D01*
X123895546Y-108242247D01*
X123899829Y-108228129D01*
X123906275Y-108214864D01*
X123921523Y-108156611D01*
X123939003Y-108098986D01*
X123940449Y-108084307D01*
X123944184Y-108070037D01*
X123947774Y-108009936D01*
X123950000Y-107987333D01*
X123950000Y-107972664D01*
X123953110Y-107920596D01*
X123950000Y-107897985D01*
X123950000Y-100367322D01*
X123953676Y-100329999D01*
X123950000Y-100292676D01*
X123950000Y-100292667D01*
X123939003Y-100181014D01*
X123895546Y-100037753D01*
X123824974Y-99905724D01*
X123796613Y-99871165D01*
X126290000Y-99871165D01*
X126290000Y-100153835D01*
X126345147Y-100431074D01*
X126453320Y-100692227D01*
X126610363Y-100927259D01*
X126810241Y-101127137D01*
X127045273Y-101284180D01*
X127306426Y-101392353D01*
X127583665Y-101447500D01*
X127866335Y-101447500D01*
X128143574Y-101392353D01*
X128404727Y-101284180D01*
X128639759Y-101127137D01*
X128839637Y-100927259D01*
X128996680Y-100692227D01*
X129104853Y-100431074D01*
X129160000Y-100153835D01*
X129160000Y-99871165D01*
X129104853Y-99593926D01*
X128996680Y-99332773D01*
X128839637Y-99097741D01*
X128639759Y-98897863D01*
X128404727Y-98740820D01*
X128143574Y-98632647D01*
X127866335Y-98577500D01*
X127583665Y-98577500D01*
X127306426Y-98632647D01*
X127045273Y-98740820D01*
X126810241Y-98897863D01*
X126610363Y-99097741D01*
X126453320Y-99332773D01*
X126345147Y-99593926D01*
X126290000Y-99871165D01*
X123796613Y-99871165D01*
X123790333Y-99863514D01*
X123753799Y-99818996D01*
X123753795Y-99818992D01*
X123730001Y-99789999D01*
X123701008Y-99766205D01*
X121410000Y-97475199D01*
X121410000Y-96289321D01*
X121495299Y-96495251D01*
X121783000Y-96925826D01*
X122149174Y-97292000D01*
X122579749Y-97579701D01*
X123058178Y-97777873D01*
X123566076Y-97878900D01*
X124083924Y-97878900D01*
X124591822Y-97777873D01*
X125070251Y-97579701D01*
X125500826Y-97292000D01*
X125867000Y-96925826D01*
X126154701Y-96495251D01*
X126352873Y-96016822D01*
X126453900Y-95508924D01*
X126453900Y-95103652D01*
X127419100Y-95103652D01*
X127419100Y-95396348D01*
X127476202Y-95683421D01*
X127588212Y-95953838D01*
X127750826Y-96197206D01*
X127957794Y-96404174D01*
X128201162Y-96566788D01*
X128471579Y-96678798D01*
X128758652Y-96735900D01*
X129051348Y-96735900D01*
X129338421Y-96678798D01*
X129608838Y-96566788D01*
X129852206Y-96404174D01*
X130059174Y-96197206D01*
X130221788Y-95953838D01*
X130333798Y-95683421D01*
X130390900Y-95396348D01*
X130390900Y-95103652D01*
X130333798Y-94816579D01*
X130221788Y-94546162D01*
X130059174Y-94302794D01*
X129852206Y-94095826D01*
X129608838Y-93933212D01*
X129338421Y-93821202D01*
X129051348Y-93764100D01*
X128758652Y-93764100D01*
X128471579Y-93821202D01*
X128201162Y-93933212D01*
X127957794Y-94095826D01*
X127750826Y-94302794D01*
X127588212Y-94546162D01*
X127476202Y-94816579D01*
X127419100Y-95103652D01*
X126453900Y-95103652D01*
X126453900Y-94991076D01*
X126352873Y-94483178D01*
X126154701Y-94004749D01*
X125867000Y-93574174D01*
X125500826Y-93208000D01*
X125070251Y-92920299D01*
X124591822Y-92722127D01*
X124083924Y-92621100D01*
X123566076Y-92621100D01*
X123058178Y-92722127D01*
X122579749Y-92920299D01*
X122149174Y-93208000D01*
X121783000Y-93574174D01*
X121495299Y-94004749D01*
X121410000Y-94210679D01*
X121410000Y-93891506D01*
X121505578Y-93769720D01*
X122814006Y-91715900D01*
X122939796Y-91467688D01*
X123039805Y-91110097D01*
X123068131Y-90739866D01*
X123064953Y-90713505D01*
X124438344Y-90713505D01*
X124446721Y-90991645D01*
X124530090Y-91353477D01*
X124682448Y-91692092D01*
X124897939Y-91994477D01*
X125168281Y-92249011D01*
X125483087Y-92445915D01*
X125830257Y-92577618D01*
X126196450Y-92639061D01*
X126567593Y-92627883D01*
X126929425Y-92544514D01*
X127268040Y-92392156D01*
X127570425Y-92176665D01*
X127824959Y-91906323D01*
X128021863Y-91591517D01*
X128153566Y-91244347D01*
X128199613Y-90969916D01*
X128251656Y-90206496D01*
X128243279Y-89928355D01*
X128159910Y-89566523D01*
X128007552Y-89227908D01*
X127792061Y-88925523D01*
X127521719Y-88670989D01*
X127206913Y-88474086D01*
X126859743Y-88342382D01*
X126493550Y-88280939D01*
X126122407Y-88292117D01*
X125760575Y-88375486D01*
X125421960Y-88527844D01*
X125119575Y-88743335D01*
X124865041Y-89013677D01*
X124668137Y-89328483D01*
X124536434Y-89675653D01*
X124490387Y-89950084D01*
X124438344Y-90713505D01*
X123064953Y-90713505D01*
X123023683Y-90371223D01*
X122908171Y-90018336D01*
X122726034Y-89694763D01*
X122484270Y-89412942D01*
X122192171Y-89183701D01*
X121860963Y-89015851D01*
X121503373Y-88915842D01*
X121133141Y-88887517D01*
X120764499Y-88931964D01*
X120411611Y-89047476D01*
X120088039Y-89229613D01*
X119806218Y-89471377D01*
X119634422Y-89690280D01*
X118325993Y-91744101D01*
X118200204Y-91992314D01*
X118100194Y-92349904D01*
X118071869Y-92720135D01*
X118116317Y-93088777D01*
X118231828Y-93441664D01*
X118413966Y-93765237D01*
X118440054Y-93795647D01*
X118311579Y-93821202D01*
X118041162Y-93933212D01*
X117797794Y-94095826D01*
X117590826Y-94302794D01*
X117428212Y-94546162D01*
X117316202Y-94816579D01*
X117259100Y-95103652D01*
X117259100Y-95396348D01*
X117316202Y-95683421D01*
X117428212Y-95953838D01*
X117590826Y-96197206D01*
X117797794Y-96404174D01*
X118041162Y-96566788D01*
X118311579Y-96678798D01*
X118598652Y-96735900D01*
X118891348Y-96735900D01*
X119178421Y-96678798D01*
X119448838Y-96566788D01*
X119692206Y-96404174D01*
X119890000Y-96206380D01*
X119890000Y-97752677D01*
X119886324Y-97790000D01*
X119890000Y-97827322D01*
X119890000Y-97827332D01*
X119900997Y-97938985D01*
X119944454Y-98082246D01*
X120015026Y-98214276D01*
X120054871Y-98262826D01*
X120109999Y-98330001D01*
X120139003Y-98353804D01*
X120359627Y-98574428D01*
X119125000Y-98574428D01*
X119000518Y-98586688D01*
X118880820Y-98622998D01*
X118770506Y-98681963D01*
X118673815Y-98761315D01*
X118594463Y-98858006D01*
X118535498Y-98968320D01*
X118499188Y-99088018D01*
X118486928Y-99212500D01*
X118486928Y-100148270D01*
X117795199Y-100840000D01*
X110016983Y-100840000D01*
X110054853Y-100748574D01*
X110110000Y-100471335D01*
X110110000Y-100188665D01*
X110054853Y-99911426D01*
X109946680Y-99650273D01*
X109789637Y-99415241D01*
X109589759Y-99215363D01*
X109354727Y-99058320D01*
X109093574Y-98950147D01*
X108816335Y-98895000D01*
X108533665Y-98895000D01*
X108256426Y-98950147D01*
X107995273Y-99058320D01*
X107760241Y-99215363D01*
X107560363Y-99415241D01*
X107403320Y-99650273D01*
X107295147Y-99911426D01*
X107240000Y-100188665D01*
X107240000Y-100471335D01*
X107295147Y-100748574D01*
X107333017Y-100840000D01*
X102313072Y-100840000D01*
X102313072Y-99530000D01*
X102300812Y-99405518D01*
X102264502Y-99285820D01*
X102205537Y-99175506D01*
X102126185Y-99078815D01*
X102029494Y-98999463D01*
X101919180Y-98940498D01*
X101799482Y-98904188D01*
X101675000Y-98891928D01*
X100075000Y-98891928D01*
X99950518Y-98904188D01*
X99830820Y-98940498D01*
X99720506Y-98999463D01*
X99623815Y-99078815D01*
X99544463Y-99175506D01*
X99485498Y-99285820D01*
X99449188Y-99405518D01*
X99436928Y-99530000D01*
X99436928Y-100693271D01*
X99290199Y-100840000D01*
X90797941Y-100840000D01*
X90896680Y-100692227D01*
X91004853Y-100431074D01*
X91060000Y-100153835D01*
X91060000Y-99871165D01*
X91004853Y-99593926D01*
X90896680Y-99332773D01*
X90739637Y-99097741D01*
X90539759Y-98897863D01*
X90304727Y-98740820D01*
X90043574Y-98632647D01*
X89766335Y-98577500D01*
X89483665Y-98577500D01*
X89206426Y-98632647D01*
X88945273Y-98740820D01*
X88710241Y-98897863D01*
X88510363Y-99097741D01*
X88353320Y-99332773D01*
X88245147Y-99593926D01*
X88190000Y-99871165D01*
X88190000Y-100153835D01*
X88245147Y-100431074D01*
X88353320Y-100692227D01*
X88452059Y-100840000D01*
X83260364Y-100840000D01*
X83263072Y-100812500D01*
X83263072Y-99212500D01*
X83250812Y-99088018D01*
X83214502Y-98968320D01*
X83155537Y-98858006D01*
X83076185Y-98761315D01*
X82979494Y-98681963D01*
X82869180Y-98622998D01*
X82749482Y-98586688D01*
X82625000Y-98574428D01*
X81025000Y-98574428D01*
X80900518Y-98586688D01*
X80780820Y-98622998D01*
X80670506Y-98681963D01*
X80573815Y-98761315D01*
X80494463Y-98858006D01*
X80435498Y-98968320D01*
X80399188Y-99088018D01*
X80386928Y-99212500D01*
X69240000Y-99212500D01*
X69240000Y-95103652D01*
X79159100Y-95103652D01*
X79159100Y-95396348D01*
X79216202Y-95683421D01*
X79328212Y-95953838D01*
X79490826Y-96197206D01*
X79697794Y-96404174D01*
X79941162Y-96566788D01*
X80211579Y-96678798D01*
X80498652Y-96735900D01*
X80791348Y-96735900D01*
X81078421Y-96678798D01*
X81348838Y-96566788D01*
X81592206Y-96404174D01*
X81799174Y-96197206D01*
X81961788Y-95953838D01*
X82073798Y-95683421D01*
X82130900Y-95396348D01*
X82130900Y-95103652D01*
X82108508Y-94991076D01*
X83096100Y-94991076D01*
X83096100Y-95508924D01*
X83197127Y-96016822D01*
X83395299Y-96495251D01*
X83683000Y-96925826D01*
X84049174Y-97292000D01*
X84479749Y-97579701D01*
X84958178Y-97777873D01*
X85466076Y-97878900D01*
X85983924Y-97878900D01*
X86491822Y-97777873D01*
X86970251Y-97579701D01*
X87400826Y-97292000D01*
X87767000Y-96925826D01*
X88054701Y-96495251D01*
X88252873Y-96016822D01*
X88353900Y-95508924D01*
X88353900Y-95103652D01*
X89319100Y-95103652D01*
X89319100Y-95396348D01*
X89376202Y-95683421D01*
X89488212Y-95953838D01*
X89650826Y-96197206D01*
X89857794Y-96404174D01*
X90101162Y-96566788D01*
X90371579Y-96678798D01*
X90658652Y-96735900D01*
X90951348Y-96735900D01*
X91238421Y-96678798D01*
X91508838Y-96566788D01*
X91752206Y-96404174D01*
X91959174Y-96197206D01*
X92121788Y-95953838D01*
X92233798Y-95683421D01*
X92290900Y-95396348D01*
X92290900Y-95103652D01*
X98209100Y-95103652D01*
X98209100Y-95396348D01*
X98266202Y-95683421D01*
X98378212Y-95953838D01*
X98540826Y-96197206D01*
X98747794Y-96404174D01*
X98991162Y-96566788D01*
X99261579Y-96678798D01*
X99548652Y-96735900D01*
X99841348Y-96735900D01*
X100128421Y-96678798D01*
X100398838Y-96566788D01*
X100642206Y-96404174D01*
X100849174Y-96197206D01*
X101011788Y-95953838D01*
X101123798Y-95683421D01*
X101180900Y-95396348D01*
X101180900Y-95103652D01*
X101158508Y-94991076D01*
X102146100Y-94991076D01*
X102146100Y-95508924D01*
X102247127Y-96016822D01*
X102445299Y-96495251D01*
X102733000Y-96925826D01*
X103099174Y-97292000D01*
X103529749Y-97579701D01*
X104008178Y-97777873D01*
X104516076Y-97878900D01*
X105033924Y-97878900D01*
X105541822Y-97777873D01*
X106020251Y-97579701D01*
X106450826Y-97292000D01*
X106817000Y-96925826D01*
X107104701Y-96495251D01*
X107302873Y-96016822D01*
X107403900Y-95508924D01*
X107403900Y-95103652D01*
X108369100Y-95103652D01*
X108369100Y-95396348D01*
X108426202Y-95683421D01*
X108538212Y-95953838D01*
X108700826Y-96197206D01*
X108907794Y-96404174D01*
X109151162Y-96566788D01*
X109421579Y-96678798D01*
X109708652Y-96735900D01*
X110001348Y-96735900D01*
X110288421Y-96678798D01*
X110558838Y-96566788D01*
X110802206Y-96404174D01*
X111009174Y-96197206D01*
X111171788Y-95953838D01*
X111283798Y-95683421D01*
X111340900Y-95396348D01*
X111340900Y-95103652D01*
X111283798Y-94816579D01*
X111171788Y-94546162D01*
X111009174Y-94302794D01*
X110802206Y-94095826D01*
X110558838Y-93933212D01*
X110288421Y-93821202D01*
X110001348Y-93764100D01*
X109708652Y-93764100D01*
X109421579Y-93821202D01*
X109151162Y-93933212D01*
X108907794Y-94095826D01*
X108700826Y-94302794D01*
X108538212Y-94546162D01*
X108426202Y-94816579D01*
X108369100Y-95103652D01*
X107403900Y-95103652D01*
X107403900Y-94991076D01*
X107302873Y-94483178D01*
X107104701Y-94004749D01*
X106817000Y-93574174D01*
X106450826Y-93208000D01*
X106020251Y-92920299D01*
X105541822Y-92722127D01*
X105033924Y-92621100D01*
X104516076Y-92621100D01*
X104008178Y-92722127D01*
X103529749Y-92920299D01*
X103099174Y-93208000D01*
X102733000Y-93574174D01*
X102445299Y-94004749D01*
X102247127Y-94483178D01*
X102146100Y-94991076D01*
X101158508Y-94991076D01*
X101123798Y-94816579D01*
X101019559Y-94564924D01*
X101325500Y-94528036D01*
X101678387Y-94412525D01*
X102001960Y-94230387D01*
X102283782Y-93988623D01*
X102455578Y-93769720D01*
X103764006Y-91715900D01*
X103889796Y-91467688D01*
X103989805Y-91110097D01*
X104018131Y-90739866D01*
X104014953Y-90713505D01*
X105388344Y-90713505D01*
X105396721Y-90991645D01*
X105480090Y-91353477D01*
X105632448Y-91692092D01*
X105847939Y-91994477D01*
X106118281Y-92249011D01*
X106433087Y-92445915D01*
X106780257Y-92577618D01*
X107146450Y-92639061D01*
X107517593Y-92627883D01*
X107879425Y-92544514D01*
X108218040Y-92392156D01*
X108520425Y-92176665D01*
X108774959Y-91906323D01*
X108971863Y-91591517D01*
X109103566Y-91244347D01*
X109149613Y-90969916D01*
X109201656Y-90206496D01*
X109193279Y-89928355D01*
X109109910Y-89566523D01*
X108957552Y-89227908D01*
X108742061Y-88925523D01*
X108471719Y-88670989D01*
X108156913Y-88474086D01*
X107809743Y-88342382D01*
X107443550Y-88280939D01*
X107072407Y-88292117D01*
X106710575Y-88375486D01*
X106371960Y-88527844D01*
X106069575Y-88743335D01*
X105815041Y-89013677D01*
X105618137Y-89328483D01*
X105486434Y-89675653D01*
X105440387Y-89950084D01*
X105388344Y-90713505D01*
X104014953Y-90713505D01*
X103973683Y-90371223D01*
X103858171Y-90018336D01*
X103676034Y-89694763D01*
X103434270Y-89412942D01*
X103142171Y-89183701D01*
X102810963Y-89015851D01*
X102453373Y-88915842D01*
X102083141Y-88887517D01*
X101714499Y-88931964D01*
X101361611Y-89047476D01*
X101038039Y-89229613D01*
X100756218Y-89471377D01*
X100584422Y-89690280D01*
X99275993Y-91744101D01*
X99150204Y-91992314D01*
X99050194Y-92349904D01*
X99021869Y-92720135D01*
X99066317Y-93088777D01*
X99181828Y-93441664D01*
X99363966Y-93765237D01*
X99390054Y-93795647D01*
X99261579Y-93821202D01*
X98991162Y-93933212D01*
X98747794Y-94095826D01*
X98540826Y-94302794D01*
X98378212Y-94546162D01*
X98266202Y-94816579D01*
X98209100Y-95103652D01*
X92290900Y-95103652D01*
X92233798Y-94816579D01*
X92121788Y-94546162D01*
X91959174Y-94302794D01*
X91752206Y-94095826D01*
X91508838Y-93933212D01*
X91238421Y-93821202D01*
X90951348Y-93764100D01*
X90658652Y-93764100D01*
X90371579Y-93821202D01*
X90101162Y-93933212D01*
X89857794Y-94095826D01*
X89650826Y-94302794D01*
X89488212Y-94546162D01*
X89376202Y-94816579D01*
X89319100Y-95103652D01*
X88353900Y-95103652D01*
X88353900Y-94991076D01*
X88252873Y-94483178D01*
X88054701Y-94004749D01*
X87767000Y-93574174D01*
X87400826Y-93208000D01*
X86970251Y-92920299D01*
X86491822Y-92722127D01*
X85983924Y-92621100D01*
X85466076Y-92621100D01*
X84958178Y-92722127D01*
X84479749Y-92920299D01*
X84049174Y-93208000D01*
X83683000Y-93574174D01*
X83395299Y-94004749D01*
X83197127Y-94483178D01*
X83096100Y-94991076D01*
X82108508Y-94991076D01*
X82073798Y-94816579D01*
X81969559Y-94564924D01*
X82275500Y-94528036D01*
X82628387Y-94412525D01*
X82951960Y-94230387D01*
X83233782Y-93988623D01*
X83405578Y-93769720D01*
X84714006Y-91715900D01*
X84839796Y-91467688D01*
X84939805Y-91110097D01*
X84968131Y-90739866D01*
X84964953Y-90713505D01*
X86338344Y-90713505D01*
X86346721Y-90991645D01*
X86430090Y-91353477D01*
X86582448Y-91692092D01*
X86797939Y-91994477D01*
X87068281Y-92249011D01*
X87383087Y-92445915D01*
X87730257Y-92577618D01*
X88096450Y-92639061D01*
X88467593Y-92627883D01*
X88829425Y-92544514D01*
X89168040Y-92392156D01*
X89470425Y-92176665D01*
X89724959Y-91906323D01*
X89921863Y-91591517D01*
X90053566Y-91244347D01*
X90099613Y-90969916D01*
X90151656Y-90206496D01*
X90143279Y-89928355D01*
X90059910Y-89566523D01*
X89907552Y-89227908D01*
X89692061Y-88925523D01*
X89421719Y-88670989D01*
X89106913Y-88474086D01*
X88759743Y-88342382D01*
X88393550Y-88280939D01*
X88022407Y-88292117D01*
X87660575Y-88375486D01*
X87321960Y-88527844D01*
X87019575Y-88743335D01*
X86765041Y-89013677D01*
X86568137Y-89328483D01*
X86436434Y-89675653D01*
X86390387Y-89950084D01*
X86338344Y-90713505D01*
X84964953Y-90713505D01*
X84923683Y-90371223D01*
X84808171Y-90018336D01*
X84626034Y-89694763D01*
X84384270Y-89412942D01*
X84092171Y-89183701D01*
X83760963Y-89015851D01*
X83403373Y-88915842D01*
X83033141Y-88887517D01*
X82664499Y-88931964D01*
X82311611Y-89047476D01*
X81988039Y-89229613D01*
X81706218Y-89471377D01*
X81534422Y-89690280D01*
X80225993Y-91744101D01*
X80100204Y-91992314D01*
X80000194Y-92349904D01*
X79971869Y-92720135D01*
X80016317Y-93088777D01*
X80131828Y-93441664D01*
X80313966Y-93765237D01*
X80340054Y-93795647D01*
X80211579Y-93821202D01*
X79941162Y-93933212D01*
X79697794Y-94095826D01*
X79490826Y-94302794D01*
X79328212Y-94546162D01*
X79216202Y-94816579D01*
X79159100Y-95103652D01*
X69240000Y-95103652D01*
X69240000Y-85416229D01*
X69890000Y-85416229D01*
X69890000Y-86033771D01*
X70010476Y-86639446D01*
X70246799Y-87209979D01*
X70589886Y-87723446D01*
X71026554Y-88160114D01*
X71540021Y-88503201D01*
X72110554Y-88739524D01*
X72716229Y-88860000D01*
X73333771Y-88860000D01*
X73939446Y-88739524D01*
X74509979Y-88503201D01*
X75023446Y-88160114D01*
X75460114Y-87723446D01*
X75803201Y-87209979D01*
X76039524Y-86639446D01*
X76160000Y-86033771D01*
X76160000Y-85416229D01*
X76097696Y-85103000D01*
X105990000Y-85103000D01*
X105990000Y-86353000D01*
X106041389Y-86620760D01*
X106144028Y-86873349D01*
X106293972Y-87101061D01*
X106485460Y-87295145D01*
X106711132Y-87448142D01*
X106962316Y-87554173D01*
X107033815Y-87568318D01*
X107248000Y-87445656D01*
X107248000Y-85103000D01*
X107502000Y-85103000D01*
X107502000Y-87445656D01*
X107716185Y-87568318D01*
X107787684Y-87554173D01*
X108038868Y-87448142D01*
X108264540Y-87295145D01*
X108456028Y-87101061D01*
X108605972Y-86873349D01*
X108708611Y-86620760D01*
X108760000Y-86353000D01*
X108760000Y-85103000D01*
X113290000Y-85103000D01*
X113290000Y-86353000D01*
X113341389Y-86620760D01*
X113444028Y-86873349D01*
X113593972Y-87101061D01*
X113785460Y-87295145D01*
X114011132Y-87448142D01*
X114262316Y-87554173D01*
X114333815Y-87568318D01*
X114548000Y-87445656D01*
X114548000Y-85103000D01*
X114802000Y-85103000D01*
X114802000Y-87445656D01*
X115016185Y-87568318D01*
X115087684Y-87554173D01*
X115338868Y-87448142D01*
X115564540Y-87295145D01*
X115756028Y-87101061D01*
X115905972Y-86873349D01*
X116008611Y-86620760D01*
X116060000Y-86353000D01*
X116060000Y-85416229D01*
X149900000Y-85416229D01*
X149900000Y-86033771D01*
X150020476Y-86639446D01*
X150256799Y-87209979D01*
X150599886Y-87723446D01*
X151036554Y-88160114D01*
X151550021Y-88503201D01*
X152120554Y-88739524D01*
X152726229Y-88860000D01*
X153343771Y-88860000D01*
X153949446Y-88739524D01*
X154519979Y-88503201D01*
X155033446Y-88160114D01*
X155470114Y-87723446D01*
X155813201Y-87209979D01*
X156049524Y-86639446D01*
X156170000Y-86033771D01*
X156170000Y-85416229D01*
X156049524Y-84810554D01*
X155813201Y-84240021D01*
X155470114Y-83726554D01*
X155033446Y-83289886D01*
X154519979Y-82946799D01*
X153949446Y-82710476D01*
X153343771Y-82590000D01*
X152726229Y-82590000D01*
X152120554Y-82710476D01*
X151550021Y-82946799D01*
X151036554Y-83289886D01*
X150599886Y-83726554D01*
X150256799Y-84240021D01*
X150020476Y-84810554D01*
X149900000Y-85416229D01*
X116060000Y-85416229D01*
X116060000Y-85103000D01*
X114802000Y-85103000D01*
X114548000Y-85103000D01*
X113290000Y-85103000D01*
X108760000Y-85103000D01*
X107502000Y-85103000D01*
X107248000Y-85103000D01*
X105990000Y-85103000D01*
X76097696Y-85103000D01*
X76039524Y-84810554D01*
X75803201Y-84240021D01*
X75460114Y-83726554D01*
X75332560Y-83599000D01*
X105990000Y-83599000D01*
X105990000Y-84849000D01*
X107248000Y-84849000D01*
X107248000Y-82506344D01*
X107502000Y-82506344D01*
X107502000Y-84849000D01*
X108760000Y-84849000D01*
X108760000Y-83599000D01*
X113290000Y-83599000D01*
X113290000Y-84849000D01*
X114548000Y-84849000D01*
X114548000Y-82506344D01*
X114802000Y-82506344D01*
X114802000Y-84849000D01*
X116060000Y-84849000D01*
X116060000Y-83599000D01*
X116008611Y-83331240D01*
X115905972Y-83078651D01*
X115756028Y-82850939D01*
X115564540Y-82656855D01*
X115338868Y-82503858D01*
X115087684Y-82397827D01*
X115016185Y-82383682D01*
X114802000Y-82506344D01*
X114548000Y-82506344D01*
X114333815Y-82383682D01*
X114262316Y-82397827D01*
X114011132Y-82503858D01*
X113785460Y-82656855D01*
X113593972Y-82850939D01*
X113444028Y-83078651D01*
X113341389Y-83331240D01*
X113290000Y-83599000D01*
X108760000Y-83599000D01*
X108708611Y-83331240D01*
X108605972Y-83078651D01*
X108456028Y-82850939D01*
X108264540Y-82656855D01*
X108038868Y-82503858D01*
X107787684Y-82397827D01*
X107716185Y-82383682D01*
X107502000Y-82506344D01*
X107248000Y-82506344D01*
X107033815Y-82383682D01*
X106962316Y-82397827D01*
X106711132Y-82503858D01*
X106485460Y-82656855D01*
X106293972Y-82850939D01*
X106144028Y-83078651D01*
X106041389Y-83331240D01*
X105990000Y-83599000D01*
X75332560Y-83599000D01*
X75023446Y-83289886D01*
X74509979Y-82946799D01*
X73939446Y-82710476D01*
X73333771Y-82590000D01*
X72716229Y-82590000D01*
X72110554Y-82710476D01*
X71540021Y-82946799D01*
X71026554Y-83289886D01*
X70589886Y-83726554D01*
X70246799Y-84240021D01*
X70010476Y-84810554D01*
X69890000Y-85416229D01*
X69240000Y-85416229D01*
X69240000Y-83852279D01*
X69278909Y-83455455D01*
X69384780Y-83104792D01*
X69556744Y-82781375D01*
X69788254Y-82497516D01*
X70070486Y-82264035D01*
X70392695Y-82089817D01*
X70742614Y-81981498D01*
X71137443Y-81940000D01*
X154907721Y-81940000D01*
X155304545Y-81978909D01*
%TD*%
M02*
