M48
; DRILL file {KiCad (5.1.6)-1} date 07/25/20 02:34:42
; FORMAT={-:-/ absolute / inch / decimal}
; #@! TF.CreationDate,2020-07-25T02:34:42-04:00
; #@! TF.GenerationSoftware,Kicad,Pcbnew,(5.1.6)-1
; #@! TF.FileFunction,Plated,1,2,PTH
FMAT,2
INCH
T1C0.0157
T2C0.0276
T3C0.0591
T4C0.1339
%
G90
G05
T1
X5.2694Y-4.4708
X5.439Y-3.8208
X5.59Y-4.835
X5.5958Y-4.6742
X5.7464Y-4.2238
X5.79Y-4.73
X5.822Y-3.3568
T2
X3.2215Y-4.6875
X3.5285Y-4.6875
X3.9715Y-4.6875
X4.2785Y-4.6875
X3.2215Y-3.9375
X3.5285Y-3.9375
X4.7215Y-4.7
X5.0285Y-4.7
X3.9715Y-3.95
X4.2785Y-3.95
X4.7215Y-3.9375
X5.0285Y-3.9375
T4
X2.875Y-3.375
X2.875Y-4.925
X6.025Y-3.375
X6.025Y-4.925
T2
G00X4.2274Y-3.2963
M15
G01X4.2274Y-3.3947
M16
G05
G00X4.5148Y-3.2963
M15
G01X4.5148Y-3.3947
M16
G05
T3
G00X4.0206Y-4.3241
M15
G01X3.9731Y-4.3988
M16
G05
G00X4.225Y-4.3
M15
G01X4.2234Y-4.3228
M16
G05
G00X3.2706Y-4.3241
M15
G01X3.2231Y-4.3988
M16
G05
G00X3.475Y-4.3
M15
G01X3.4734Y-4.3228
M16
G05
G00X3.2706Y-3.5741
M15
G01X3.2231Y-3.6488
M16
G05
G00X3.475Y-3.55
M15
G01X3.4734Y-3.5728
M16
G05
G00X4.7706Y-3.5741
M15
G01X4.7231Y-3.6488
M16
G05
G00X4.975Y-3.55
M15
G01X4.9734Y-3.5728
M16
G05
G00X4.0206Y-3.5741
M15
G01X3.9731Y-3.6488
M16
G05
G00X4.225Y-3.55
M15
G01X4.2234Y-3.5728
M16
G05
G00X4.7706Y-4.3241
M15
G01X4.7231Y-4.3988
M16
G05
G00X4.975Y-4.3
M15
G01X4.9734Y-4.3228
M16
G05
T0
M30
