%TF.GenerationSoftware,KiCad,Pcbnew,(5.1.6)-1*%
%TF.CreationDate,2020-07-25T03:11:20-04:00*%
%TF.ProjectId,myfirstKeyboard,6d796669-7273-4744-9b65-79626f617264,rev?*%
%TF.SameCoordinates,Original*%
%TF.FileFunction,Legend,Top*%
%TF.FilePolarity,Positive*%
%FSLAX46Y46*%
G04 Gerber Fmt 4.6, Leading zero omitted, Abs format (unit mm)*
G04 Created by KiCad (PCBNEW (5.1.6)-1) date 2020-07-25 03:11:20*
%MOMM*%
%LPD*%
G01*
G04 APERTURE LIST*
%ADD10C,0.010000*%
%ADD11C,0.381000*%
%ADD12C,0.150000*%
G04 APERTURE END LIST*
D10*
%TO.C,*%
G36*
X145479335Y-111323606D02*
G01*
X145571515Y-111517292D01*
X145570167Y-111801360D01*
X145544053Y-111921708D01*
X145460335Y-112134184D01*
X145315034Y-112416890D01*
X145135916Y-112724286D01*
X144950748Y-113010835D01*
X144787296Y-113230997D01*
X144682944Y-113333990D01*
X144705347Y-113393539D01*
X144850395Y-113493934D01*
X145028112Y-113585349D01*
X145503627Y-113881410D01*
X145953515Y-114299159D01*
X146346611Y-114797240D01*
X146651750Y-115334297D01*
X146837769Y-115868975D01*
X146865871Y-116024069D01*
X146871290Y-116330059D01*
X146809936Y-116572081D01*
X146700777Y-116723972D01*
X146562783Y-116759566D01*
X146414923Y-116652699D01*
X146412435Y-116649500D01*
X146333641Y-116509688D01*
X146230188Y-116280587D01*
X146186387Y-116172086D01*
X145872718Y-115565679D01*
X145397008Y-114939102D01*
X144764433Y-114298849D01*
X144526000Y-114088961D01*
X144248231Y-113903478D01*
X143959694Y-113837165D01*
X143891000Y-113835243D01*
X143670300Y-113821744D01*
X143566527Y-113761702D01*
X143527922Y-113623411D01*
X143526554Y-113611978D01*
X143554596Y-113417663D01*
X143692854Y-113179949D01*
X143840612Y-112996973D01*
X144047341Y-112746040D01*
X144306592Y-112414278D01*
X144573577Y-112059438D01*
X144669480Y-111928160D01*
X144910353Y-111615307D01*
X145116455Y-111386029D01*
X145264775Y-111264806D01*
X145304943Y-111252000D01*
X145479335Y-111323606D01*
G37*
X145479335Y-111323606D02*
X145571515Y-111517292D01*
X145570167Y-111801360D01*
X145544053Y-111921708D01*
X145460335Y-112134184D01*
X145315034Y-112416890D01*
X145135916Y-112724286D01*
X144950748Y-113010835D01*
X144787296Y-113230997D01*
X144682944Y-113333990D01*
X144705347Y-113393539D01*
X144850395Y-113493934D01*
X145028112Y-113585349D01*
X145503627Y-113881410D01*
X145953515Y-114299159D01*
X146346611Y-114797240D01*
X146651750Y-115334297D01*
X146837769Y-115868975D01*
X146865871Y-116024069D01*
X146871290Y-116330059D01*
X146809936Y-116572081D01*
X146700777Y-116723972D01*
X146562783Y-116759566D01*
X146414923Y-116652699D01*
X146412435Y-116649500D01*
X146333641Y-116509688D01*
X146230188Y-116280587D01*
X146186387Y-116172086D01*
X145872718Y-115565679D01*
X145397008Y-114939102D01*
X144764433Y-114298849D01*
X144526000Y-114088961D01*
X144248231Y-113903478D01*
X143959694Y-113837165D01*
X143891000Y-113835243D01*
X143670300Y-113821744D01*
X143566527Y-113761702D01*
X143527922Y-113623411D01*
X143526554Y-113611978D01*
X143554596Y-113417663D01*
X143692854Y-113179949D01*
X143840612Y-112996973D01*
X144047341Y-112746040D01*
X144306592Y-112414278D01*
X144573577Y-112059438D01*
X144669480Y-111928160D01*
X144910353Y-111615307D01*
X145116455Y-111386029D01*
X145264775Y-111264806D01*
X145304943Y-111252000D01*
X145479335Y-111323606D01*
G36*
X138663962Y-110264343D02*
G01*
X138723780Y-110344828D01*
X138717857Y-110434609D01*
X138629507Y-110567553D01*
X138442045Y-110777527D01*
X138376989Y-110846820D01*
X137907221Y-111401826D01*
X137472712Y-112022368D01*
X137095817Y-112668847D01*
X136798891Y-113301662D01*
X136604287Y-113881214D01*
X136566239Y-114054528D01*
X136524046Y-114545358D01*
X136603299Y-114926034D01*
X136808365Y-115208737D01*
X137033000Y-115356796D01*
X137433968Y-115482873D01*
X137904233Y-115518964D01*
X138396058Y-115472696D01*
X138861707Y-115351697D01*
X139253444Y-115163594D01*
X139485833Y-114964863D01*
X139644661Y-114754677D01*
X139684245Y-114605495D01*
X139605705Y-114459209D01*
X139497792Y-114344095D01*
X139193546Y-114150998D01*
X138812379Y-114068932D01*
X138397523Y-114089608D01*
X137992212Y-114204741D01*
X137639678Y-114406041D01*
X137383154Y-114685222D01*
X137343508Y-114757063D01*
X137196838Y-114923089D01*
X137012702Y-114975478D01*
X136846244Y-114916203D01*
X136752604Y-114747232D01*
X136750816Y-114735888D01*
X136779753Y-114366596D01*
X136964343Y-114023347D01*
X137291197Y-113722288D01*
X137746923Y-113479572D01*
X137814133Y-113453446D01*
X138415772Y-113302621D01*
X138996392Y-113299795D01*
X139530378Y-113441924D01*
X139973105Y-113710058D01*
X140276211Y-114044116D01*
X140426261Y-114403643D01*
X140434590Y-114773495D01*
X140312533Y-115138528D01*
X140071427Y-115483601D01*
X139722606Y-115793570D01*
X139277406Y-116053291D01*
X138747162Y-116247622D01*
X138143209Y-116361419D01*
X137977668Y-116375804D01*
X137524810Y-116380370D01*
X137122284Y-116337745D01*
X136985484Y-116306542D01*
X136457499Y-116083250D01*
X136054944Y-115746690D01*
X135774124Y-115292942D01*
X135643078Y-114881919D01*
X135604530Y-114374363D01*
X135686117Y-113792812D01*
X135873926Y-113166736D01*
X136154047Y-112525606D01*
X136512566Y-111898892D01*
X136935573Y-111316066D01*
X137409154Y-110806598D01*
X137675340Y-110576842D01*
X138041122Y-110316984D01*
X138322260Y-110187784D01*
X138535191Y-110184046D01*
X138663962Y-110264343D01*
G37*
X138663962Y-110264343D02*
X138723780Y-110344828D01*
X138717857Y-110434609D01*
X138629507Y-110567553D01*
X138442045Y-110777527D01*
X138376989Y-110846820D01*
X137907221Y-111401826D01*
X137472712Y-112022368D01*
X137095817Y-112668847D01*
X136798891Y-113301662D01*
X136604287Y-113881214D01*
X136566239Y-114054528D01*
X136524046Y-114545358D01*
X136603299Y-114926034D01*
X136808365Y-115208737D01*
X137033000Y-115356796D01*
X137433968Y-115482873D01*
X137904233Y-115518964D01*
X138396058Y-115472696D01*
X138861707Y-115351697D01*
X139253444Y-115163594D01*
X139485833Y-114964863D01*
X139644661Y-114754677D01*
X139684245Y-114605495D01*
X139605705Y-114459209D01*
X139497792Y-114344095D01*
X139193546Y-114150998D01*
X138812379Y-114068932D01*
X138397523Y-114089608D01*
X137992212Y-114204741D01*
X137639678Y-114406041D01*
X137383154Y-114685222D01*
X137343508Y-114757063D01*
X137196838Y-114923089D01*
X137012702Y-114975478D01*
X136846244Y-114916203D01*
X136752604Y-114747232D01*
X136750816Y-114735888D01*
X136779753Y-114366596D01*
X136964343Y-114023347D01*
X137291197Y-113722288D01*
X137746923Y-113479572D01*
X137814133Y-113453446D01*
X138415772Y-113302621D01*
X138996392Y-113299795D01*
X139530378Y-113441924D01*
X139973105Y-113710058D01*
X140276211Y-114044116D01*
X140426261Y-114403643D01*
X140434590Y-114773495D01*
X140312533Y-115138528D01*
X140071427Y-115483601D01*
X139722606Y-115793570D01*
X139277406Y-116053291D01*
X138747162Y-116247622D01*
X138143209Y-116361419D01*
X137977668Y-116375804D01*
X137524810Y-116380370D01*
X137122284Y-116337745D01*
X136985484Y-116306542D01*
X136457499Y-116083250D01*
X136054944Y-115746690D01*
X135774124Y-115292942D01*
X135643078Y-114881919D01*
X135604530Y-114374363D01*
X135686117Y-113792812D01*
X135873926Y-113166736D01*
X136154047Y-112525606D01*
X136512566Y-111898892D01*
X136935573Y-111316066D01*
X137409154Y-110806598D01*
X137675340Y-110576842D01*
X138041122Y-110316984D01*
X138322260Y-110187784D01*
X138535191Y-110184046D01*
X138663962Y-110264343D01*
G36*
X142456025Y-109771494D02*
G01*
X142603547Y-109910032D01*
X142739345Y-110155693D01*
X142867563Y-110520559D01*
X142992343Y-111016708D01*
X143117827Y-111656222D01*
X143248160Y-112451180D01*
X143265338Y-112564333D01*
X143330047Y-113066116D01*
X143391056Y-113669042D01*
X143442349Y-114304936D01*
X143477912Y-114905623D01*
X143483406Y-115036122D01*
X143501325Y-115560413D01*
X143507987Y-115943729D01*
X143501810Y-116214151D01*
X143481210Y-116399761D01*
X143444602Y-116528640D01*
X143393872Y-116623622D01*
X143260735Y-116793392D01*
X143147906Y-116829460D01*
X143038157Y-116775203D01*
X142979097Y-116720989D01*
X142929464Y-116633172D01*
X142885308Y-116490282D01*
X142842677Y-116270849D01*
X142797622Y-115953401D01*
X142746191Y-115516468D01*
X142684434Y-114938579D01*
X142664108Y-114742323D01*
X142546133Y-113632673D01*
X142437733Y-112685872D01*
X142338100Y-111895750D01*
X142246425Y-111256142D01*
X142161903Y-110760879D01*
X142110430Y-110513503D01*
X142040797Y-110140055D01*
X142041047Y-109900088D01*
X142116532Y-109770530D01*
X142272604Y-109728307D01*
X142292636Y-109728000D01*
X142456025Y-109771494D01*
G37*
X142456025Y-109771494D02*
X142603547Y-109910032D01*
X142739345Y-110155693D01*
X142867563Y-110520559D01*
X142992343Y-111016708D01*
X143117827Y-111656222D01*
X143248160Y-112451180D01*
X143265338Y-112564333D01*
X143330047Y-113066116D01*
X143391056Y-113669042D01*
X143442349Y-114304936D01*
X143477912Y-114905623D01*
X143483406Y-115036122D01*
X143501325Y-115560413D01*
X143507987Y-115943729D01*
X143501810Y-116214151D01*
X143481210Y-116399761D01*
X143444602Y-116528640D01*
X143393872Y-116623622D01*
X143260735Y-116793392D01*
X143147906Y-116829460D01*
X143038157Y-116775203D01*
X142979097Y-116720989D01*
X142929464Y-116633172D01*
X142885308Y-116490282D01*
X142842677Y-116270849D01*
X142797622Y-115953401D01*
X142746191Y-115516468D01*
X142684434Y-114938579D01*
X142664108Y-114742323D01*
X142546133Y-113632673D01*
X142437733Y-112685872D01*
X142338100Y-111895750D01*
X142246425Y-111256142D01*
X142161903Y-110760879D01*
X142110430Y-110513503D01*
X142040797Y-110140055D01*
X142041047Y-109900088D01*
X142116532Y-109770530D01*
X142272604Y-109728307D01*
X142292636Y-109728000D01*
X142456025Y-109771494D01*
G36*
X153079909Y-97484802D02*
G01*
X153038163Y-97637069D01*
X152847509Y-97848445D01*
X152686306Y-97975239D01*
X152464822Y-98151837D01*
X152394861Y-98255146D01*
X152428328Y-98282275D01*
X152562921Y-98377321D01*
X152611996Y-98468373D01*
X152618714Y-98596197D01*
X152609010Y-98854935D01*
X152586163Y-99208919D01*
X152553449Y-99622480D01*
X152514147Y-100059950D01*
X152471533Y-100485660D01*
X152428885Y-100863941D01*
X152389480Y-101159126D01*
X152356596Y-101335544D01*
X152345822Y-101365163D01*
X152388548Y-101359309D01*
X152539483Y-101279801D01*
X152732485Y-101164356D01*
X152985553Y-101017892D01*
X153144859Y-100960812D01*
X153252301Y-100981162D01*
X153287423Y-101006024D01*
X153387139Y-101120799D01*
X153392749Y-101246605D01*
X153292318Y-101411179D01*
X153073907Y-101642258D01*
X152971500Y-101740104D01*
X152589494Y-102080824D01*
X152102376Y-102485523D01*
X151531496Y-102938812D01*
X150898201Y-103425302D01*
X150223840Y-103929604D01*
X149529762Y-104436329D01*
X148837315Y-104930087D01*
X148167849Y-105395489D01*
X147542711Y-105817147D01*
X146983251Y-106179671D01*
X146510818Y-106467672D01*
X146146758Y-106665761D01*
X146121299Y-106678052D01*
X145842283Y-106822578D01*
X145611124Y-106962717D01*
X145501418Y-107047152D01*
X145409244Y-107128811D01*
X145312630Y-107167809D01*
X145176601Y-107160021D01*
X144966181Y-107101322D01*
X144646391Y-106987586D01*
X144483666Y-106927119D01*
X144257902Y-106847614D01*
X143891463Y-106724312D01*
X143405299Y-106563919D01*
X142820359Y-106373146D01*
X142157594Y-106158699D01*
X141437955Y-105927288D01*
X140682392Y-105685619D01*
X139911854Y-105440403D01*
X139147292Y-105198346D01*
X138409657Y-104966157D01*
X137719898Y-104750545D01*
X137098966Y-104558217D01*
X136779564Y-104460269D01*
X136324566Y-104311822D01*
X136019969Y-104184930D01*
X135850313Y-104067024D01*
X135800142Y-103945536D01*
X135853995Y-103807897D01*
X135900892Y-103745875D01*
X136039555Y-103659435D01*
X136273202Y-103652406D01*
X136352383Y-103662057D01*
X136627052Y-103715446D01*
X137039825Y-103815283D01*
X137568061Y-103954775D01*
X138189116Y-104127131D01*
X138880349Y-104325558D01*
X139619117Y-104543266D01*
X140382779Y-104773463D01*
X141148691Y-105009357D01*
X141894213Y-105244156D01*
X142596701Y-105471070D01*
X143233514Y-105683305D01*
X143782009Y-105874071D01*
X144037382Y-105967212D01*
X144446338Y-106117369D01*
X144814486Y-106248317D01*
X145104084Y-106346917D01*
X145277389Y-106400029D01*
X145288000Y-106402591D01*
X145433580Y-106427212D01*
X145434744Y-106379642D01*
X145362204Y-106290150D01*
X145242139Y-106098893D01*
X145135226Y-105849795D01*
X145128270Y-105828727D01*
X145085708Y-105653458D01*
X145025453Y-105350714D01*
X144954247Y-104960580D01*
X144878827Y-104523141D01*
X144805934Y-104078484D01*
X144742307Y-103666695D01*
X144694686Y-103327859D01*
X144669810Y-103102063D01*
X144669786Y-103101734D01*
X144637407Y-103047347D01*
X144540671Y-102979921D01*
X144369608Y-102896076D01*
X144114243Y-102792429D01*
X143764607Y-102665598D01*
X143310727Y-102512200D01*
X142742630Y-102328853D01*
X142050345Y-102112176D01*
X141223901Y-101858786D01*
X140253324Y-101565301D01*
X139276666Y-101272555D01*
X138596796Y-101068794D01*
X137954228Y-100875077D01*
X137370630Y-100698021D01*
X136867669Y-100544245D01*
X136467013Y-100420367D01*
X136190330Y-100333005D01*
X136075417Y-100294790D01*
X135854813Y-100220685D01*
X135755769Y-100209067D01*
X135741753Y-100261758D01*
X135754610Y-100310795D01*
X135904869Y-100849138D01*
X136059374Y-101470628D01*
X136197876Y-102090859D01*
X136273348Y-102472987D01*
X136337522Y-102858283D01*
X136361493Y-103112167D01*
X136346606Y-103267384D01*
X136309055Y-103340820D01*
X136227202Y-103425802D01*
X136153107Y-103458568D01*
X136079681Y-103424296D01*
X135999836Y-103308164D01*
X135906482Y-103095350D01*
X135792530Y-102771030D01*
X135650891Y-102320384D01*
X135474477Y-101728587D01*
X135374278Y-101386315D01*
X135180894Y-100746608D01*
X135020266Y-100266318D01*
X134890082Y-99939203D01*
X134788031Y-99759018D01*
X134761739Y-99732014D01*
X134650107Y-99571069D01*
X134662566Y-99414813D01*
X134786842Y-99321264D01*
X134850176Y-99314042D01*
X135009527Y-99343109D01*
X135261258Y-99417980D01*
X135461655Y-99489169D01*
X135645974Y-99551798D01*
X135972152Y-99654609D01*
X136419217Y-99791311D01*
X136966199Y-99955610D01*
X137592124Y-100141214D01*
X138276022Y-100341829D01*
X138996922Y-100551164D01*
X139102322Y-100581592D01*
X140305452Y-100930660D01*
X141353978Y-101239286D01*
X142256998Y-101510328D01*
X143023612Y-101746641D01*
X143662919Y-101951083D01*
X144184018Y-102126512D01*
X144596007Y-102275783D01*
X144907988Y-102401754D01*
X144929811Y-102411313D01*
X145186175Y-102535066D01*
X145319493Y-102639236D01*
X145366559Y-102760140D01*
X145369071Y-102844901D01*
X145386184Y-103055890D01*
X145437564Y-103354323D01*
X145491027Y-103589666D01*
X145552305Y-103882788D01*
X145619512Y-104287389D01*
X145683816Y-104746261D01*
X145729100Y-105131556D01*
X145838333Y-106165445D01*
X147447000Y-104987996D01*
X148032600Y-104559473D01*
X148693020Y-104076369D01*
X149375433Y-103577315D01*
X150027014Y-103100943D01*
X150594939Y-102685884D01*
X150596265Y-102684916D01*
X151128005Y-102292117D01*
X151528042Y-101986321D01*
X151805221Y-101760079D01*
X151968383Y-101605946D01*
X152026374Y-101516474D01*
X152014431Y-101490768D01*
X151960776Y-101425624D01*
X151925279Y-101284104D01*
X151905198Y-101040215D01*
X151897790Y-100667964D01*
X151898180Y-100389292D01*
X151905954Y-99937860D01*
X151922319Y-99502075D01*
X151944762Y-99135639D01*
X151967057Y-98916595D01*
X151993871Y-98646442D01*
X151974047Y-98530275D01*
X151939710Y-98530627D01*
X151803124Y-98621974D01*
X151551023Y-98800015D01*
X151203467Y-99049991D01*
X150780518Y-99357143D01*
X150302235Y-99706710D01*
X149788679Y-100083934D01*
X149259912Y-100474054D01*
X148735993Y-100862312D01*
X148236983Y-101233947D01*
X147782944Y-101574200D01*
X147393935Y-101868312D01*
X147162319Y-102045574D01*
X146649183Y-102434716D01*
X146250179Y-102719727D01*
X145951181Y-102907037D01*
X145738064Y-103003078D01*
X145596703Y-103014279D01*
X145512972Y-102947073D01*
X145473644Y-102814384D01*
X145493062Y-102708444D01*
X145589437Y-102566628D01*
X145779694Y-102370400D01*
X146080752Y-102101225D01*
X146276889Y-101934525D01*
X146824182Y-101486574D01*
X147445037Y-100999248D01*
X148117055Y-100488461D01*
X148817840Y-99970127D01*
X149524994Y-99460162D01*
X150216121Y-98974478D01*
X150868823Y-98528990D01*
X151460703Y-98139612D01*
X151969363Y-97822259D01*
X152372406Y-97592845D01*
X152426813Y-97564745D01*
X152762723Y-97430430D01*
X152984259Y-97409853D01*
X153079909Y-97484802D01*
G37*
X153079909Y-97484802D02*
X153038163Y-97637069D01*
X152847509Y-97848445D01*
X152686306Y-97975239D01*
X152464822Y-98151837D01*
X152394861Y-98255146D01*
X152428328Y-98282275D01*
X152562921Y-98377321D01*
X152611996Y-98468373D01*
X152618714Y-98596197D01*
X152609010Y-98854935D01*
X152586163Y-99208919D01*
X152553449Y-99622480D01*
X152514147Y-100059950D01*
X152471533Y-100485660D01*
X152428885Y-100863941D01*
X152389480Y-101159126D01*
X152356596Y-101335544D01*
X152345822Y-101365163D01*
X152388548Y-101359309D01*
X152539483Y-101279801D01*
X152732485Y-101164356D01*
X152985553Y-101017892D01*
X153144859Y-100960812D01*
X153252301Y-100981162D01*
X153287423Y-101006024D01*
X153387139Y-101120799D01*
X153392749Y-101246605D01*
X153292318Y-101411179D01*
X153073907Y-101642258D01*
X152971500Y-101740104D01*
X152589494Y-102080824D01*
X152102376Y-102485523D01*
X151531496Y-102938812D01*
X150898201Y-103425302D01*
X150223840Y-103929604D01*
X149529762Y-104436329D01*
X148837315Y-104930087D01*
X148167849Y-105395489D01*
X147542711Y-105817147D01*
X146983251Y-106179671D01*
X146510818Y-106467672D01*
X146146758Y-106665761D01*
X146121299Y-106678052D01*
X145842283Y-106822578D01*
X145611124Y-106962717D01*
X145501418Y-107047152D01*
X145409244Y-107128811D01*
X145312630Y-107167809D01*
X145176601Y-107160021D01*
X144966181Y-107101322D01*
X144646391Y-106987586D01*
X144483666Y-106927119D01*
X144257902Y-106847614D01*
X143891463Y-106724312D01*
X143405299Y-106563919D01*
X142820359Y-106373146D01*
X142157594Y-106158699D01*
X141437955Y-105927288D01*
X140682392Y-105685619D01*
X139911854Y-105440403D01*
X139147292Y-105198346D01*
X138409657Y-104966157D01*
X137719898Y-104750545D01*
X137098966Y-104558217D01*
X136779564Y-104460269D01*
X136324566Y-104311822D01*
X136019969Y-104184930D01*
X135850313Y-104067024D01*
X135800142Y-103945536D01*
X135853995Y-103807897D01*
X135900892Y-103745875D01*
X136039555Y-103659435D01*
X136273202Y-103652406D01*
X136352383Y-103662057D01*
X136627052Y-103715446D01*
X137039825Y-103815283D01*
X137568061Y-103954775D01*
X138189116Y-104127131D01*
X138880349Y-104325558D01*
X139619117Y-104543266D01*
X140382779Y-104773463D01*
X141148691Y-105009357D01*
X141894213Y-105244156D01*
X142596701Y-105471070D01*
X143233514Y-105683305D01*
X143782009Y-105874071D01*
X144037382Y-105967212D01*
X144446338Y-106117369D01*
X144814486Y-106248317D01*
X145104084Y-106346917D01*
X145277389Y-106400029D01*
X145288000Y-106402591D01*
X145433580Y-106427212D01*
X145434744Y-106379642D01*
X145362204Y-106290150D01*
X145242139Y-106098893D01*
X145135226Y-105849795D01*
X145128270Y-105828727D01*
X145085708Y-105653458D01*
X145025453Y-105350714D01*
X144954247Y-104960580D01*
X144878827Y-104523141D01*
X144805934Y-104078484D01*
X144742307Y-103666695D01*
X144694686Y-103327859D01*
X144669810Y-103102063D01*
X144669786Y-103101734D01*
X144637407Y-103047347D01*
X144540671Y-102979921D01*
X144369608Y-102896076D01*
X144114243Y-102792429D01*
X143764607Y-102665598D01*
X143310727Y-102512200D01*
X142742630Y-102328853D01*
X142050345Y-102112176D01*
X141223901Y-101858786D01*
X140253324Y-101565301D01*
X139276666Y-101272555D01*
X138596796Y-101068794D01*
X137954228Y-100875077D01*
X137370630Y-100698021D01*
X136867669Y-100544245D01*
X136467013Y-100420367D01*
X136190330Y-100333005D01*
X136075417Y-100294790D01*
X135854813Y-100220685D01*
X135755769Y-100209067D01*
X135741753Y-100261758D01*
X135754610Y-100310795D01*
X135904869Y-100849138D01*
X136059374Y-101470628D01*
X136197876Y-102090859D01*
X136273348Y-102472987D01*
X136337522Y-102858283D01*
X136361493Y-103112167D01*
X136346606Y-103267384D01*
X136309055Y-103340820D01*
X136227202Y-103425802D01*
X136153107Y-103458568D01*
X136079681Y-103424296D01*
X135999836Y-103308164D01*
X135906482Y-103095350D01*
X135792530Y-102771030D01*
X135650891Y-102320384D01*
X135474477Y-101728587D01*
X135374278Y-101386315D01*
X135180894Y-100746608D01*
X135020266Y-100266318D01*
X134890082Y-99939203D01*
X134788031Y-99759018D01*
X134761739Y-99732014D01*
X134650107Y-99571069D01*
X134662566Y-99414813D01*
X134786842Y-99321264D01*
X134850176Y-99314042D01*
X135009527Y-99343109D01*
X135261258Y-99417980D01*
X135461655Y-99489169D01*
X135645974Y-99551798D01*
X135972152Y-99654609D01*
X136419217Y-99791311D01*
X136966199Y-99955610D01*
X137592124Y-100141214D01*
X138276022Y-100341829D01*
X138996922Y-100551164D01*
X139102322Y-100581592D01*
X140305452Y-100930660D01*
X141353978Y-101239286D01*
X142256998Y-101510328D01*
X143023612Y-101746641D01*
X143662919Y-101951083D01*
X144184018Y-102126512D01*
X144596007Y-102275783D01*
X144907988Y-102401754D01*
X144929811Y-102411313D01*
X145186175Y-102535066D01*
X145319493Y-102639236D01*
X145366559Y-102760140D01*
X145369071Y-102844901D01*
X145386184Y-103055890D01*
X145437564Y-103354323D01*
X145491027Y-103589666D01*
X145552305Y-103882788D01*
X145619512Y-104287389D01*
X145683816Y-104746261D01*
X145729100Y-105131556D01*
X145838333Y-106165445D01*
X147447000Y-104987996D01*
X148032600Y-104559473D01*
X148693020Y-104076369D01*
X149375433Y-103577315D01*
X150027014Y-103100943D01*
X150594939Y-102685884D01*
X150596265Y-102684916D01*
X151128005Y-102292117D01*
X151528042Y-101986321D01*
X151805221Y-101760079D01*
X151968383Y-101605946D01*
X152026374Y-101516474D01*
X152014431Y-101490768D01*
X151960776Y-101425624D01*
X151925279Y-101284104D01*
X151905198Y-101040215D01*
X151897790Y-100667964D01*
X151898180Y-100389292D01*
X151905954Y-99937860D01*
X151922319Y-99502075D01*
X151944762Y-99135639D01*
X151967057Y-98916595D01*
X151993871Y-98646442D01*
X151974047Y-98530275D01*
X151939710Y-98530627D01*
X151803124Y-98621974D01*
X151551023Y-98800015D01*
X151203467Y-99049991D01*
X150780518Y-99357143D01*
X150302235Y-99706710D01*
X149788679Y-100083934D01*
X149259912Y-100474054D01*
X148735993Y-100862312D01*
X148236983Y-101233947D01*
X147782944Y-101574200D01*
X147393935Y-101868312D01*
X147162319Y-102045574D01*
X146649183Y-102434716D01*
X146250179Y-102719727D01*
X145951181Y-102907037D01*
X145738064Y-103003078D01*
X145596703Y-103014279D01*
X145512972Y-102947073D01*
X145473644Y-102814384D01*
X145493062Y-102708444D01*
X145589437Y-102566628D01*
X145779694Y-102370400D01*
X146080752Y-102101225D01*
X146276889Y-101934525D01*
X146824182Y-101486574D01*
X147445037Y-100999248D01*
X148117055Y-100488461D01*
X148817840Y-99970127D01*
X149524994Y-99460162D01*
X150216121Y-98974478D01*
X150868823Y-98528990D01*
X151460703Y-98139612D01*
X151969363Y-97822259D01*
X152372406Y-97592845D01*
X152426813Y-97564745D01*
X152762723Y-97430430D01*
X152984259Y-97409853D01*
X153079909Y-97484802D01*
G36*
X140910757Y-102292387D02*
G01*
X140970000Y-102489771D01*
X141020179Y-102708073D01*
X141141782Y-102939641D01*
X141150071Y-102951083D01*
X141270972Y-103167754D01*
X141287842Y-103397098D01*
X141269556Y-103517595D01*
X141177896Y-103881394D01*
X141068497Y-104080475D01*
X140937874Y-104118852D01*
X140817600Y-104038400D01*
X140738095Y-103878788D01*
X140716000Y-103725532D01*
X140658802Y-103525301D01*
X140518439Y-103309569D01*
X140491616Y-103280059D01*
X140351584Y-103111469D01*
X140306129Y-102956507D01*
X140334641Y-102733322D01*
X140343449Y-102691569D01*
X140421606Y-102450417D01*
X140524005Y-102279486D01*
X140556325Y-102251501D01*
X140756806Y-102201176D01*
X140910757Y-102292387D01*
G37*
X140910757Y-102292387D02*
X140970000Y-102489771D01*
X141020179Y-102708073D01*
X141141782Y-102939641D01*
X141150071Y-102951083D01*
X141270972Y-103167754D01*
X141287842Y-103397098D01*
X141269556Y-103517595D01*
X141177896Y-103881394D01*
X141068497Y-104080475D01*
X140937874Y-104118852D01*
X140817600Y-104038400D01*
X140738095Y-103878788D01*
X140716000Y-103725532D01*
X140658802Y-103525301D01*
X140518439Y-103309569D01*
X140491616Y-103280059D01*
X140351584Y-103111469D01*
X140306129Y-102956507D01*
X140334641Y-102733322D01*
X140343449Y-102691569D01*
X140421606Y-102450417D01*
X140524005Y-102279486D01*
X140556325Y-102251501D01*
X140756806Y-102201176D01*
X140910757Y-102292387D01*
G36*
X138099171Y-101377425D02*
G01*
X138260057Y-101630405D01*
X138330974Y-101796759D01*
X138458752Y-102192890D01*
X138531558Y-102558950D01*
X138552248Y-102872709D01*
X138523679Y-103111936D01*
X138448710Y-103254399D01*
X138330196Y-103277869D01*
X138170996Y-103160113D01*
X138157668Y-103145166D01*
X137923683Y-102782788D01*
X137849173Y-102421725D01*
X137850828Y-102385839D01*
X137834328Y-102147905D01*
X137772260Y-101868331D01*
X137758271Y-101824129D01*
X137696185Y-101598432D01*
X137706569Y-101463604D01*
X137770529Y-101376518D01*
X137936240Y-101292980D01*
X138099171Y-101377425D01*
G37*
X138099171Y-101377425D02*
X138260057Y-101630405D01*
X138330974Y-101796759D01*
X138458752Y-102192890D01*
X138531558Y-102558950D01*
X138552248Y-102872709D01*
X138523679Y-103111936D01*
X138448710Y-103254399D01*
X138330196Y-103277869D01*
X138170996Y-103160113D01*
X138157668Y-103145166D01*
X137923683Y-102782788D01*
X137849173Y-102421725D01*
X137850828Y-102385839D01*
X137834328Y-102147905D01*
X137772260Y-101868331D01*
X137758271Y-101824129D01*
X137696185Y-101598432D01*
X137706569Y-101463604D01*
X137770529Y-101376518D01*
X137936240Y-101292980D01*
X138099171Y-101377425D01*
G36*
X136849749Y-97412176D02*
G01*
X136874688Y-97541456D01*
X136775109Y-97743631D01*
X136558962Y-98007826D01*
X136234194Y-98323167D01*
X135808754Y-98678780D01*
X135636000Y-98811908D01*
X135287320Y-99058732D01*
X135036947Y-99193362D01*
X134864374Y-99224258D01*
X134761111Y-99172888D01*
X134688530Y-98994118D01*
X134768814Y-98767304D01*
X134996337Y-98504028D01*
X135149166Y-98373651D01*
X135558296Y-98060851D01*
X135942965Y-97786659D01*
X136276960Y-97568180D01*
X136534065Y-97422520D01*
X136688067Y-97366786D01*
X136692344Y-97366666D01*
X136849749Y-97412176D01*
G37*
X136849749Y-97412176D02*
X136874688Y-97541456D01*
X136775109Y-97743631D01*
X136558962Y-98007826D01*
X136234194Y-98323167D01*
X135808754Y-98678780D01*
X135636000Y-98811908D01*
X135287320Y-99058732D01*
X135036947Y-99193362D01*
X134864374Y-99224258D01*
X134761111Y-99172888D01*
X134688530Y-98994118D01*
X134768814Y-98767304D01*
X134996337Y-98504028D01*
X135149166Y-98373651D01*
X135558296Y-98060851D01*
X135942965Y-97786659D01*
X136276960Y-97568180D01*
X136534065Y-97422520D01*
X136688067Y-97366786D01*
X136692344Y-97366666D01*
X136849749Y-97412176D01*
G36*
X142915779Y-89935472D02*
G01*
X143195614Y-89989434D01*
X143327330Y-90081297D01*
X143340666Y-90134562D01*
X143261406Y-90279480D01*
X143035680Y-90377592D01*
X142681572Y-90422064D01*
X142574810Y-90424000D01*
X142136488Y-90424000D01*
X142183622Y-90699166D01*
X142246671Y-91140141D01*
X142288615Y-91582603D01*
X142306482Y-91977544D01*
X142297301Y-92275956D01*
X142284441Y-92361734D01*
X142198961Y-92566999D01*
X142089777Y-92613921D01*
X141990102Y-92503636D01*
X141946483Y-92350166D01*
X141911271Y-92110495D01*
X141868975Y-91772972D01*
X141824882Y-91386650D01*
X141784279Y-91000581D01*
X141752452Y-90663819D01*
X141734689Y-90425416D01*
X141732694Y-90366547D01*
X141790242Y-90134983D01*
X141973080Y-89989662D01*
X142293365Y-89923262D01*
X142478880Y-89917156D01*
X142915779Y-89935472D01*
G37*
X142915779Y-89935472D02*
X143195614Y-89989434D01*
X143327330Y-90081297D01*
X143340666Y-90134562D01*
X143261406Y-90279480D01*
X143035680Y-90377592D01*
X142681572Y-90422064D01*
X142574810Y-90424000D01*
X142136488Y-90424000D01*
X142183622Y-90699166D01*
X142246671Y-91140141D01*
X142288615Y-91582603D01*
X142306482Y-91977544D01*
X142297301Y-92275956D01*
X142284441Y-92361734D01*
X142198961Y-92566999D01*
X142089777Y-92613921D01*
X141990102Y-92503636D01*
X141946483Y-92350166D01*
X141911271Y-92110495D01*
X141868975Y-91772972D01*
X141824882Y-91386650D01*
X141784279Y-91000581D01*
X141752452Y-90663819D01*
X141734689Y-90425416D01*
X141732694Y-90366547D01*
X141790242Y-90134983D01*
X141973080Y-89989662D01*
X142293365Y-89923262D01*
X142478880Y-89917156D01*
X142915779Y-89935472D01*
G36*
X145407368Y-90470370D02*
G01*
X145800168Y-90552021D01*
X146171274Y-90650727D01*
X146417290Y-90753512D01*
X146561169Y-90894818D01*
X146625868Y-91109084D01*
X146634340Y-91430754D01*
X146616753Y-91777218D01*
X146589577Y-92145194D01*
X146557644Y-92459893D01*
X146526020Y-92675378D01*
X146511320Y-92733129D01*
X146401681Y-92861671D01*
X146267143Y-92852114D01*
X146186058Y-92745408D01*
X146163372Y-92604870D01*
X146145805Y-92341073D01*
X146135925Y-92000072D01*
X146134666Y-91823688D01*
X146134666Y-91035893D01*
X145740236Y-90976744D01*
X145323395Y-90894727D01*
X145065091Y-90795525D01*
X144955006Y-90674684D01*
X144949333Y-90635104D01*
X144994198Y-90508711D01*
X145140848Y-90454388D01*
X145407368Y-90470370D01*
G37*
X145407368Y-90470370D02*
X145800168Y-90552021D01*
X146171274Y-90650727D01*
X146417290Y-90753512D01*
X146561169Y-90894818D01*
X146625868Y-91109084D01*
X146634340Y-91430754D01*
X146616753Y-91777218D01*
X146589577Y-92145194D01*
X146557644Y-92459893D01*
X146526020Y-92675378D01*
X146511320Y-92733129D01*
X146401681Y-92861671D01*
X146267143Y-92852114D01*
X146186058Y-92745408D01*
X146163372Y-92604870D01*
X146145805Y-92341073D01*
X146135925Y-92000072D01*
X146134666Y-91823688D01*
X146134666Y-91035893D01*
X145740236Y-90976744D01*
X145323395Y-90894727D01*
X145065091Y-90795525D01*
X144955006Y-90674684D01*
X144949333Y-90635104D01*
X144994198Y-90508711D01*
X145140848Y-90454388D01*
X145407368Y-90470370D01*
G36*
X145180304Y-96281464D02*
G01*
X145309592Y-96378386D01*
X145357493Y-96500502D01*
X145333146Y-96660964D01*
X145239394Y-96957371D01*
X145082536Y-97374198D01*
X144868868Y-97895921D01*
X144604687Y-98507016D01*
X144296290Y-99191956D01*
X144053196Y-99716166D01*
X143856649Y-100125015D01*
X143709760Y-100401144D01*
X143596906Y-100568077D01*
X143502466Y-100649338D01*
X143420620Y-100668666D01*
X143296292Y-100647245D01*
X143265634Y-100549883D01*
X143287813Y-100403763D01*
X143343599Y-100216260D01*
X143457200Y-99902689D01*
X143616995Y-99491421D01*
X143811358Y-99010829D01*
X144028665Y-98489284D01*
X144257294Y-97955158D01*
X144485620Y-97436823D01*
X144664872Y-97042599D01*
X144845241Y-96668770D01*
X144980290Y-96431584D01*
X145084715Y-96309345D01*
X145173206Y-96280355D01*
X145180304Y-96281464D01*
G37*
X145180304Y-96281464D02*
X145309592Y-96378386D01*
X145357493Y-96500502D01*
X145333146Y-96660964D01*
X145239394Y-96957371D01*
X145082536Y-97374198D01*
X144868868Y-97895921D01*
X144604687Y-98507016D01*
X144296290Y-99191956D01*
X144053196Y-99716166D01*
X143856649Y-100125015D01*
X143709760Y-100401144D01*
X143596906Y-100568077D01*
X143502466Y-100649338D01*
X143420620Y-100668666D01*
X143296292Y-100647245D01*
X143265634Y-100549883D01*
X143287813Y-100403763D01*
X143343599Y-100216260D01*
X143457200Y-99902689D01*
X143616995Y-99491421D01*
X143811358Y-99010829D01*
X144028665Y-98489284D01*
X144257294Y-97955158D01*
X144485620Y-97436823D01*
X144664872Y-97042599D01*
X144845241Y-96668770D01*
X144980290Y-96431584D01*
X145084715Y-96309345D01*
X145173206Y-96280355D01*
X145180304Y-96281464D01*
G36*
X138831814Y-93949986D02*
G01*
X138909767Y-94000148D01*
X138946913Y-94073558D01*
X138938788Y-94197211D01*
X138877646Y-94397839D01*
X138755740Y-94702174D01*
X138608304Y-95040425D01*
X138405804Y-95511251D01*
X138177439Y-96065352D01*
X137954189Y-96626498D01*
X137800561Y-97028000D01*
X137613386Y-97518519D01*
X137468341Y-97867135D01*
X137354081Y-98092609D01*
X137259259Y-98213705D01*
X137172530Y-98249187D01*
X137082548Y-98217816D01*
X137081485Y-98217161D01*
X137018126Y-98150540D01*
X137003034Y-98030251D01*
X137035346Y-97812851D01*
X137070215Y-97648723D01*
X137185773Y-97203487D01*
X137343018Y-96704718D01*
X137530538Y-96178981D01*
X137736925Y-95652842D01*
X137950768Y-95152866D01*
X138160656Y-94705617D01*
X138355179Y-94337662D01*
X138522927Y-94075566D01*
X138652491Y-93945893D01*
X138662598Y-93941350D01*
X138831814Y-93949986D01*
G37*
X138831814Y-93949986D02*
X138909767Y-94000148D01*
X138946913Y-94073558D01*
X138938788Y-94197211D01*
X138877646Y-94397839D01*
X138755740Y-94702174D01*
X138608304Y-95040425D01*
X138405804Y-95511251D01*
X138177439Y-96065352D01*
X137954189Y-96626498D01*
X137800561Y-97028000D01*
X137613386Y-97518519D01*
X137468341Y-97867135D01*
X137354081Y-98092609D01*
X137259259Y-98213705D01*
X137172530Y-98249187D01*
X137082548Y-98217816D01*
X137081485Y-98217161D01*
X137018126Y-98150540D01*
X137003034Y-98030251D01*
X137035346Y-97812851D01*
X137070215Y-97648723D01*
X137185773Y-97203487D01*
X137343018Y-96704718D01*
X137530538Y-96178981D01*
X137736925Y-95652842D01*
X137950768Y-95152866D01*
X138160656Y-94705617D01*
X138355179Y-94337662D01*
X138522927Y-94075566D01*
X138652491Y-93945893D01*
X138662598Y-93941350D01*
X138831814Y-93949986D01*
G36*
X146045829Y-95944861D02*
G01*
X146188551Y-96046823D01*
X146206073Y-96075500D01*
X146305683Y-96306222D01*
X146432619Y-96659399D01*
X146577599Y-97102581D01*
X146731339Y-97603321D01*
X146884557Y-98129169D01*
X147027970Y-98647675D01*
X147152295Y-99126390D01*
X147248249Y-99532867D01*
X147306550Y-99834654D01*
X147320000Y-99969338D01*
X147297069Y-100166016D01*
X147211421Y-100240302D01*
X147156749Y-100245333D01*
X147036754Y-100194233D01*
X146921760Y-100023454D01*
X146821033Y-99784376D01*
X146716311Y-99485159D01*
X146579141Y-99059500D01*
X146406816Y-98498558D01*
X146196631Y-97793496D01*
X145945881Y-96935474D01*
X145890610Y-96744683D01*
X145813293Y-96440602D01*
X145769217Y-96191430D01*
X145767472Y-96049173D01*
X145768509Y-96046183D01*
X145880640Y-95942962D01*
X146045829Y-95944861D01*
G37*
X146045829Y-95944861D02*
X146188551Y-96046823D01*
X146206073Y-96075500D01*
X146305683Y-96306222D01*
X146432619Y-96659399D01*
X146577599Y-97102581D01*
X146731339Y-97603321D01*
X146884557Y-98129169D01*
X147027970Y-98647675D01*
X147152295Y-99126390D01*
X147248249Y-99532867D01*
X147306550Y-99834654D01*
X147320000Y-99969338D01*
X147297069Y-100166016D01*
X147211421Y-100240302D01*
X147156749Y-100245333D01*
X147036754Y-100194233D01*
X146921760Y-100023454D01*
X146821033Y-99784376D01*
X146716311Y-99485159D01*
X146579141Y-99059500D01*
X146406816Y-98498558D01*
X146196631Y-97793496D01*
X145945881Y-96935474D01*
X145890610Y-96744683D01*
X145813293Y-96440602D01*
X145769217Y-96191430D01*
X145767472Y-96049173D01*
X145768509Y-96046183D01*
X145880640Y-95942962D01*
X146045829Y-95944861D01*
G36*
X139356985Y-94832812D02*
G01*
X139398562Y-94865886D01*
X139426227Y-94947844D01*
X139441583Y-95100641D01*
X139446228Y-95346234D01*
X139441765Y-95706578D01*
X139429794Y-96203629D01*
X139421806Y-96498833D01*
X139401684Y-97150341D01*
X139379765Y-97651233D01*
X139353481Y-98020223D01*
X139320259Y-98276027D01*
X139277529Y-98437361D01*
X139222721Y-98522938D01*
X139153263Y-98551475D01*
X139139791Y-98552000D01*
X139092403Y-98521193D01*
X139059165Y-98413799D01*
X139037914Y-98207354D01*
X139026484Y-97879394D01*
X139022708Y-97407458D01*
X139022666Y-97337107D01*
X139026723Y-96831398D01*
X139037808Y-96321386D01*
X139054292Y-95862497D01*
X139074545Y-95510162D01*
X139077423Y-95474440D01*
X139110226Y-95144171D01*
X139147273Y-94948949D01*
X139200282Y-94854650D01*
X139280973Y-94827155D01*
X139299897Y-94826666D01*
X139356985Y-94832812D01*
G37*
X139356985Y-94832812D02*
X139398562Y-94865886D01*
X139426227Y-94947844D01*
X139441583Y-95100641D01*
X139446228Y-95346234D01*
X139441765Y-95706578D01*
X139429794Y-96203629D01*
X139421806Y-96498833D01*
X139401684Y-97150341D01*
X139379765Y-97651233D01*
X139353481Y-98020223D01*
X139320259Y-98276027D01*
X139277529Y-98437361D01*
X139222721Y-98522938D01*
X139153263Y-98551475D01*
X139139791Y-98552000D01*
X139092403Y-98521193D01*
X139059165Y-98413799D01*
X139037914Y-98207354D01*
X139026484Y-97879394D01*
X139022708Y-97407458D01*
X139022666Y-97337107D01*
X139026723Y-96831398D01*
X139037808Y-96321386D01*
X139054292Y-95862497D01*
X139074545Y-95510162D01*
X139077423Y-95474440D01*
X139110226Y-95144171D01*
X139147273Y-94948949D01*
X139200282Y-94854650D01*
X139280973Y-94827155D01*
X139299897Y-94826666D01*
X139356985Y-94832812D01*
G36*
X144596288Y-90219308D02*
G01*
X144610666Y-90289473D01*
X144536439Y-90438967D01*
X144323892Y-90646372D01*
X143988228Y-90898151D01*
X143753888Y-91052382D01*
X143383000Y-91286969D01*
X143440609Y-92439434D01*
X143458806Y-92865983D01*
X143468504Y-93231372D01*
X143469265Y-93502536D01*
X143460650Y-93646406D01*
X143456779Y-93658949D01*
X143338326Y-93728161D01*
X143194926Y-93673483D01*
X143092163Y-93528791D01*
X143062785Y-93373580D01*
X143034921Y-93086806D01*
X143011337Y-92706237D01*
X142994795Y-92269636D01*
X142992231Y-92163141D01*
X142967278Y-90994701D01*
X143664152Y-90582350D01*
X144062879Y-90355910D01*
X144340326Y-90223270D01*
X144512720Y-90179410D01*
X144596288Y-90219308D01*
G37*
X144596288Y-90219308D02*
X144610666Y-90289473D01*
X144536439Y-90438967D01*
X144323892Y-90646372D01*
X143988228Y-90898151D01*
X143753888Y-91052382D01*
X143383000Y-91286969D01*
X143440609Y-92439434D01*
X143458806Y-92865983D01*
X143468504Y-93231372D01*
X143469265Y-93502536D01*
X143460650Y-93646406D01*
X143456779Y-93658949D01*
X143338326Y-93728161D01*
X143194926Y-93673483D01*
X143092163Y-93528791D01*
X143062785Y-93373580D01*
X143034921Y-93086806D01*
X143011337Y-92706237D01*
X142994795Y-92269636D01*
X142992231Y-92163141D01*
X142967278Y-90994701D01*
X143664152Y-90582350D01*
X144062879Y-90355910D01*
X144340326Y-90223270D01*
X144512720Y-90179410D01*
X144596288Y-90219308D01*
G36*
X149259724Y-93536629D02*
G01*
X149476413Y-93720839D01*
X149768016Y-94010116D01*
X150120290Y-94389945D01*
X150518990Y-94845810D01*
X150752333Y-95123000D01*
X151171559Y-95638904D01*
X151478244Y-96043518D01*
X151678686Y-96346178D01*
X151779184Y-96556218D01*
X151791906Y-96663581D01*
X151721208Y-96806202D01*
X151585602Y-96812570D01*
X151377747Y-96679827D01*
X151090298Y-96405113D01*
X151068216Y-96381777D01*
X150747060Y-96030983D01*
X150391858Y-95627044D01*
X150030213Y-95202981D01*
X149689727Y-94791817D01*
X149398002Y-94426574D01*
X149182639Y-94140273D01*
X149125952Y-94058122D01*
X148990255Y-93792656D01*
X148966921Y-93593112D01*
X149055686Y-93484522D01*
X149132194Y-93472000D01*
X149259724Y-93536629D01*
G37*
X149259724Y-93536629D02*
X149476413Y-93720839D01*
X149768016Y-94010116D01*
X150120290Y-94389945D01*
X150518990Y-94845810D01*
X150752333Y-95123000D01*
X151171559Y-95638904D01*
X151478244Y-96043518D01*
X151678686Y-96346178D01*
X151779184Y-96556218D01*
X151791906Y-96663581D01*
X151721208Y-96806202D01*
X151585602Y-96812570D01*
X151377747Y-96679827D01*
X151090298Y-96405113D01*
X151068216Y-96381777D01*
X150747060Y-96030983D01*
X150391858Y-95627044D01*
X150030213Y-95202981D01*
X149689727Y-94791817D01*
X149398002Y-94426574D01*
X149182639Y-94140273D01*
X149125952Y-94058122D01*
X148990255Y-93792656D01*
X148966921Y-93593112D01*
X149055686Y-93484522D01*
X149132194Y-93472000D01*
X149259724Y-93536629D01*
G36*
X139610789Y-93399693D02*
G01*
X140030380Y-93491983D01*
X140582367Y-93628696D01*
X141257161Y-93807316D01*
X142045176Y-94025324D01*
X142936823Y-94280203D01*
X143922515Y-94569435D01*
X144671864Y-94793563D01*
X145622061Y-95079848D01*
X146394668Y-94611360D01*
X146911367Y-94307151D01*
X147403551Y-94034265D01*
X147847692Y-93804349D01*
X148220265Y-93629047D01*
X148497740Y-93520003D01*
X148656592Y-93488865D01*
X148661068Y-93489575D01*
X148787807Y-93562979D01*
X148765769Y-93698751D01*
X148599459Y-93887302D01*
X148399887Y-94045360D01*
X148134535Y-94225360D01*
X147793202Y-94441533D01*
X147404830Y-94677295D01*
X146998361Y-94916062D01*
X146602738Y-95141248D01*
X146246901Y-95336270D01*
X145959793Y-95484544D01*
X145770356Y-95569483D01*
X145716208Y-95583179D01*
X145590146Y-95562921D01*
X145332075Y-95510878D01*
X144974825Y-95434013D01*
X144551227Y-95339292D01*
X144356666Y-95294763D01*
X143785885Y-95157624D01*
X143160008Y-94997651D01*
X142505769Y-94822588D01*
X141849902Y-94640179D01*
X141219139Y-94458171D01*
X140640214Y-94284305D01*
X140139860Y-94126328D01*
X139744812Y-93991984D01*
X139481802Y-93889017D01*
X139446000Y-93872180D01*
X139176236Y-93705070D01*
X139073793Y-93552174D01*
X139137487Y-93410948D01*
X139207144Y-93358459D01*
X139333181Y-93354346D01*
X139610789Y-93399693D01*
G37*
X139610789Y-93399693D02*
X140030380Y-93491983D01*
X140582367Y-93628696D01*
X141257161Y-93807316D01*
X142045176Y-94025324D01*
X142936823Y-94280203D01*
X143922515Y-94569435D01*
X144671864Y-94793563D01*
X145622061Y-95079848D01*
X146394668Y-94611360D01*
X146911367Y-94307151D01*
X147403551Y-94034265D01*
X147847692Y-93804349D01*
X148220265Y-93629047D01*
X148497740Y-93520003D01*
X148656592Y-93488865D01*
X148661068Y-93489575D01*
X148787807Y-93562979D01*
X148765769Y-93698751D01*
X148599459Y-93887302D01*
X148399887Y-94045360D01*
X148134535Y-94225360D01*
X147793202Y-94441533D01*
X147404830Y-94677295D01*
X146998361Y-94916062D01*
X146602738Y-95141248D01*
X146246901Y-95336270D01*
X145959793Y-95484544D01*
X145770356Y-95569483D01*
X145716208Y-95583179D01*
X145590146Y-95562921D01*
X145332075Y-95510878D01*
X144974825Y-95434013D01*
X144551227Y-95339292D01*
X144356666Y-95294763D01*
X143785885Y-95157624D01*
X143160008Y-94997651D01*
X142505769Y-94822588D01*
X141849902Y-94640179D01*
X141219139Y-94458171D01*
X140640214Y-94284305D01*
X140139860Y-94126328D01*
X139744812Y-93991984D01*
X139481802Y-93889017D01*
X139446000Y-93872180D01*
X139176236Y-93705070D01*
X139073793Y-93552174D01*
X139137487Y-93410948D01*
X139207144Y-93358459D01*
X139333181Y-93354346D01*
X139610789Y-93399693D01*
D11*
%TO.C,K6*%
X117475000Y-109728000D02*
X117475000Y-107950000D01*
X117475000Y-120650000D02*
X117475000Y-118872000D01*
X119253000Y-120650000D02*
X117475000Y-120650000D01*
X130175000Y-120650000D02*
X128397000Y-120650000D01*
X130175000Y-118872000D02*
X130175000Y-120650000D01*
X130175000Y-107950000D02*
X130175000Y-109728000D01*
X128397000Y-107950000D02*
X130175000Y-107950000D01*
X117475000Y-107950000D02*
X119253000Y-107950000D01*
%TO.C,K5*%
X117475000Y-88900000D02*
X119253000Y-88900000D01*
X128397000Y-88900000D02*
X130175000Y-88900000D01*
X130175000Y-88900000D02*
X130175000Y-90678000D01*
X130175000Y-99822000D02*
X130175000Y-101600000D01*
X130175000Y-101600000D02*
X128397000Y-101600000D01*
X119253000Y-101600000D02*
X117475000Y-101600000D01*
X117475000Y-101600000D02*
X117475000Y-99822000D01*
X117475000Y-90678000D02*
X117475000Y-88900000D01*
%TO.C,K4*%
X98425000Y-107950000D02*
X100203000Y-107950000D01*
X109347000Y-107950000D02*
X111125000Y-107950000D01*
X111125000Y-107950000D02*
X111125000Y-109728000D01*
X111125000Y-118872000D02*
X111125000Y-120650000D01*
X111125000Y-120650000D02*
X109347000Y-120650000D01*
X100203000Y-120650000D02*
X98425000Y-120650000D01*
X98425000Y-120650000D02*
X98425000Y-118872000D01*
X98425000Y-109728000D02*
X98425000Y-107950000D01*
%TO.C,K1*%
X79375000Y-90678000D02*
X79375000Y-88900000D01*
X79375000Y-101600000D02*
X79375000Y-99822000D01*
X81153000Y-101600000D02*
X79375000Y-101600000D01*
X92075000Y-101600000D02*
X90297000Y-101600000D01*
X92075000Y-99822000D02*
X92075000Y-101600000D01*
X92075000Y-88900000D02*
X92075000Y-90678000D01*
X90297000Y-88900000D02*
X92075000Y-88900000D01*
X79375000Y-88900000D02*
X81153000Y-88900000D01*
%TO.C,K2*%
X79375000Y-109728000D02*
X79375000Y-107950000D01*
X79375000Y-120650000D02*
X79375000Y-118872000D01*
X81153000Y-120650000D02*
X79375000Y-120650000D01*
X92075000Y-120650000D02*
X90297000Y-120650000D01*
X92075000Y-118872000D02*
X92075000Y-120650000D01*
X92075000Y-107950000D02*
X92075000Y-109728000D01*
X90297000Y-107950000D02*
X92075000Y-107950000D01*
X79375000Y-107950000D02*
X81153000Y-107950000D01*
%TO.C,K3*%
X98425000Y-88900000D02*
X100203000Y-88900000D01*
X109347000Y-88900000D02*
X111125000Y-88900000D01*
X111125000Y-88900000D02*
X111125000Y-90678000D01*
X111125000Y-99822000D02*
X111125000Y-101600000D01*
X111125000Y-101600000D02*
X109347000Y-101600000D01*
X100203000Y-101600000D02*
X98425000Y-101600000D01*
X98425000Y-101600000D02*
X98425000Y-99822000D01*
X98425000Y-90678000D02*
X98425000Y-88900000D01*
%TO.C,*%
D12*
%TD*%
M02*
