%TF.GenerationSoftware,KiCad,Pcbnew,(5.1.6)-1*%
%TF.CreationDate,2020-07-25T03:11:20-04:00*%
%TF.ProjectId,myfirstKeyboard,6d796669-7273-4744-9b65-79626f617264,rev?*%
%TF.SameCoordinates,Original*%
%TF.FileFunction,Soldermask,Top*%
%TF.FilePolarity,Negative*%
%FSLAX46Y46*%
G04 Gerber Fmt 4.6, Leading zero omitted, Abs format (unit mm)*
G04 Created by KiCad (PCBNEW (5.1.6)-1) date 2020-07-25 03:11:20*
%MOMM*%
%LPD*%
G01*
G04 APERTURE LIST*
%ADD10R,1.700000X1.700000*%
%ADD11C,1.700000*%
%ADD12O,1.600000X4.100000*%
G04 APERTURE END LIST*
%TO.C,K6*%
G36*
G01*
X118869129Y-111030326D02*
X120078053Y-109132696D01*
G75*
G02*
X121872951Y-108734776I1096409J-698489D01*
G01*
X121872951Y-108734776D01*
G75*
G02*
X122270871Y-110529674I-698489J-1096409D01*
G01*
X121061947Y-112427304D01*
G75*
G02*
X119267049Y-112825224I-1096409J698489D01*
G01*
X119267049Y-112825224D01*
G75*
G02*
X118869129Y-111030326I698489J1096409D01*
G01*
G37*
G36*
G01*
X125028286Y-109710909D02*
X125067734Y-109132252D01*
G75*
G02*
X126453144Y-107923682I1296990J-88420D01*
G01*
X126453144Y-107923682D01*
G75*
G02*
X127661714Y-109309092I-88420J-1296990D01*
G01*
X127622266Y-109887748D01*
G75*
G02*
X126236856Y-111096318I-1296990J88420D01*
G01*
X126236856Y-111096318D01*
G75*
G02*
X125028286Y-109710908I88420J1296990D01*
G01*
G37*
%TD*%
%TO.C,K5*%
G36*
G01*
X125028286Y-90660909D02*
X125067734Y-90082252D01*
G75*
G02*
X126453144Y-88873682I1296990J-88420D01*
G01*
X126453144Y-88873682D01*
G75*
G02*
X127661714Y-90259092I-88420J-1296990D01*
G01*
X127622266Y-90837748D01*
G75*
G02*
X126236856Y-92046318I-1296990J88420D01*
G01*
X126236856Y-92046318D01*
G75*
G02*
X125028286Y-90660908I88420J1296990D01*
G01*
G37*
G36*
G01*
X118869129Y-91980326D02*
X120078053Y-90082696D01*
G75*
G02*
X121872951Y-89684776I1096409J-698489D01*
G01*
X121872951Y-89684776D01*
G75*
G02*
X122270871Y-91479674I-698489J-1096409D01*
G01*
X121061947Y-93377304D01*
G75*
G02*
X119267049Y-93775224I-1096409J698489D01*
G01*
X119267049Y-93775224D01*
G75*
G02*
X118869129Y-91980326I698489J1096409D01*
G01*
G37*
%TD*%
%TO.C,K4*%
G36*
G01*
X99819129Y-111030326D02*
X101028053Y-109132696D01*
G75*
G02*
X102822951Y-108734776I1096409J-698489D01*
G01*
X102822951Y-108734776D01*
G75*
G02*
X103220871Y-110529674I-698489J-1096409D01*
G01*
X102011947Y-112427304D01*
G75*
G02*
X100217049Y-112825224I-1096409J698489D01*
G01*
X100217049Y-112825224D01*
G75*
G02*
X99819129Y-111030326I698489J1096409D01*
G01*
G37*
G36*
G01*
X105978286Y-109710909D02*
X106017734Y-109132252D01*
G75*
G02*
X107403144Y-107923682I1296990J-88420D01*
G01*
X107403144Y-107923682D01*
G75*
G02*
X108611714Y-109309092I-88420J-1296990D01*
G01*
X108572266Y-109887748D01*
G75*
G02*
X107186856Y-111096318I-1296990J88420D01*
G01*
X107186856Y-111096318D01*
G75*
G02*
X105978286Y-109710908I88420J1296990D01*
G01*
G37*
%TD*%
%TO.C,K1*%
G36*
G01*
X86928286Y-90660909D02*
X86967734Y-90082252D01*
G75*
G02*
X88353144Y-88873682I1296990J-88420D01*
G01*
X88353144Y-88873682D01*
G75*
G02*
X89561714Y-90259092I-88420J-1296990D01*
G01*
X89522266Y-90837748D01*
G75*
G02*
X88136856Y-92046318I-1296990J88420D01*
G01*
X88136856Y-92046318D01*
G75*
G02*
X86928286Y-90660908I88420J1296990D01*
G01*
G37*
G36*
G01*
X80769129Y-91980326D02*
X81978053Y-90082696D01*
G75*
G02*
X83772951Y-89684776I1096409J-698489D01*
G01*
X83772951Y-89684776D01*
G75*
G02*
X84170871Y-91479674I-698489J-1096409D01*
G01*
X82961947Y-93377304D01*
G75*
G02*
X81167049Y-93775224I-1096409J698489D01*
G01*
X81167049Y-93775224D01*
G75*
G02*
X80769129Y-91980326I698489J1096409D01*
G01*
G37*
%TD*%
%TO.C,K2*%
G36*
G01*
X86928286Y-109710909D02*
X86967734Y-109132252D01*
G75*
G02*
X88353144Y-107923682I1296990J-88420D01*
G01*
X88353144Y-107923682D01*
G75*
G02*
X89561714Y-109309092I-88420J-1296990D01*
G01*
X89522266Y-109887748D01*
G75*
G02*
X88136856Y-111096318I-1296990J88420D01*
G01*
X88136856Y-111096318D01*
G75*
G02*
X86928286Y-109710908I88420J1296990D01*
G01*
G37*
G36*
G01*
X80769129Y-111030326D02*
X81978053Y-109132696D01*
G75*
G02*
X83772951Y-108734776I1096409J-698489D01*
G01*
X83772951Y-108734776D01*
G75*
G02*
X84170871Y-110529674I-698489J-1096409D01*
G01*
X82961947Y-112427304D01*
G75*
G02*
X81167049Y-112825224I-1096409J698489D01*
G01*
X81167049Y-112825224D01*
G75*
G02*
X80769129Y-111030326I698489J1096409D01*
G01*
G37*
%TD*%
D10*
%TO.C,D1*%
X81825000Y-100012500D03*
D11*
X89625000Y-100012500D03*
%TD*%
%TO.C,D2*%
X89625000Y-119062500D03*
D10*
X81825000Y-119062500D03*
%TD*%
D11*
%TO.C,D3*%
X108675000Y-100330000D03*
D10*
X100875000Y-100330000D03*
%TD*%
%TO.C,D4*%
X100875000Y-119062500D03*
D11*
X108675000Y-119062500D03*
%TD*%
D12*
%TO.C,J1*%
X107375000Y-84976000D03*
X114675000Y-84976000D03*
%TD*%
%TO.C,K3*%
G36*
G01*
X99819129Y-91980326D02*
X101028053Y-90082696D01*
G75*
G02*
X102822951Y-89684776I1096409J-698489D01*
G01*
X102822951Y-89684776D01*
G75*
G02*
X103220871Y-91479674I-698489J-1096409D01*
G01*
X102011947Y-93377304D01*
G75*
G02*
X100217049Y-93775224I-1096409J698489D01*
G01*
X100217049Y-93775224D01*
G75*
G02*
X99819129Y-91980326I698489J1096409D01*
G01*
G37*
G36*
G01*
X105978286Y-90660909D02*
X106017734Y-90082252D01*
G75*
G02*
X107403144Y-88873682I1296990J-88420D01*
G01*
X107403144Y-88873682D01*
G75*
G02*
X108611714Y-90259092I-88420J-1296990D01*
G01*
X108572266Y-90837748D01*
G75*
G02*
X107186856Y-92046318I-1296990J88420D01*
G01*
X107186856Y-92046318D01*
G75*
G02*
X105978286Y-90660908I88420J1296990D01*
G01*
G37*
%TD*%
D11*
%TO.C,D5*%
X127725000Y-100012500D03*
D10*
X119925000Y-100012500D03*
%TD*%
%TO.C,D6*%
X119925000Y-119380000D03*
D11*
X127725000Y-119380000D03*
%TD*%
M02*
