%TF.GenerationSoftware,KiCad,Pcbnew,(5.1.6)-1*%
%TF.CreationDate,2020-07-25T03:11:20-04:00*%
%TF.ProjectId,myfirstKeyboard,6d796669-7273-4744-9b65-79626f617264,rev?*%
%TF.SameCoordinates,Original*%
%TF.FileFunction,Legend,Bot*%
%TF.FilePolarity,Positive*%
%FSLAX46Y46*%
G04 Gerber Fmt 4.6, Leading zero omitted, Abs format (unit mm)*
G04 Created by KiCad (PCBNEW (5.1.6)-1) date 2020-07-25 03:11:20*
%MOMM*%
%LPD*%
G01*
G04 APERTURE LIST*
%ADD10C,0.300000*%
%ADD11C,0.150000*%
%ADD12C,0.120000*%
%ADD13C,0.200000*%
%ADD14C,0.304800*%
%ADD15C,0.203200*%
G04 APERTURE END LIST*
D10*
X71568571Y-98374285D02*
X71568571Y-98088571D01*
X71640000Y-97945714D01*
X71711428Y-97874285D01*
X71925714Y-97731428D01*
X72211428Y-97660000D01*
X72782857Y-97660000D01*
X72925714Y-97731428D01*
X72997142Y-97802857D01*
X73068571Y-97945714D01*
X73068571Y-98231428D01*
X72997142Y-98374285D01*
X72925714Y-98445714D01*
X72782857Y-98517142D01*
X72425714Y-98517142D01*
X72282857Y-98445714D01*
X72211428Y-98374285D01*
X72140000Y-98231428D01*
X72140000Y-97945714D01*
X72211428Y-97802857D01*
X72282857Y-97731428D01*
X72425714Y-97660000D01*
X73068571Y-99160000D02*
X71568571Y-99160000D01*
X73068571Y-100017142D02*
X72211428Y-99374285D01*
X71568571Y-100017142D02*
X72425714Y-99160000D01*
X73068571Y-101802857D02*
X71568571Y-101802857D01*
X72640000Y-102302857D01*
X71568571Y-102802857D01*
X73068571Y-102802857D01*
X73068571Y-104160000D02*
X72282857Y-104160000D01*
X72140000Y-104088571D01*
X72068571Y-103945714D01*
X72068571Y-103660000D01*
X72140000Y-103517142D01*
X72997142Y-104160000D02*
X73068571Y-104017142D01*
X73068571Y-103660000D01*
X72997142Y-103517142D01*
X72854285Y-103445714D01*
X72711428Y-103445714D01*
X72568571Y-103517142D01*
X72497142Y-103660000D01*
X72497142Y-104017142D01*
X72425714Y-104160000D01*
X72997142Y-105517142D02*
X73068571Y-105374285D01*
X73068571Y-105088571D01*
X72997142Y-104945714D01*
X72925714Y-104874285D01*
X72782857Y-104802857D01*
X72354285Y-104802857D01*
X72211428Y-104874285D01*
X72140000Y-104945714D01*
X72068571Y-105088571D01*
X72068571Y-105374285D01*
X72140000Y-105517142D01*
X73068571Y-106160000D02*
X72068571Y-106160000D01*
X72354285Y-106160000D02*
X72211428Y-106231428D01*
X72140000Y-106302857D01*
X72068571Y-106445714D01*
X72068571Y-106588571D01*
X73068571Y-107302857D02*
X72997142Y-107160000D01*
X72925714Y-107088571D01*
X72782857Y-107017142D01*
X72354285Y-107017142D01*
X72211428Y-107088571D01*
X72140000Y-107160000D01*
X72068571Y-107302857D01*
X72068571Y-107517142D01*
X72140000Y-107660000D01*
X72211428Y-107731428D01*
X72354285Y-107802857D01*
X72782857Y-107802857D01*
X72925714Y-107731428D01*
X72997142Y-107660000D01*
X73068571Y-107517142D01*
X73068571Y-107302857D01*
X73068571Y-109588571D02*
X71568571Y-109588571D01*
X71568571Y-110160000D01*
X71640000Y-110302857D01*
X71711428Y-110374285D01*
X71854285Y-110445714D01*
X72068571Y-110445714D01*
X72211428Y-110374285D01*
X72282857Y-110302857D01*
X72354285Y-110160000D01*
X72354285Y-109588571D01*
X73068571Y-111731428D02*
X72282857Y-111731428D01*
X72140000Y-111660000D01*
X72068571Y-111517142D01*
X72068571Y-111231428D01*
X72140000Y-111088571D01*
X72997142Y-111731428D02*
X73068571Y-111588571D01*
X73068571Y-111231428D01*
X72997142Y-111088571D01*
X72854285Y-111017142D01*
X72711428Y-111017142D01*
X72568571Y-111088571D01*
X72497142Y-111231428D01*
X72497142Y-111588571D01*
X72425714Y-111731428D01*
X73068571Y-113088571D02*
X71568571Y-113088571D01*
X72997142Y-113088571D02*
X73068571Y-112945714D01*
X73068571Y-112660000D01*
X72997142Y-112517142D01*
X72925714Y-112445714D01*
X72782857Y-112374285D01*
X72354285Y-112374285D01*
X72211428Y-112445714D01*
X72140000Y-112517142D01*
X72068571Y-112660000D01*
X72068571Y-112945714D01*
X72140000Y-113088571D01*
X148101428Y-125622857D02*
X147601428Y-125622857D01*
X147387142Y-126408571D02*
X148101428Y-126408571D01*
X148101428Y-124908571D01*
X147387142Y-124908571D01*
X146744285Y-126408571D02*
X146744285Y-125408571D01*
X146744285Y-125694285D02*
X146672857Y-125551428D01*
X146601428Y-125480000D01*
X146458571Y-125408571D01*
X146315714Y-125408571D01*
X145815714Y-126408571D02*
X145815714Y-125408571D01*
X145815714Y-124908571D02*
X145887142Y-124980000D01*
X145815714Y-125051428D01*
X145744285Y-124980000D01*
X145815714Y-124908571D01*
X145815714Y-125051428D01*
X144458571Y-126337142D02*
X144601428Y-126408571D01*
X144887142Y-126408571D01*
X145030000Y-126337142D01*
X145101428Y-126265714D01*
X145172857Y-126122857D01*
X145172857Y-125694285D01*
X145101428Y-125551428D01*
X145030000Y-125480000D01*
X144887142Y-125408571D01*
X144601428Y-125408571D01*
X144458571Y-125480000D01*
X141958571Y-126408571D02*
X142672857Y-126408571D01*
X142672857Y-124908571D01*
X141458571Y-126408571D02*
X141458571Y-125408571D01*
X141458571Y-124908571D02*
X141530000Y-124980000D01*
X141458571Y-125051428D01*
X141387142Y-124980000D01*
X141458571Y-124908571D01*
X141458571Y-125051428D01*
D11*
%TO.C,U1*%
X140367000Y-115188750D02*
X140367000Y-114613750D01*
X150717000Y-115188750D02*
X150717000Y-114513750D01*
X150717000Y-104838750D02*
X150717000Y-105513750D01*
X140367000Y-104838750D02*
X140367000Y-105513750D01*
X140367000Y-115188750D02*
X141042000Y-115188750D01*
X140367000Y-104838750D02*
X141042000Y-104838750D01*
X150717000Y-104838750D02*
X150042000Y-104838750D01*
X150717000Y-115188750D02*
X150042000Y-115188750D01*
X140367000Y-114613750D02*
X139092000Y-114613750D01*
D12*
%TO.C,C1*%
X141807221Y-95186687D02*
X142176687Y-94817221D01*
X142811313Y-96190779D02*
X143180779Y-95821313D01*
%TO.C,C2*%
X151586000Y-99067252D02*
X151586000Y-98544748D01*
X150166000Y-99067252D02*
X150166000Y-98544748D01*
%TO.C,C3*%
X136196000Y-106932252D02*
X136196000Y-106409748D01*
X137616000Y-106932252D02*
X137616000Y-106409748D01*
%TO.C,C4*%
X140931995Y-99033903D02*
X140562529Y-98664437D01*
X139927903Y-100037995D02*
X139558437Y-99668529D01*
%TO.C,C5*%
X152960000Y-105916252D02*
X152960000Y-105393748D01*
X154380000Y-105916252D02*
X154380000Y-105393748D01*
%TO.C,C6*%
X139196068Y-119399120D02*
X139718572Y-119399120D01*
X139196068Y-117979120D02*
X139718572Y-117979120D01*
%TO.C,C7*%
X150614748Y-118670000D02*
X151137252Y-118670000D01*
X150614748Y-120090000D02*
X151137252Y-120090000D01*
%TO.C,C8*%
X136196000Y-114283748D02*
X136196000Y-114806252D01*
X137616000Y-114283748D02*
X137616000Y-114806252D01*
D13*
%TO.C,D1*%
X83450000Y-101212500D02*
X83450000Y-98812500D01*
X83275000Y-101212500D02*
X83275000Y-98812500D01*
X83100000Y-101212500D02*
X83100000Y-98812500D01*
X82700000Y-98812500D02*
X82700000Y-101212500D01*
X82925000Y-101212500D02*
X82925000Y-98812500D01*
X82800000Y-101212500D02*
X82800000Y-98812500D01*
X82725000Y-101212500D02*
X88525000Y-101212500D01*
X88525000Y-101212500D02*
X88525000Y-98812500D01*
X88525000Y-98812500D02*
X82725000Y-98812500D01*
%TO.C,D2*%
X88525000Y-117862500D02*
X82725000Y-117862500D01*
X88525000Y-120262500D02*
X88525000Y-117862500D01*
X82725000Y-120262500D02*
X88525000Y-120262500D01*
X82800000Y-120262500D02*
X82800000Y-117862500D01*
X82925000Y-120262500D02*
X82925000Y-117862500D01*
X82700000Y-117862500D02*
X82700000Y-120262500D01*
X83100000Y-120262500D02*
X83100000Y-117862500D01*
X83275000Y-120262500D02*
X83275000Y-117862500D01*
X83450000Y-120262500D02*
X83450000Y-117862500D01*
%TO.C,D3*%
X107575000Y-99130000D02*
X101775000Y-99130000D01*
X107575000Y-101530000D02*
X107575000Y-99130000D01*
X101775000Y-101530000D02*
X107575000Y-101530000D01*
X101850000Y-101530000D02*
X101850000Y-99130000D01*
X101975000Y-101530000D02*
X101975000Y-99130000D01*
X101750000Y-99130000D02*
X101750000Y-101530000D01*
X102150000Y-101530000D02*
X102150000Y-99130000D01*
X102325000Y-101530000D02*
X102325000Y-99130000D01*
X102500000Y-101530000D02*
X102500000Y-99130000D01*
%TO.C,D4*%
X102500000Y-120262500D02*
X102500000Y-117862500D01*
X102325000Y-120262500D02*
X102325000Y-117862500D01*
X102150000Y-120262500D02*
X102150000Y-117862500D01*
X101750000Y-117862500D02*
X101750000Y-120262500D01*
X101975000Y-120262500D02*
X101975000Y-117862500D01*
X101850000Y-120262500D02*
X101850000Y-117862500D01*
X101775000Y-120262500D02*
X107575000Y-120262500D01*
X107575000Y-120262500D02*
X107575000Y-117862500D01*
X107575000Y-117862500D02*
X101775000Y-117862500D01*
%TO.C,J1*%
X114875000Y-87776000D02*
X114875000Y-81276000D01*
X107175000Y-87776000D02*
X107175000Y-81276000D01*
X107175000Y-87776000D02*
X114875000Y-87776000D01*
D12*
%TO.C,R1*%
X118380252Y-104446000D02*
X117857748Y-104446000D01*
X118380252Y-105866000D02*
X117857748Y-105866000D01*
%TO.C,R2*%
X136981000Y-87011252D02*
X136981000Y-86488748D01*
X135561000Y-87011252D02*
X135561000Y-86488748D01*
%TO.C,R3*%
X123950252Y-104342000D02*
X123427748Y-104342000D01*
X123950252Y-102922000D02*
X123427748Y-102922000D01*
%TO.C,R4*%
X152960000Y-115323252D02*
X152960000Y-114800748D01*
X154380000Y-115323252D02*
X154380000Y-114800748D01*
%TO.C,RESET*%
X144423000Y-89417000D02*
X143973000Y-89867000D01*
X141023000Y-89417000D02*
X141473000Y-89867000D01*
X141023000Y-84817000D02*
X141473000Y-84367000D01*
X144423000Y-84817000D02*
X143973000Y-84367000D01*
X139973000Y-86117000D02*
X139973000Y-88117000D01*
X143973000Y-89867000D02*
X141473000Y-89867000D01*
X145473000Y-86117000D02*
X145473000Y-88117000D01*
X143973000Y-84367000D02*
X141473000Y-84367000D01*
D13*
%TO.C,D5*%
X121550000Y-101212500D02*
X121550000Y-98812500D01*
X121375000Y-101212500D02*
X121375000Y-98812500D01*
X121200000Y-101212500D02*
X121200000Y-98812500D01*
X120800000Y-98812500D02*
X120800000Y-101212500D01*
X121025000Y-101212500D02*
X121025000Y-98812500D01*
X120900000Y-101212500D02*
X120900000Y-98812500D01*
X120825000Y-101212500D02*
X126625000Y-101212500D01*
X126625000Y-101212500D02*
X126625000Y-98812500D01*
X126625000Y-98812500D02*
X120825000Y-98812500D01*
%TO.C,D6*%
X126625000Y-118180000D02*
X120825000Y-118180000D01*
X126625000Y-120580000D02*
X126625000Y-118180000D01*
X120825000Y-120580000D02*
X126625000Y-120580000D01*
X120900000Y-120580000D02*
X120900000Y-118180000D01*
X121025000Y-120580000D02*
X121025000Y-118180000D01*
X120800000Y-118180000D02*
X120800000Y-120580000D01*
X121200000Y-120580000D02*
X121200000Y-118180000D01*
X121375000Y-120580000D02*
X121375000Y-118180000D01*
X121550000Y-120580000D02*
X121550000Y-118180000D01*
D12*
%TO.C,Y1*%
X142077177Y-98778553D02*
X145895553Y-94960177D01*
X145188447Y-101889823D02*
X142077177Y-98778553D01*
%TO.C,U1*%
D11*
X152426420Y-108757815D02*
X153235944Y-108757815D01*
X153331182Y-108805434D01*
X153378801Y-108853053D01*
X153426420Y-108948291D01*
X153426420Y-109138767D01*
X153378801Y-109234005D01*
X153331182Y-109281624D01*
X153235944Y-109329243D01*
X152426420Y-109329243D01*
X153426420Y-110329243D02*
X153426420Y-109757815D01*
X153426420Y-110043529D02*
X152426420Y-110043529D01*
X152569278Y-109948291D01*
X152664516Y-109853053D01*
X152712135Y-109757815D01*
%TO.C,K6*%
D13*
X124563095Y-119070380D02*
X124563095Y-118070380D01*
X123991666Y-119070380D02*
X124420238Y-118498952D01*
X123991666Y-118070380D02*
X124563095Y-118641809D01*
X123134523Y-118070380D02*
X123325000Y-118070380D01*
X123420238Y-118118000D01*
X123467857Y-118165619D01*
X123563095Y-118308476D01*
X123610714Y-118498952D01*
X123610714Y-118879904D01*
X123563095Y-118975142D01*
X123515476Y-119022761D01*
X123420238Y-119070380D01*
X123229761Y-119070380D01*
X123134523Y-119022761D01*
X123086904Y-118975142D01*
X123039285Y-118879904D01*
X123039285Y-118641809D01*
X123086904Y-118546571D01*
X123134523Y-118498952D01*
X123229761Y-118451333D01*
X123420238Y-118451333D01*
X123515476Y-118498952D01*
X123563095Y-118546571D01*
X123610714Y-118641809D01*
D14*
X116259428Y-111687428D02*
X114735428Y-111687428D01*
X115678857Y-111832571D02*
X116259428Y-112268000D01*
X115243428Y-112268000D02*
X115824000Y-111687428D01*
X116259428Y-113138857D02*
X116186857Y-112993714D01*
X116041714Y-112921142D01*
X114735428Y-112921142D01*
X116259428Y-114372571D02*
X115461142Y-114372571D01*
X115316000Y-114300000D01*
X115243428Y-114154857D01*
X115243428Y-113864571D01*
X115316000Y-113719428D01*
X116186857Y-114372571D02*
X116259428Y-114227428D01*
X116259428Y-113864571D01*
X116186857Y-113719428D01*
X116041714Y-113646857D01*
X115896571Y-113646857D01*
X115751428Y-113719428D01*
X115678857Y-113864571D01*
X115678857Y-114227428D01*
X115606285Y-114372571D01*
X116186857Y-115751428D02*
X116259428Y-115606285D01*
X116259428Y-115316000D01*
X116186857Y-115170857D01*
X116114285Y-115098285D01*
X115969142Y-115025714D01*
X115533714Y-115025714D01*
X115388571Y-115098285D01*
X115316000Y-115170857D01*
X115243428Y-115316000D01*
X115243428Y-115606285D01*
X115316000Y-115751428D01*
X116259428Y-116404571D02*
X114735428Y-116404571D01*
X115678857Y-116549714D02*
X116259428Y-116985142D01*
X115243428Y-116985142D02*
X115824000Y-116404571D01*
%TO.C,K5*%
D13*
X124563095Y-100020380D02*
X124563095Y-99020380D01*
X123991666Y-100020380D02*
X124420238Y-99448952D01*
X123991666Y-99020380D02*
X124563095Y-99591809D01*
X123086904Y-99020380D02*
X123563095Y-99020380D01*
X123610714Y-99496571D01*
X123563095Y-99448952D01*
X123467857Y-99401333D01*
X123229761Y-99401333D01*
X123134523Y-99448952D01*
X123086904Y-99496571D01*
X123039285Y-99591809D01*
X123039285Y-99829904D01*
X123086904Y-99925142D01*
X123134523Y-99972761D01*
X123229761Y-100020380D01*
X123467857Y-100020380D01*
X123563095Y-99972761D01*
X123610714Y-99925142D01*
D14*
X116259428Y-92637428D02*
X114735428Y-92637428D01*
X115678857Y-92782571D02*
X116259428Y-93218000D01*
X115243428Y-93218000D02*
X115824000Y-92637428D01*
X116259428Y-94088857D02*
X116186857Y-93943714D01*
X116041714Y-93871142D01*
X114735428Y-93871142D01*
X116259428Y-95322571D02*
X115461142Y-95322571D01*
X115316000Y-95250000D01*
X115243428Y-95104857D01*
X115243428Y-94814571D01*
X115316000Y-94669428D01*
X116186857Y-95322571D02*
X116259428Y-95177428D01*
X116259428Y-94814571D01*
X116186857Y-94669428D01*
X116041714Y-94596857D01*
X115896571Y-94596857D01*
X115751428Y-94669428D01*
X115678857Y-94814571D01*
X115678857Y-95177428D01*
X115606285Y-95322571D01*
X116186857Y-96701428D02*
X116259428Y-96556285D01*
X116259428Y-96266000D01*
X116186857Y-96120857D01*
X116114285Y-96048285D01*
X115969142Y-95975714D01*
X115533714Y-95975714D01*
X115388571Y-96048285D01*
X115316000Y-96120857D01*
X115243428Y-96266000D01*
X115243428Y-96556285D01*
X115316000Y-96701428D01*
X116259428Y-97354571D02*
X114735428Y-97354571D01*
X115678857Y-97499714D02*
X116259428Y-97935142D01*
X115243428Y-97935142D02*
X115824000Y-97354571D01*
%TO.C,K4*%
D13*
X105513095Y-119070380D02*
X105513095Y-118070380D01*
X104941666Y-119070380D02*
X105370238Y-118498952D01*
X104941666Y-118070380D02*
X105513095Y-118641809D01*
X104084523Y-118403714D02*
X104084523Y-119070380D01*
X104322619Y-118022761D02*
X104560714Y-118737047D01*
X103941666Y-118737047D01*
D14*
X97209428Y-111687428D02*
X95685428Y-111687428D01*
X96628857Y-111832571D02*
X97209428Y-112268000D01*
X96193428Y-112268000D02*
X96774000Y-111687428D01*
X97209428Y-113138857D02*
X97136857Y-112993714D01*
X96991714Y-112921142D01*
X95685428Y-112921142D01*
X97209428Y-114372571D02*
X96411142Y-114372571D01*
X96266000Y-114300000D01*
X96193428Y-114154857D01*
X96193428Y-113864571D01*
X96266000Y-113719428D01*
X97136857Y-114372571D02*
X97209428Y-114227428D01*
X97209428Y-113864571D01*
X97136857Y-113719428D01*
X96991714Y-113646857D01*
X96846571Y-113646857D01*
X96701428Y-113719428D01*
X96628857Y-113864571D01*
X96628857Y-114227428D01*
X96556285Y-114372571D01*
X97136857Y-115751428D02*
X97209428Y-115606285D01*
X97209428Y-115316000D01*
X97136857Y-115170857D01*
X97064285Y-115098285D01*
X96919142Y-115025714D01*
X96483714Y-115025714D01*
X96338571Y-115098285D01*
X96266000Y-115170857D01*
X96193428Y-115316000D01*
X96193428Y-115606285D01*
X96266000Y-115751428D01*
X97209428Y-116404571D02*
X95685428Y-116404571D01*
X96628857Y-116549714D02*
X97209428Y-116985142D01*
X96193428Y-116985142D02*
X96774000Y-116404571D01*
%TO.C,K1*%
D13*
X86463095Y-100020380D02*
X86463095Y-99020380D01*
X85891666Y-100020380D02*
X86320238Y-99448952D01*
X85891666Y-99020380D02*
X86463095Y-99591809D01*
X84939285Y-100020380D02*
X85510714Y-100020380D01*
X85225000Y-100020380D02*
X85225000Y-99020380D01*
X85320238Y-99163238D01*
X85415476Y-99258476D01*
X85510714Y-99306095D01*
D14*
X78159428Y-92637428D02*
X76635428Y-92637428D01*
X77578857Y-92782571D02*
X78159428Y-93218000D01*
X77143428Y-93218000D02*
X77724000Y-92637428D01*
X78159428Y-94088857D02*
X78086857Y-93943714D01*
X77941714Y-93871142D01*
X76635428Y-93871142D01*
X78159428Y-95322571D02*
X77361142Y-95322571D01*
X77216000Y-95250000D01*
X77143428Y-95104857D01*
X77143428Y-94814571D01*
X77216000Y-94669428D01*
X78086857Y-95322571D02*
X78159428Y-95177428D01*
X78159428Y-94814571D01*
X78086857Y-94669428D01*
X77941714Y-94596857D01*
X77796571Y-94596857D01*
X77651428Y-94669428D01*
X77578857Y-94814571D01*
X77578857Y-95177428D01*
X77506285Y-95322571D01*
X78086857Y-96701428D02*
X78159428Y-96556285D01*
X78159428Y-96266000D01*
X78086857Y-96120857D01*
X78014285Y-96048285D01*
X77869142Y-95975714D01*
X77433714Y-95975714D01*
X77288571Y-96048285D01*
X77216000Y-96120857D01*
X77143428Y-96266000D01*
X77143428Y-96556285D01*
X77216000Y-96701428D01*
X78159428Y-97354571D02*
X76635428Y-97354571D01*
X77578857Y-97499714D02*
X78159428Y-97935142D01*
X77143428Y-97935142D02*
X77724000Y-97354571D01*
%TO.C,K2*%
D13*
X86463095Y-119070380D02*
X86463095Y-118070380D01*
X85891666Y-119070380D02*
X86320238Y-118498952D01*
X85891666Y-118070380D02*
X86463095Y-118641809D01*
X85510714Y-118165619D02*
X85463095Y-118118000D01*
X85367857Y-118070380D01*
X85129761Y-118070380D01*
X85034523Y-118118000D01*
X84986904Y-118165619D01*
X84939285Y-118260857D01*
X84939285Y-118356095D01*
X84986904Y-118498952D01*
X85558333Y-119070380D01*
X84939285Y-119070380D01*
D14*
X78159428Y-111687428D02*
X76635428Y-111687428D01*
X77578857Y-111832571D02*
X78159428Y-112268000D01*
X77143428Y-112268000D02*
X77724000Y-111687428D01*
X78159428Y-113138857D02*
X78086857Y-112993714D01*
X77941714Y-112921142D01*
X76635428Y-112921142D01*
X78159428Y-114372571D02*
X77361142Y-114372571D01*
X77216000Y-114300000D01*
X77143428Y-114154857D01*
X77143428Y-113864571D01*
X77216000Y-113719428D01*
X78086857Y-114372571D02*
X78159428Y-114227428D01*
X78159428Y-113864571D01*
X78086857Y-113719428D01*
X77941714Y-113646857D01*
X77796571Y-113646857D01*
X77651428Y-113719428D01*
X77578857Y-113864571D01*
X77578857Y-114227428D01*
X77506285Y-114372571D01*
X78086857Y-115751428D02*
X78159428Y-115606285D01*
X78159428Y-115316000D01*
X78086857Y-115170857D01*
X78014285Y-115098285D01*
X77869142Y-115025714D01*
X77433714Y-115025714D01*
X77288571Y-115098285D01*
X77216000Y-115170857D01*
X77143428Y-115316000D01*
X77143428Y-115606285D01*
X77216000Y-115751428D01*
X78159428Y-116404571D02*
X76635428Y-116404571D01*
X77578857Y-116549714D02*
X78159428Y-116985142D01*
X77143428Y-116985142D02*
X77724000Y-116404571D01*
%TO.C,C1*%
D11*
X144833681Y-93669395D02*
X144901024Y-93669395D01*
X145035711Y-93602051D01*
X145103055Y-93534708D01*
X145170398Y-93400020D01*
X145170398Y-93265333D01*
X145136727Y-93164318D01*
X145035711Y-92995959D01*
X144934696Y-92894944D01*
X144766337Y-92793929D01*
X144665322Y-92760257D01*
X144530635Y-92760257D01*
X144395948Y-92827601D01*
X144328604Y-92894944D01*
X144261261Y-93029631D01*
X144261261Y-93096975D01*
X144227589Y-94410173D02*
X144631650Y-94006112D01*
X144429620Y-94208143D02*
X143722513Y-93501036D01*
X143890872Y-93534708D01*
X144025559Y-93534708D01*
X144126574Y-93501036D01*
%TO.C,C2*%
X151360142Y-101687333D02*
X151407761Y-101639714D01*
X151455380Y-101496857D01*
X151455380Y-101401619D01*
X151407761Y-101258761D01*
X151312523Y-101163523D01*
X151217285Y-101115904D01*
X151026809Y-101068285D01*
X150883952Y-101068285D01*
X150693476Y-101115904D01*
X150598238Y-101163523D01*
X150503000Y-101258761D01*
X150455380Y-101401619D01*
X150455380Y-101496857D01*
X150503000Y-101639714D01*
X150550619Y-101687333D01*
X150550619Y-102068285D02*
X150503000Y-102115904D01*
X150455380Y-102211142D01*
X150455380Y-102449238D01*
X150503000Y-102544476D01*
X150550619Y-102592095D01*
X150645857Y-102639714D01*
X150741095Y-102639714D01*
X150883952Y-102592095D01*
X151455380Y-102020666D01*
X151455380Y-102639714D01*
%TO.C,C3*%
X137263142Y-103574333D02*
X137310761Y-103526714D01*
X137358380Y-103383857D01*
X137358380Y-103288619D01*
X137310761Y-103145761D01*
X137215523Y-103050523D01*
X137120285Y-103002904D01*
X136929809Y-102955285D01*
X136786952Y-102955285D01*
X136596476Y-103002904D01*
X136501238Y-103050523D01*
X136406000Y-103145761D01*
X136358380Y-103288619D01*
X136358380Y-103383857D01*
X136406000Y-103526714D01*
X136453619Y-103574333D01*
X136358380Y-103907666D02*
X136358380Y-104526714D01*
X136739333Y-104193380D01*
X136739333Y-104336238D01*
X136786952Y-104431476D01*
X136834571Y-104479095D01*
X136929809Y-104526714D01*
X137167904Y-104526714D01*
X137263142Y-104479095D01*
X137310761Y-104431476D01*
X137358380Y-104336238D01*
X137358380Y-104050523D01*
X137310761Y-103955285D01*
X137263142Y-103907666D01*
%TO.C,C4*%
X137025312Y-98160389D02*
X137025312Y-98227732D01*
X137092656Y-98362419D01*
X137160000Y-98429763D01*
X137294687Y-98497106D01*
X137429374Y-98497106D01*
X137530389Y-98463435D01*
X137698748Y-98362419D01*
X137799763Y-98261404D01*
X137900778Y-98093045D01*
X137934450Y-97992030D01*
X137934450Y-97857343D01*
X137867106Y-97722656D01*
X137799763Y-97655312D01*
X137665076Y-97587969D01*
X137597732Y-97587969D01*
X136823282Y-97150236D02*
X136351877Y-97621641D01*
X137261015Y-97049221D02*
X136924297Y-97722656D01*
X136486564Y-97284923D01*
%TO.C,C5*%
X154027142Y-102703333D02*
X154074761Y-102655714D01*
X154122380Y-102512857D01*
X154122380Y-102417619D01*
X154074761Y-102274761D01*
X153979523Y-102179523D01*
X153884285Y-102131904D01*
X153693809Y-102084285D01*
X153550952Y-102084285D01*
X153360476Y-102131904D01*
X153265238Y-102179523D01*
X153170000Y-102274761D01*
X153122380Y-102417619D01*
X153122380Y-102512857D01*
X153170000Y-102655714D01*
X153217619Y-102703333D01*
X153122380Y-103608095D02*
X153122380Y-103131904D01*
X153598571Y-103084285D01*
X153550952Y-103131904D01*
X153503333Y-103227142D01*
X153503333Y-103465238D01*
X153550952Y-103560476D01*
X153598571Y-103608095D01*
X153693809Y-103655714D01*
X153931904Y-103655714D01*
X154027142Y-103608095D01*
X154074761Y-103560476D01*
X154122380Y-103465238D01*
X154122380Y-103227142D01*
X154074761Y-103131904D01*
X154027142Y-103084285D01*
%TO.C,C6*%
X136737386Y-119010702D02*
X136785005Y-119058321D01*
X136927862Y-119105940D01*
X137023100Y-119105940D01*
X137165958Y-119058321D01*
X137261196Y-118963083D01*
X137308815Y-118867845D01*
X137356434Y-118677369D01*
X137356434Y-118534512D01*
X137308815Y-118344036D01*
X137261196Y-118248798D01*
X137165958Y-118153560D01*
X137023100Y-118105940D01*
X136927862Y-118105940D01*
X136785005Y-118153560D01*
X136737386Y-118201179D01*
X135880243Y-118105940D02*
X136070720Y-118105940D01*
X136165958Y-118153560D01*
X136213577Y-118201179D01*
X136308815Y-118344036D01*
X136356434Y-118534512D01*
X136356434Y-118915464D01*
X136308815Y-119010702D01*
X136261196Y-119058321D01*
X136165958Y-119105940D01*
X135975481Y-119105940D01*
X135880243Y-119058321D01*
X135832624Y-119010702D01*
X135785005Y-118915464D01*
X135785005Y-118677369D01*
X135832624Y-118582131D01*
X135880243Y-118534512D01*
X135975481Y-118486893D01*
X136165958Y-118486893D01*
X136261196Y-118534512D01*
X136308815Y-118582131D01*
X136356434Y-118677369D01*
%TO.C,C7*%
X153892546Y-119864142D02*
X153940165Y-119911761D01*
X154083022Y-119959380D01*
X154178260Y-119959380D01*
X154321118Y-119911761D01*
X154416356Y-119816523D01*
X154463975Y-119721285D01*
X154511594Y-119530809D01*
X154511594Y-119387952D01*
X154463975Y-119197476D01*
X154416356Y-119102238D01*
X154321118Y-119007000D01*
X154178260Y-118959380D01*
X154083022Y-118959380D01*
X153940165Y-119007000D01*
X153892546Y-119054619D01*
X153559213Y-118959380D02*
X152892546Y-118959380D01*
X153321118Y-119959380D01*
%TO.C,C8*%
X134786666Y-115927142D02*
X134834285Y-115974761D01*
X134977142Y-116022380D01*
X135072380Y-116022380D01*
X135215238Y-115974761D01*
X135310476Y-115879523D01*
X135358095Y-115784285D01*
X135405714Y-115593809D01*
X135405714Y-115450952D01*
X135358095Y-115260476D01*
X135310476Y-115165238D01*
X135215238Y-115070000D01*
X135072380Y-115022380D01*
X134977142Y-115022380D01*
X134834285Y-115070000D01*
X134786666Y-115117619D01*
X134215238Y-115450952D02*
X134310476Y-115403333D01*
X134358095Y-115355714D01*
X134405714Y-115260476D01*
X134405714Y-115212857D01*
X134358095Y-115117619D01*
X134310476Y-115070000D01*
X134215238Y-115022380D01*
X134024761Y-115022380D01*
X133929523Y-115070000D01*
X133881904Y-115117619D01*
X133834285Y-115212857D01*
X133834285Y-115260476D01*
X133881904Y-115355714D01*
X133929523Y-115403333D01*
X134024761Y-115450952D01*
X134215238Y-115450952D01*
X134310476Y-115498571D01*
X134358095Y-115546190D01*
X134405714Y-115641428D01*
X134405714Y-115831904D01*
X134358095Y-115927142D01*
X134310476Y-115974761D01*
X134215238Y-116022380D01*
X134024761Y-116022380D01*
X133929523Y-115974761D01*
X133881904Y-115927142D01*
X133834285Y-115831904D01*
X133834285Y-115641428D01*
X133881904Y-115546190D01*
X133929523Y-115498571D01*
X134024761Y-115450952D01*
%TO.C,D1*%
X86315476Y-98449404D02*
X86315476Y-97649404D01*
X86125000Y-97649404D01*
X86010714Y-97687500D01*
X85934523Y-97763690D01*
X85896428Y-97839880D01*
X85858333Y-97992261D01*
X85858333Y-98106547D01*
X85896428Y-98258928D01*
X85934523Y-98335119D01*
X86010714Y-98411309D01*
X86125000Y-98449404D01*
X86315476Y-98449404D01*
X85096428Y-98449404D02*
X85553571Y-98449404D01*
X85325000Y-98449404D02*
X85325000Y-97649404D01*
X85401190Y-97763690D01*
X85477380Y-97839880D01*
X85553571Y-97877976D01*
%TO.C,D2*%
X86315476Y-117499404D02*
X86315476Y-116699404D01*
X86125000Y-116699404D01*
X86010714Y-116737500D01*
X85934523Y-116813690D01*
X85896428Y-116889880D01*
X85858333Y-117042261D01*
X85858333Y-117156547D01*
X85896428Y-117308928D01*
X85934523Y-117385119D01*
X86010714Y-117461309D01*
X86125000Y-117499404D01*
X86315476Y-117499404D01*
X85553571Y-116775595D02*
X85515476Y-116737500D01*
X85439285Y-116699404D01*
X85248809Y-116699404D01*
X85172619Y-116737500D01*
X85134523Y-116775595D01*
X85096428Y-116851785D01*
X85096428Y-116927976D01*
X85134523Y-117042261D01*
X85591666Y-117499404D01*
X85096428Y-117499404D01*
%TO.C,D3*%
X105365476Y-98766904D02*
X105365476Y-97966904D01*
X105175000Y-97966904D01*
X105060714Y-98005000D01*
X104984523Y-98081190D01*
X104946428Y-98157380D01*
X104908333Y-98309761D01*
X104908333Y-98424047D01*
X104946428Y-98576428D01*
X104984523Y-98652619D01*
X105060714Y-98728809D01*
X105175000Y-98766904D01*
X105365476Y-98766904D01*
X104641666Y-97966904D02*
X104146428Y-97966904D01*
X104413095Y-98271666D01*
X104298809Y-98271666D01*
X104222619Y-98309761D01*
X104184523Y-98347857D01*
X104146428Y-98424047D01*
X104146428Y-98614523D01*
X104184523Y-98690714D01*
X104222619Y-98728809D01*
X104298809Y-98766904D01*
X104527380Y-98766904D01*
X104603571Y-98728809D01*
X104641666Y-98690714D01*
%TO.C,D4*%
X105365476Y-117499404D02*
X105365476Y-116699404D01*
X105175000Y-116699404D01*
X105060714Y-116737500D01*
X104984523Y-116813690D01*
X104946428Y-116889880D01*
X104908333Y-117042261D01*
X104908333Y-117156547D01*
X104946428Y-117308928D01*
X104984523Y-117385119D01*
X105060714Y-117461309D01*
X105175000Y-117499404D01*
X105365476Y-117499404D01*
X104222619Y-116966071D02*
X104222619Y-117499404D01*
X104413095Y-116661309D02*
X104603571Y-117232738D01*
X104108333Y-117232738D01*
%TO.C,J1*%
D15*
X111295933Y-84480895D02*
X111295933Y-85061466D01*
X111334638Y-85177580D01*
X111412047Y-85254990D01*
X111528161Y-85293695D01*
X111605571Y-85293695D01*
X110483133Y-85293695D02*
X110947590Y-85293695D01*
X110715361Y-85293695D02*
X110715361Y-84480895D01*
X110792771Y-84597009D01*
X110870180Y-84674419D01*
X110947590Y-84713123D01*
%TO.C,K3*%
D13*
X105513095Y-100020380D02*
X105513095Y-99020380D01*
X104941666Y-100020380D02*
X105370238Y-99448952D01*
X104941666Y-99020380D02*
X105513095Y-99591809D01*
X104608333Y-99020380D02*
X103989285Y-99020380D01*
X104322619Y-99401333D01*
X104179761Y-99401333D01*
X104084523Y-99448952D01*
X104036904Y-99496571D01*
X103989285Y-99591809D01*
X103989285Y-99829904D01*
X104036904Y-99925142D01*
X104084523Y-99972761D01*
X104179761Y-100020380D01*
X104465476Y-100020380D01*
X104560714Y-99972761D01*
X104608333Y-99925142D01*
D14*
X97209428Y-92637428D02*
X95685428Y-92637428D01*
X96628857Y-92782571D02*
X97209428Y-93218000D01*
X96193428Y-93218000D02*
X96774000Y-92637428D01*
X97209428Y-94088857D02*
X97136857Y-93943714D01*
X96991714Y-93871142D01*
X95685428Y-93871142D01*
X97209428Y-95322571D02*
X96411142Y-95322571D01*
X96266000Y-95250000D01*
X96193428Y-95104857D01*
X96193428Y-94814571D01*
X96266000Y-94669428D01*
X97136857Y-95322571D02*
X97209428Y-95177428D01*
X97209428Y-94814571D01*
X97136857Y-94669428D01*
X96991714Y-94596857D01*
X96846571Y-94596857D01*
X96701428Y-94669428D01*
X96628857Y-94814571D01*
X96628857Y-95177428D01*
X96556285Y-95322571D01*
X97136857Y-96701428D02*
X97209428Y-96556285D01*
X97209428Y-96266000D01*
X97136857Y-96120857D01*
X97064285Y-96048285D01*
X96919142Y-95975714D01*
X96483714Y-95975714D01*
X96338571Y-96048285D01*
X96266000Y-96120857D01*
X96193428Y-96266000D01*
X96193428Y-96556285D01*
X96266000Y-96701428D01*
X97209428Y-97354571D02*
X95685428Y-97354571D01*
X96628857Y-97499714D02*
X97209428Y-97935142D01*
X96193428Y-97935142D02*
X96774000Y-97354571D01*
%TO.C,R1*%
D11*
X121088666Y-105608380D02*
X121422000Y-105132190D01*
X121660095Y-105608380D02*
X121660095Y-104608380D01*
X121279142Y-104608380D01*
X121183904Y-104656000D01*
X121136285Y-104703619D01*
X121088666Y-104798857D01*
X121088666Y-104941714D01*
X121136285Y-105036952D01*
X121183904Y-105084571D01*
X121279142Y-105132190D01*
X121660095Y-105132190D01*
X120136285Y-105608380D02*
X120707714Y-105608380D01*
X120422000Y-105608380D02*
X120422000Y-104608380D01*
X120517238Y-104751238D01*
X120612476Y-104846476D01*
X120707714Y-104894095D01*
%TO.C,R2*%
X136723380Y-89640333D02*
X136247190Y-89307000D01*
X136723380Y-89068904D02*
X135723380Y-89068904D01*
X135723380Y-89449857D01*
X135771000Y-89545095D01*
X135818619Y-89592714D01*
X135913857Y-89640333D01*
X136056714Y-89640333D01*
X136151952Y-89592714D01*
X136199571Y-89545095D01*
X136247190Y-89449857D01*
X136247190Y-89068904D01*
X135818619Y-90021285D02*
X135771000Y-90068904D01*
X135723380Y-90164142D01*
X135723380Y-90402238D01*
X135771000Y-90497476D01*
X135818619Y-90545095D01*
X135913857Y-90592714D01*
X136009095Y-90592714D01*
X136151952Y-90545095D01*
X136723380Y-89973666D01*
X136723380Y-90592714D01*
%TO.C,R3*%
X126658666Y-104084380D02*
X126992000Y-103608190D01*
X127230095Y-104084380D02*
X127230095Y-103084380D01*
X126849142Y-103084380D01*
X126753904Y-103132000D01*
X126706285Y-103179619D01*
X126658666Y-103274857D01*
X126658666Y-103417714D01*
X126706285Y-103512952D01*
X126753904Y-103560571D01*
X126849142Y-103608190D01*
X127230095Y-103608190D01*
X126325333Y-103084380D02*
X125706285Y-103084380D01*
X126039619Y-103465333D01*
X125896761Y-103465333D01*
X125801523Y-103512952D01*
X125753904Y-103560571D01*
X125706285Y-103655809D01*
X125706285Y-103893904D01*
X125753904Y-103989142D01*
X125801523Y-104036761D01*
X125896761Y-104084380D01*
X126182476Y-104084380D01*
X126277714Y-104036761D01*
X126325333Y-103989142D01*
%TO.C,R4*%
X154193500Y-111903213D02*
X153717310Y-111569880D01*
X154193500Y-111331784D02*
X153193500Y-111331784D01*
X153193500Y-111712737D01*
X153241120Y-111807975D01*
X153288739Y-111855594D01*
X153383977Y-111903213D01*
X153526834Y-111903213D01*
X153622072Y-111855594D01*
X153669691Y-111807975D01*
X153717310Y-111712737D01*
X153717310Y-111331784D01*
X153526834Y-112760356D02*
X154193500Y-112760356D01*
X153145881Y-112522260D02*
X153860167Y-112284165D01*
X153860167Y-112903213D01*
%TO.C,RESET*%
X144150380Y-83819380D02*
X144483714Y-83343190D01*
X144721809Y-83819380D02*
X144721809Y-82819380D01*
X144340857Y-82819380D01*
X144245619Y-82867000D01*
X144198000Y-82914619D01*
X144150380Y-83009857D01*
X144150380Y-83152714D01*
X144198000Y-83247952D01*
X144245619Y-83295571D01*
X144340857Y-83343190D01*
X144721809Y-83343190D01*
X143721809Y-83295571D02*
X143388476Y-83295571D01*
X143245619Y-83819380D02*
X143721809Y-83819380D01*
X143721809Y-82819380D01*
X143245619Y-82819380D01*
X142864666Y-83771761D02*
X142721809Y-83819380D01*
X142483714Y-83819380D01*
X142388476Y-83771761D01*
X142340857Y-83724142D01*
X142293238Y-83628904D01*
X142293238Y-83533666D01*
X142340857Y-83438428D01*
X142388476Y-83390809D01*
X142483714Y-83343190D01*
X142674190Y-83295571D01*
X142769428Y-83247952D01*
X142817047Y-83200333D01*
X142864666Y-83105095D01*
X142864666Y-83009857D01*
X142817047Y-82914619D01*
X142769428Y-82867000D01*
X142674190Y-82819380D01*
X142436095Y-82819380D01*
X142293238Y-82867000D01*
X141864666Y-83295571D02*
X141531333Y-83295571D01*
X141388476Y-83819380D02*
X141864666Y-83819380D01*
X141864666Y-82819380D01*
X141388476Y-82819380D01*
X141102761Y-82819380D02*
X140531333Y-82819380D01*
X140817047Y-83819380D02*
X140817047Y-82819380D01*
%TO.C,D5*%
X124415476Y-98449404D02*
X124415476Y-97649404D01*
X124225000Y-97649404D01*
X124110714Y-97687500D01*
X124034523Y-97763690D01*
X123996428Y-97839880D01*
X123958333Y-97992261D01*
X123958333Y-98106547D01*
X123996428Y-98258928D01*
X124034523Y-98335119D01*
X124110714Y-98411309D01*
X124225000Y-98449404D01*
X124415476Y-98449404D01*
X123234523Y-97649404D02*
X123615476Y-97649404D01*
X123653571Y-98030357D01*
X123615476Y-97992261D01*
X123539285Y-97954166D01*
X123348809Y-97954166D01*
X123272619Y-97992261D01*
X123234523Y-98030357D01*
X123196428Y-98106547D01*
X123196428Y-98297023D01*
X123234523Y-98373214D01*
X123272619Y-98411309D01*
X123348809Y-98449404D01*
X123539285Y-98449404D01*
X123615476Y-98411309D01*
X123653571Y-98373214D01*
%TO.C,D6*%
X124415476Y-117816904D02*
X124415476Y-117016904D01*
X124225000Y-117016904D01*
X124110714Y-117055000D01*
X124034523Y-117131190D01*
X123996428Y-117207380D01*
X123958333Y-117359761D01*
X123958333Y-117474047D01*
X123996428Y-117626428D01*
X124034523Y-117702619D01*
X124110714Y-117778809D01*
X124225000Y-117816904D01*
X124415476Y-117816904D01*
X123272619Y-117016904D02*
X123425000Y-117016904D01*
X123501190Y-117055000D01*
X123539285Y-117093095D01*
X123615476Y-117207380D01*
X123653571Y-117359761D01*
X123653571Y-117664523D01*
X123615476Y-117740714D01*
X123577380Y-117778809D01*
X123501190Y-117816904D01*
X123348809Y-117816904D01*
X123272619Y-117778809D01*
X123234523Y-117740714D01*
X123196428Y-117664523D01*
X123196428Y-117474047D01*
X123234523Y-117397857D01*
X123272619Y-117359761D01*
X123348809Y-117321666D01*
X123501190Y-117321666D01*
X123577380Y-117359761D01*
X123615476Y-117397857D01*
X123653571Y-117474047D01*
%TO.C,Y1*%
X147983201Y-100192766D02*
X148319919Y-100529484D01*
X147848514Y-99586675D02*
X147983201Y-100192766D01*
X147377110Y-100058079D01*
X147478125Y-101371277D02*
X147882186Y-100967216D01*
X147680155Y-101169247D02*
X146973049Y-100462140D01*
X147141407Y-100495812D01*
X147276094Y-100495812D01*
X147377110Y-100462140D01*
%TD*%
M02*
