%TF.GenerationSoftware,KiCad,Pcbnew,(5.1.6)-1*%
%TF.CreationDate,2020-07-25T03:11:20-04:00*%
%TF.ProjectId,myfirstKeyboard,6d796669-7273-4744-9b65-79626f617264,rev?*%
%TF.SameCoordinates,Original*%
%TF.FileFunction,Soldermask,Bot*%
%TF.FilePolarity,Negative*%
%FSLAX46Y46*%
G04 Gerber Fmt 4.6, Leading zero omitted, Abs format (unit mm)*
G04 Created by KiCad (PCBNEW (5.1.6)-1) date 2020-07-25 03:11:20*
%MOMM*%
%LPD*%
G01*
G04 APERTURE LIST*
%ADD10R,1.600000X0.650000*%
%ADD11R,0.650000X1.600000*%
%ADD12R,1.300000X1.300000*%
%ADD13R,1.700000X1.700000*%
%ADD14C,1.700000*%
%ADD15R,2.450000X0.900000*%
%ADD16R,0.600000X1.500000*%
%ADD17O,1.600000X4.100000*%
%ADD18R,1.800000X1.100000*%
%ADD19C,0.100000*%
G04 APERTURE END LIST*
D10*
%TO.C,U1*%
X139842000Y-114013750D03*
X139842000Y-113213750D03*
X139842000Y-112413750D03*
X139842000Y-111613750D03*
X139842000Y-110813750D03*
X139842000Y-110013750D03*
X139842000Y-109213750D03*
X139842000Y-108413750D03*
X139842000Y-107613750D03*
X139842000Y-106813750D03*
X139842000Y-106013750D03*
D11*
X141542000Y-104313750D03*
X142342000Y-104313750D03*
X143142000Y-104313750D03*
X143942000Y-104313750D03*
X144742000Y-104313750D03*
X145542000Y-104313750D03*
X146342000Y-104313750D03*
X147142000Y-104313750D03*
X147942000Y-104313750D03*
X148742000Y-104313750D03*
X149542000Y-104313750D03*
D10*
X151242000Y-106013750D03*
X151242000Y-106813750D03*
X151242000Y-107613750D03*
X151242000Y-108413750D03*
X151242000Y-109213750D03*
X151242000Y-110013750D03*
X151242000Y-110813750D03*
X151242000Y-111613750D03*
X151242000Y-112413750D03*
X151242000Y-113213750D03*
X151242000Y-114013750D03*
D11*
X149542000Y-115713750D03*
X148742000Y-115713750D03*
X147942000Y-115713750D03*
X147142000Y-115713750D03*
X146342000Y-115713750D03*
X145542000Y-115713750D03*
X144742000Y-115713750D03*
X143942000Y-115713750D03*
X143142000Y-115713750D03*
X142342000Y-115713750D03*
X141542000Y-115713750D03*
%TD*%
%TO.C,K6*%
G36*
G01*
X118869129Y-111030326D02*
X120078053Y-109132696D01*
G75*
G02*
X121872951Y-108734776I1096409J-698489D01*
G01*
X121872951Y-108734776D01*
G75*
G02*
X122270871Y-110529674I-698489J-1096409D01*
G01*
X121061947Y-112427304D01*
G75*
G02*
X119267049Y-112825224I-1096409J698489D01*
G01*
X119267049Y-112825224D01*
G75*
G02*
X118869129Y-111030326I698489J1096409D01*
G01*
G37*
G36*
G01*
X125028286Y-109710909D02*
X125067734Y-109132252D01*
G75*
G02*
X126453144Y-107923682I1296990J-88420D01*
G01*
X126453144Y-107923682D01*
G75*
G02*
X127661714Y-109309092I-88420J-1296990D01*
G01*
X127622266Y-109887748D01*
G75*
G02*
X126236856Y-111096318I-1296990J88420D01*
G01*
X126236856Y-111096318D01*
G75*
G02*
X125028286Y-109710908I88420J1296990D01*
G01*
G37*
%TD*%
%TO.C,K5*%
G36*
G01*
X125028286Y-90660909D02*
X125067734Y-90082252D01*
G75*
G02*
X126453144Y-88873682I1296990J-88420D01*
G01*
X126453144Y-88873682D01*
G75*
G02*
X127661714Y-90259092I-88420J-1296990D01*
G01*
X127622266Y-90837748D01*
G75*
G02*
X126236856Y-92046318I-1296990J88420D01*
G01*
X126236856Y-92046318D01*
G75*
G02*
X125028286Y-90660908I88420J1296990D01*
G01*
G37*
G36*
G01*
X118869129Y-91980326D02*
X120078053Y-90082696D01*
G75*
G02*
X121872951Y-89684776I1096409J-698489D01*
G01*
X121872951Y-89684776D01*
G75*
G02*
X122270871Y-91479674I-698489J-1096409D01*
G01*
X121061947Y-93377304D01*
G75*
G02*
X119267049Y-93775224I-1096409J698489D01*
G01*
X119267049Y-93775224D01*
G75*
G02*
X118869129Y-91980326I698489J1096409D01*
G01*
G37*
%TD*%
%TO.C,K4*%
G36*
G01*
X99819129Y-111030326D02*
X101028053Y-109132696D01*
G75*
G02*
X102822951Y-108734776I1096409J-698489D01*
G01*
X102822951Y-108734776D01*
G75*
G02*
X103220871Y-110529674I-698489J-1096409D01*
G01*
X102011947Y-112427304D01*
G75*
G02*
X100217049Y-112825224I-1096409J698489D01*
G01*
X100217049Y-112825224D01*
G75*
G02*
X99819129Y-111030326I698489J1096409D01*
G01*
G37*
G36*
G01*
X105978286Y-109710909D02*
X106017734Y-109132252D01*
G75*
G02*
X107403144Y-107923682I1296990J-88420D01*
G01*
X107403144Y-107923682D01*
G75*
G02*
X108611714Y-109309092I-88420J-1296990D01*
G01*
X108572266Y-109887748D01*
G75*
G02*
X107186856Y-111096318I-1296990J88420D01*
G01*
X107186856Y-111096318D01*
G75*
G02*
X105978286Y-109710908I88420J1296990D01*
G01*
G37*
%TD*%
%TO.C,K1*%
G36*
G01*
X86928286Y-90660909D02*
X86967734Y-90082252D01*
G75*
G02*
X88353144Y-88873682I1296990J-88420D01*
G01*
X88353144Y-88873682D01*
G75*
G02*
X89561714Y-90259092I-88420J-1296990D01*
G01*
X89522266Y-90837748D01*
G75*
G02*
X88136856Y-92046318I-1296990J88420D01*
G01*
X88136856Y-92046318D01*
G75*
G02*
X86928286Y-90660908I88420J1296990D01*
G01*
G37*
G36*
G01*
X80769129Y-91980326D02*
X81978053Y-90082696D01*
G75*
G02*
X83772951Y-89684776I1096409J-698489D01*
G01*
X83772951Y-89684776D01*
G75*
G02*
X84170871Y-91479674I-698489J-1096409D01*
G01*
X82961947Y-93377304D01*
G75*
G02*
X81167049Y-93775224I-1096409J698489D01*
G01*
X81167049Y-93775224D01*
G75*
G02*
X80769129Y-91980326I698489J1096409D01*
G01*
G37*
%TD*%
%TO.C,K2*%
G36*
G01*
X86928286Y-109710909D02*
X86967734Y-109132252D01*
G75*
G02*
X88353144Y-107923682I1296990J-88420D01*
G01*
X88353144Y-107923682D01*
G75*
G02*
X89561714Y-109309092I-88420J-1296990D01*
G01*
X89522266Y-109887748D01*
G75*
G02*
X88136856Y-111096318I-1296990J88420D01*
G01*
X88136856Y-111096318D01*
G75*
G02*
X86928286Y-109710908I88420J1296990D01*
G01*
G37*
G36*
G01*
X80769129Y-111030326D02*
X81978053Y-109132696D01*
G75*
G02*
X83772951Y-108734776I1096409J-698489D01*
G01*
X83772951Y-108734776D01*
G75*
G02*
X84170871Y-110529674I-698489J-1096409D01*
G01*
X82961947Y-112427304D01*
G75*
G02*
X81167049Y-112825224I-1096409J698489D01*
G01*
X81167049Y-112825224D01*
G75*
G02*
X80769129Y-111030326I698489J1096409D01*
G01*
G37*
%TD*%
%TO.C,C1*%
G36*
G01*
X143115025Y-95559340D02*
X142438660Y-94882976D01*
G75*
G02*
X142438660Y-94498680I192148J192148D01*
G01*
X142938248Y-93999092D01*
G75*
G02*
X143322544Y-93999092I192148J-192148D01*
G01*
X143998908Y-94675456D01*
G75*
G02*
X143998908Y-95059752I-192148J-192148D01*
G01*
X143499320Y-95559340D01*
G75*
G02*
X143115024Y-95559340I-192148J192148D01*
G01*
G37*
G36*
G01*
X141665457Y-97008908D02*
X140989092Y-96332544D01*
G75*
G02*
X140989092Y-95948248I192148J192148D01*
G01*
X141488680Y-95448660D01*
G75*
G02*
X141872976Y-95448660I192148J-192148D01*
G01*
X142549340Y-96125024D01*
G75*
G02*
X142549340Y-96509320I-192148J-192148D01*
G01*
X142049752Y-97008908D01*
G75*
G02*
X141665456Y-97008908I-192148J192148D01*
G01*
G37*
%TD*%
%TO.C,C2*%
G36*
G01*
X151354262Y-100456000D02*
X150397738Y-100456000D01*
G75*
G02*
X150126000Y-100184262I0J271738D01*
G01*
X150126000Y-99477738D01*
G75*
G02*
X150397738Y-99206000I271738J0D01*
G01*
X151354262Y-99206000D01*
G75*
G02*
X151626000Y-99477738I0J-271738D01*
G01*
X151626000Y-100184262D01*
G75*
G02*
X151354262Y-100456000I-271738J0D01*
G01*
G37*
G36*
G01*
X151354262Y-98406000D02*
X150397738Y-98406000D01*
G75*
G02*
X150126000Y-98134262I0J271738D01*
G01*
X150126000Y-97427738D01*
G75*
G02*
X150397738Y-97156000I271738J0D01*
G01*
X151354262Y-97156000D01*
G75*
G02*
X151626000Y-97427738I0J-271738D01*
G01*
X151626000Y-98134262D01*
G75*
G02*
X151354262Y-98406000I-271738J0D01*
G01*
G37*
%TD*%
%TO.C,C3*%
G36*
G01*
X137384262Y-106271000D02*
X136427738Y-106271000D01*
G75*
G02*
X136156000Y-105999262I0J271738D01*
G01*
X136156000Y-105292738D01*
G75*
G02*
X136427738Y-105021000I271738J0D01*
G01*
X137384262Y-105021000D01*
G75*
G02*
X137656000Y-105292738I0J-271738D01*
G01*
X137656000Y-105999262D01*
G75*
G02*
X137384262Y-106271000I-271738J0D01*
G01*
G37*
G36*
G01*
X137384262Y-108321000D02*
X136427738Y-108321000D01*
G75*
G02*
X136156000Y-108049262I0J271738D01*
G01*
X136156000Y-107342738D01*
G75*
G02*
X136427738Y-107071000I271738J0D01*
G01*
X137384262Y-107071000D01*
G75*
G02*
X137656000Y-107342738I0J-271738D01*
G01*
X137656000Y-108049262D01*
G75*
G02*
X137384262Y-108321000I-271738J0D01*
G01*
G37*
%TD*%
%TO.C,C4*%
G36*
G01*
X141750124Y-100179759D02*
X141073760Y-100856124D01*
G75*
G02*
X140689464Y-100856124I-192148J192148D01*
G01*
X140189876Y-100356536D01*
G75*
G02*
X140189876Y-99972240I192148J192148D01*
G01*
X140866240Y-99295876D01*
G75*
G02*
X141250536Y-99295876I192148J-192148D01*
G01*
X141750124Y-99795464D01*
G75*
G02*
X141750124Y-100179760I-192148J-192148D01*
G01*
G37*
G36*
G01*
X140300556Y-98730191D02*
X139624192Y-99406556D01*
G75*
G02*
X139239896Y-99406556I-192148J192148D01*
G01*
X138740308Y-98906968D01*
G75*
G02*
X138740308Y-98522672I192148J192148D01*
G01*
X139416672Y-97846308D01*
G75*
G02*
X139800968Y-97846308I192148J-192148D01*
G01*
X140300556Y-98345896D01*
G75*
G02*
X140300556Y-98730192I-192148J-192148D01*
G01*
G37*
%TD*%
%TO.C,C5*%
G36*
G01*
X154148262Y-105255000D02*
X153191738Y-105255000D01*
G75*
G02*
X152920000Y-104983262I0J271738D01*
G01*
X152920000Y-104276738D01*
G75*
G02*
X153191738Y-104005000I271738J0D01*
G01*
X154148262Y-104005000D01*
G75*
G02*
X154420000Y-104276738I0J-271738D01*
G01*
X154420000Y-104983262D01*
G75*
G02*
X154148262Y-105255000I-271738J0D01*
G01*
G37*
G36*
G01*
X154148262Y-107305000D02*
X153191738Y-107305000D01*
G75*
G02*
X152920000Y-107033262I0J271738D01*
G01*
X152920000Y-106326738D01*
G75*
G02*
X153191738Y-106055000I271738J0D01*
G01*
X154148262Y-106055000D01*
G75*
G02*
X154420000Y-106326738I0J-271738D01*
G01*
X154420000Y-107033262D01*
G75*
G02*
X154148262Y-107305000I-271738J0D01*
G01*
G37*
%TD*%
%TO.C,C6*%
G36*
G01*
X137807320Y-119167382D02*
X137807320Y-118210858D01*
G75*
G02*
X138079058Y-117939120I271738J0D01*
G01*
X138785582Y-117939120D01*
G75*
G02*
X139057320Y-118210858I0J-271738D01*
G01*
X139057320Y-119167382D01*
G75*
G02*
X138785582Y-119439120I-271738J0D01*
G01*
X138079058Y-119439120D01*
G75*
G02*
X137807320Y-119167382I0J271738D01*
G01*
G37*
G36*
G01*
X139857320Y-119167382D02*
X139857320Y-118210858D01*
G75*
G02*
X140129058Y-117939120I271738J0D01*
G01*
X140835582Y-117939120D01*
G75*
G02*
X141107320Y-118210858I0J-271738D01*
G01*
X141107320Y-119167382D01*
G75*
G02*
X140835582Y-119439120I-271738J0D01*
G01*
X140129058Y-119439120D01*
G75*
G02*
X139857320Y-119167382I0J271738D01*
G01*
G37*
%TD*%
%TO.C,C7*%
G36*
G01*
X151276000Y-119858262D02*
X151276000Y-118901738D01*
G75*
G02*
X151547738Y-118630000I271738J0D01*
G01*
X152254262Y-118630000D01*
G75*
G02*
X152526000Y-118901738I0J-271738D01*
G01*
X152526000Y-119858262D01*
G75*
G02*
X152254262Y-120130000I-271738J0D01*
G01*
X151547738Y-120130000D01*
G75*
G02*
X151276000Y-119858262I0J271738D01*
G01*
G37*
G36*
G01*
X149226000Y-119858262D02*
X149226000Y-118901738D01*
G75*
G02*
X149497738Y-118630000I271738J0D01*
G01*
X150204262Y-118630000D01*
G75*
G02*
X150476000Y-118901738I0J-271738D01*
G01*
X150476000Y-119858262D01*
G75*
G02*
X150204262Y-120130000I-271738J0D01*
G01*
X149497738Y-120130000D01*
G75*
G02*
X149226000Y-119858262I0J271738D01*
G01*
G37*
%TD*%
%TO.C,C8*%
G36*
G01*
X136427738Y-112895000D02*
X137384262Y-112895000D01*
G75*
G02*
X137656000Y-113166738I0J-271738D01*
G01*
X137656000Y-113873262D01*
G75*
G02*
X137384262Y-114145000I-271738J0D01*
G01*
X136427738Y-114145000D01*
G75*
G02*
X136156000Y-113873262I0J271738D01*
G01*
X136156000Y-113166738D01*
G75*
G02*
X136427738Y-112895000I271738J0D01*
G01*
G37*
G36*
G01*
X136427738Y-114945000D02*
X137384262Y-114945000D01*
G75*
G02*
X137656000Y-115216738I0J-271738D01*
G01*
X137656000Y-115923262D01*
G75*
G02*
X137384262Y-116195000I-271738J0D01*
G01*
X136427738Y-116195000D01*
G75*
G02*
X136156000Y-115923262I0J271738D01*
G01*
X136156000Y-115216738D01*
G75*
G02*
X136427738Y-114945000I271738J0D01*
G01*
G37*
%TD*%
D12*
%TO.C,D1*%
X87300000Y-100012500D03*
X84150000Y-100012500D03*
D13*
X81825000Y-100012500D03*
D14*
X89625000Y-100012500D03*
%TD*%
%TO.C,D2*%
X89625000Y-119062500D03*
D13*
X81825000Y-119062500D03*
D12*
X84150000Y-119062500D03*
X87300000Y-119062500D03*
%TD*%
D14*
%TO.C,D3*%
X108675000Y-100330000D03*
D13*
X100875000Y-100330000D03*
D12*
X103200000Y-100330000D03*
X106350000Y-100330000D03*
%TD*%
%TO.C,D4*%
X106350000Y-119062500D03*
X103200000Y-119062500D03*
D13*
X100875000Y-119062500D03*
D14*
X108675000Y-119062500D03*
%TD*%
D15*
%TO.C,J1*%
X113700000Y-82176000D03*
X108350000Y-82176000D03*
D16*
X109425000Y-87376000D03*
X110225000Y-87376000D03*
X111025000Y-87376000D03*
X111825000Y-87376000D03*
X112625000Y-87376000D03*
D17*
X107375000Y-84976000D03*
X114675000Y-84976000D03*
%TD*%
%TO.C,K3*%
G36*
G01*
X99819129Y-91980326D02*
X101028053Y-90082696D01*
G75*
G02*
X102822951Y-89684776I1096409J-698489D01*
G01*
X102822951Y-89684776D01*
G75*
G02*
X103220871Y-91479674I-698489J-1096409D01*
G01*
X102011947Y-93377304D01*
G75*
G02*
X100217049Y-93775224I-1096409J698489D01*
G01*
X100217049Y-93775224D01*
G75*
G02*
X99819129Y-91980326I698489J1096409D01*
G01*
G37*
G36*
G01*
X105978286Y-90660909D02*
X106017734Y-90082252D01*
G75*
G02*
X107403144Y-88873682I1296990J-88420D01*
G01*
X107403144Y-88873682D01*
G75*
G02*
X108611714Y-90259092I-88420J-1296990D01*
G01*
X108572266Y-90837748D01*
G75*
G02*
X107186856Y-92046318I-1296990J88420D01*
G01*
X107186856Y-92046318D01*
G75*
G02*
X105978286Y-90660908I88420J1296990D01*
G01*
G37*
%TD*%
%TO.C,R1*%
G36*
G01*
X119769000Y-104677738D02*
X119769000Y-105634262D01*
G75*
G02*
X119497262Y-105906000I-271738J0D01*
G01*
X118790738Y-105906000D01*
G75*
G02*
X118519000Y-105634262I0J271738D01*
G01*
X118519000Y-104677738D01*
G75*
G02*
X118790738Y-104406000I271738J0D01*
G01*
X119497262Y-104406000D01*
G75*
G02*
X119769000Y-104677738I0J-271738D01*
G01*
G37*
G36*
G01*
X117719000Y-104677738D02*
X117719000Y-105634262D01*
G75*
G02*
X117447262Y-105906000I-271738J0D01*
G01*
X116740738Y-105906000D01*
G75*
G02*
X116469000Y-105634262I0J271738D01*
G01*
X116469000Y-104677738D01*
G75*
G02*
X116740738Y-104406000I271738J0D01*
G01*
X117447262Y-104406000D01*
G75*
G02*
X117719000Y-104677738I0J-271738D01*
G01*
G37*
%TD*%
%TO.C,R2*%
G36*
G01*
X136749262Y-88400000D02*
X135792738Y-88400000D01*
G75*
G02*
X135521000Y-88128262I0J271738D01*
G01*
X135521000Y-87421738D01*
G75*
G02*
X135792738Y-87150000I271738J0D01*
G01*
X136749262Y-87150000D01*
G75*
G02*
X137021000Y-87421738I0J-271738D01*
G01*
X137021000Y-88128262D01*
G75*
G02*
X136749262Y-88400000I-271738J0D01*
G01*
G37*
G36*
G01*
X136749262Y-86350000D02*
X135792738Y-86350000D01*
G75*
G02*
X135521000Y-86078262I0J271738D01*
G01*
X135521000Y-85371738D01*
G75*
G02*
X135792738Y-85100000I271738J0D01*
G01*
X136749262Y-85100000D01*
G75*
G02*
X137021000Y-85371738I0J-271738D01*
G01*
X137021000Y-86078262D01*
G75*
G02*
X136749262Y-86350000I-271738J0D01*
G01*
G37*
%TD*%
%TO.C,R3*%
G36*
G01*
X123289000Y-103153738D02*
X123289000Y-104110262D01*
G75*
G02*
X123017262Y-104382000I-271738J0D01*
G01*
X122310738Y-104382000D01*
G75*
G02*
X122039000Y-104110262I0J271738D01*
G01*
X122039000Y-103153738D01*
G75*
G02*
X122310738Y-102882000I271738J0D01*
G01*
X123017262Y-102882000D01*
G75*
G02*
X123289000Y-103153738I0J-271738D01*
G01*
G37*
G36*
G01*
X125339000Y-103153738D02*
X125339000Y-104110262D01*
G75*
G02*
X125067262Y-104382000I-271738J0D01*
G01*
X124360738Y-104382000D01*
G75*
G02*
X124089000Y-104110262I0J271738D01*
G01*
X124089000Y-103153738D01*
G75*
G02*
X124360738Y-102882000I271738J0D01*
G01*
X125067262Y-102882000D01*
G75*
G02*
X125339000Y-103153738I0J-271738D01*
G01*
G37*
%TD*%
%TO.C,R4*%
G36*
G01*
X154148262Y-114662000D02*
X153191738Y-114662000D01*
G75*
G02*
X152920000Y-114390262I0J271738D01*
G01*
X152920000Y-113683738D01*
G75*
G02*
X153191738Y-113412000I271738J0D01*
G01*
X154148262Y-113412000D01*
G75*
G02*
X154420000Y-113683738I0J-271738D01*
G01*
X154420000Y-114390262D01*
G75*
G02*
X154148262Y-114662000I-271738J0D01*
G01*
G37*
G36*
G01*
X154148262Y-116712000D02*
X153191738Y-116712000D01*
G75*
G02*
X152920000Y-116440262I0J271738D01*
G01*
X152920000Y-115733738D01*
G75*
G02*
X153191738Y-115462000I271738J0D01*
G01*
X154148262Y-115462000D01*
G75*
G02*
X154420000Y-115733738I0J-271738D01*
G01*
X154420000Y-116440262D01*
G75*
G02*
X154148262Y-116712000I-271738J0D01*
G01*
G37*
%TD*%
D18*
%TO.C,RESET*%
X145873000Y-85217000D03*
X139573000Y-85217000D03*
X145873000Y-89017000D03*
X139573000Y-89017000D03*
%TD*%
D14*
%TO.C,D5*%
X127725000Y-100012500D03*
D13*
X119925000Y-100012500D03*
D12*
X122250000Y-100012500D03*
X125400000Y-100012500D03*
%TD*%
%TO.C,D6*%
X125400000Y-119380000D03*
X122250000Y-119380000D03*
D13*
X119925000Y-119380000D03*
D14*
X127725000Y-119380000D03*
%TD*%
D19*
%TO.C,Y1*%
G36*
X143632812Y-100122056D02*
G01*
X142289309Y-98778553D01*
X143844944Y-97222918D01*
X145188447Y-98566421D01*
X143632812Y-100122056D01*
G37*
G36*
X145683421Y-98071447D02*
G01*
X144339918Y-96727944D01*
X145895553Y-95172309D01*
X147239056Y-96515812D01*
X145683421Y-98071447D01*
G37*
G36*
X147239056Y-99627082D02*
G01*
X145895553Y-98283579D01*
X147451188Y-96727944D01*
X148794691Y-98071447D01*
X147239056Y-99627082D01*
G37*
G36*
X145188447Y-101677691D02*
G01*
X143844944Y-100334188D01*
X145400579Y-98778553D01*
X146744082Y-100122056D01*
X145188447Y-101677691D01*
G37*
%TD*%
M02*
